<?xml version="1.0" encoding="UTF-8" standalone="no"?>
<svg
   xmlns:dc="http://purl.org/dc/elements/1.1/"
   xmlns:cc="http://creativecommons.org/ns#"
   xmlns:rdf="http://www.w3.org/1999/02/22-rdf-syntax-ns#"
   xmlns:svg="http://www.w3.org/2000/svg"
   xmlns="http://www.w3.org/2000/svg"
   xmlns:sodipodi="http://sodipodi.sourceforge.net/DTD/sodipodi-0.dtd"
   xmlns:inkscape="http://www.inkscape.org/namespaces/inkscape"
   version="1.1"
   id="Layer_1"
   x="0px"
   y="0px"
   viewBox="0 0 350.35135 340.49554"
   xml:space="preserve"
   sodipodi:docname="logo_harvard.svg"
   width="350.35135"
   height="340.49554"
   inkscape:version="1.0.1 (3bc2e813f5, 2020-09-07)"><metadata
   id="metadata51"><rdf:RDF><cc:Work
       rdf:about=""><dc:format>image/svg+xml</dc:format><dc:type
         rdf:resource="http://purl.org/dc/dcmitype/StillImage" /><dc:title></dc:title></cc:Work></rdf:RDF></metadata><defs
   id="defs49" /><sodipodi:namedview
   pagecolor="#ffffff"
   bordercolor="#666666"
   borderopacity="1"
   objecttolerance="10"
   gridtolerance="10"
   guidetolerance="10"
   inkscape:pageopacity="0"
   inkscape:pageshadow="2"
   inkscape:window-width="1920"
   inkscape:window-height="1007"
   id="namedview47"
   showgrid="false"
   fit-margin-top="0"
   fit-margin-left="0"
   fit-margin-right="0"
   fit-margin-bottom="0"
   inkscape:zoom="1.256"
   inkscape:cx="175.32567"
   inkscape:cy="170.38907"
   inkscape:window-x="0"
   inkscape:window-y="0"
   inkscape:window-maximized="1"
   inkscape:current-layer="Layer_1" />
<style
   type="text/css"
   id="style2">
	.st0{fill:#FFFFFF;}
	.st1{fill:#C90016;}
	.st2{fill:#AD8B3A;}
</style>
<g
   id="XMLID_274_"
   transform="translate(-74.67433,-79.61093)">
	<path
   id="XMLID_298_"
   class="st0"
   d="m 323.2,365.6 c -4.6,-1.4 -8.1,0.2 -10.4,1.6 -0.6,0.4 -1.6,1.1 -1.7,1.4 -0.2,0.3 -0.2,0.5 0.1,0.9 0.7,1.2 2.6,4.2 4.3,7 l 2.7,4.4 c 2.3,3.7 4,6.3 4.4,7 0.6,0.8 1.5,2.2 2,2.4 0.8,0.4 2.4,0.4 4.6,-1 3,-1.8 4.5,-3.8 5.1,-6.6 0.7,-3.1 -0.7,-6.6 -3,-10.1 -2.6,-4.5 -5.9,-6.4 -8.1,-7 z m -122.3,13.9 -6.6,8.2 c -0.1,0.1 -0.1,0.3 0,0.3 l 5.8,2.3 c 0.2,0.1 0.2,0 0.2,-0.2 l 0.8,-10.5 c 0,-0.2 0.1,-0.4 0,-0.4 0,0 -0.1,0.2 -0.2,0.3 z m 89.9,-1.9 c -0.8,0.3 -1.4,0.5 -1.6,0.8 -0.2,0.2 -0.2,0.3 -0.1,0.6 l 4.3,11.7 c 0.2,0.4 0.3,0.6 0.5,0.6 0.8,0 1.8,-0.2 2.6,-0.5 1.3,-0.5 1.6,-0.8 2,-1.5 0.7,-1.2 0.9,-3.3 -0.2,-6.4 -2.1,-5.5 -5.6,-6 -7.5,-5.3 z m -21.2,11.3 c -0.1,-0.2 -0.1,-0.4 -0.2,-0.3 -0.1,0 -0.1,0.2 -0.1,0.4 l -1.6,10.4 c 0,0.2 0,0.3 0.2,0.3 l 6.2,-0.9 c 0.2,0 0.2,-0.2 0.1,-0.3 z M 157.8,338.7 c 2.9,-3.1 6.2,-4.5 6.3,-4.5 l 0.2,-0.1 h 0.2 c 1.3,0 1.7,-0.2 1.8,-0.3 -0.2,-0.4 -0.7,-1 -1.4,-1.5 -6.6,-5.5 -11,-0.7 -11.5,-0.2 l -16.2,19.5 c 1.7,0.6 3.7,2.1 4.9,4.8 z m 67.5,42.3 c -0.8,-0.2 -1.4,-0.3 -1.8,-0.2 -0.3,0 -0.4,0.2 -0.4,0.5 l -2.6,12.1 c -0.1,0.4 -0.1,0.6 0.1,0.8 0.6,0.4 1.6,0.8 2.4,0.9 1.3,0.3 1.8,0.2 2.5,-0.2 1.2,-0.7 2.6,-2.3 3.3,-5.6 1.3,-5.5 -1.5,-7.8 -3.5,-8.3 z m 110.3,-49.6 c -2.8,1.7 -3.2,2.5 -3.3,2.7 0.3,0.3 1.7,0.7 3,0.8 h 0.2 l 0.2,0.1 c 2.9,1 4.4,2.3 4.4,2.4 2.3,1.8 10.2,10.8 16.3,17.9 0.9,-1.4 2.5,-2.9 4.9,-3.7 L 347,333.3 c -5.9,-5 -11.1,-2 -11.4,-1.9 z m 49.3,7.5 -23.1,-22 c -0.3,-0.3 -7.8,-8.2 -14.6,-2.3 0,0 -1.3,1.2 -1.4,2.8 0,1 0.4,2 1.1,2.8 2.1,1.5 3.1,2.4 3.6,3 1.6,0.3 4.4,0.2 3.9,-3.7 0,0 0.1,-2 -1.6,-1.7 0,0 -2.6,-1.5 1.9,-1.9 0,0 7.9,2.8 -2,9.3 0,0 -1.1,0.8 -4.3,0 -12.2,-1.9 -17.8,4.1 -18.1,4.5 -2,1.9 -3.1,3.8 -3.1,5.4 0,0.2 0,0.3 0,0.5 0.3,1.7 1.7,2.8 2.3,3.1 2.2,-0.3 3.5,0.7 3.7,0.8 2.2,1.9 3.1,3.8 2.7,5.5 -0.6,2.6 -3.9,3.5 -4.3,3.6 l -0.2,0.1 h -0.2 c -4.8,-0.6 -8.1,1.7 -8.1,1.7 -0.7,0.6 -67.4,54.7 -146.5,-0.5 0,0 -2.5,-2 -8.5,-1.4 h -0.2 -0.2 c -0.3,-0.1 -3.3,-0.8 -4.1,-3.1 -0.5,-1.5 0,-3.1 1.4,-4.8 0.1,-0.2 1.5,-2 5.2,-1.4 0.2,0 1.9,-0.3 2.4,-1.5 0.1,-0.3 0.2,-0.6 0.2,-1 0,-1.3 -0.7,-3 -2.1,-5 -0.1,-0.1 -8.9,-9.6 -19.1,-6.3 -1,0.4 -2.1,0.6 -3.4,0.6 v 0 0 c -0.1,0 -0.3,0 -0.4,0 v -0.1 c -1.2,-0.2 -4.9,-1.3 -6,-6 0,0 0.3,-3.7 3.6,-3.8 0,0 3.1,0.7 1.5,1.8 l -0.1,-0.1 c 0,0 -2.3,-0.6 -1.4,2.4 0,0 0.6,3 3.5,3.2 0.6,0 1.2,-0.1 1.6,-0.3 V 323 h 0.2 c 0.5,-0.2 0.9,-0.5 1.2,-0.9 0.9,-1.1 1.1,-2.7 1.1,-4.1 0,-1.2 -0.2,-2.2 -0.3,-2.9 -2.8,-4.8 -10.4,-1.7 -11.2,-1.3 -0.3,0.3 -28.6,26.9 -28.9,27.2 -0.2,0.4 -1.1,2.4 -1.1,5 0,3.2 1.3,7.5 6.8,11.4 0.1,0 6.9,3.7 11,0.1 l 22.3,-26.9 c 0.1,-0.1 6.4,-7.4 15,-0.2 0.6,0.5 2.4,2 2.4,3.6 0,0.2 0,0.4 -0.1,0.7 -0.5,1.6 -2.5,1.9 -4,2 -0.4,0.2 -3,1.3 -5.3,3.8 0,0 -22.1,25.4 -22.4,25.7 -0.2,0.4 -1.1,2.6 -1.1,5.5 0,1.4 0.2,3 0.9,4.5 1.5,3.3 4.9,5.6 10,6.9 0.3,0.1 6.2,1.6 12.4,7.3 0.9,0.7 89.7,64.1 186.5,-4.2 0.5,-0.6 3.2,-3.1 9.4,-3.4 0.2,-0.1 5.5,-1.8 7.6,-6.5 0.5,-1.2 0.8,-2.5 0.8,-3.8 0,-2 -0.6,-4.3 -1.7,-6.7 -1.9,-2.2 -4.2,-5 -6.7,-7.9 h -0.1 v -0.1 c -6.8,-7.9 -14.6,-16.8 -16.7,-18.4 0,0 -1.2,-1 -3.5,-1.9 -1.3,-0.1 -4.6,-0.5 -5.1,-2.7 0,-0.2 -0.1,-0.4 -0.1,-0.6 0,-1.9 2.4,-3.6 4.5,-4.9 0.1,0 7,-4 14.4,2.4 l 19.7,24.9 c 0.3,0.3 6.6,6 13,-0.2 0.1,0 5.8,-4.5 6.2,-10.1 0.4,-2.7 -0.6,-5.1 -2.7,-7.4 z M 176.2,393 c 0.4,0.3 1,0.8 1.4,1 0.3,0.2 0.4,0.4 0.3,0.6 -0.1,0.2 -0.4,0.2 -0.8,0 -1.9,-1.2 -3.7,-2.4 -4.5,-2.9 -0.7,-0.4 -2.6,-1.4 -3.7,-2.1 -0.4,-0.2 -0.5,-0.5 -0.4,-0.7 0.1,-0.2 0.3,-0.2 0.6,0 0.4,0.3 0.8,0.4 1.1,0.5 0.7,0.2 1.3,-0.5 2,-1.4 1,-1.4 2.7,-4.1 4.7,-7.3 l 1.9,-3.1 c 0.1,-0.1 0,-0.3 0,-0.3 l -11.1,-6.8 c -0.1,-0.1 -0.2,-0.1 -0.3,0.1 l -1.9,3.1 c -2,3.2 -3.6,6 -4.4,7.6 -0.5,1 -0.8,1.9 0,2.6 0.4,0.3 1,0.8 1.4,1 0.3,0.2 0.4,0.4 0.3,0.6 -0.1,0.2 -0.4,0.2 -0.8,0 -1.9,-1.1 -3.7,-2.4 -4.5,-2.9 -0.7,-0.4 -2.6,-1.4 -3.7,-2.1 -0.4,-0.2 -0.5,-0.5 -0.4,-0.7 0.1,-0.2 0.3,-0.2 0.6,0 0.4,0.3 0.8,0.4 1.1,0.5 0.7,0.2 1.3,-0.5 2,-1.4 1,-1.4 2.7,-4.1 4.7,-7.3 l 3.7,-6.1 c 3.2,-5.3 3.8,-6.3 4.4,-7.4 0.7,-1.2 0.8,-1.9 0,-2.8 -0.2,-0.2 -0.7,-0.5 -1.1,-0.8 -0.3,-0.2 -0.5,-0.4 -0.3,-0.6 0.1,-0.2 0.4,-0.2 0.8,0.1 1.6,1 3.3,2.2 4.1,2.7 0.7,0.4 2.6,1.4 3.7,2.1 0.4,0.2 0.6,0.4 0.4,0.7 -0.1,0.2 -0.4,0.2 -0.7,0 -0.2,-0.1 -0.5,-0.3 -0.9,-0.4 -0.9,-0.3 -1.5,0.1 -2.3,1.3 -0.7,1.1 -1.3,2.1 -4.6,7.4 l -0.4,0.7 c -0.1,0.2 -0.1,0.3 0,0.4 l 11.1,6.8 c 0.1,0 0.2,0 0.3,-0.1 l 0.4,-0.7 c 3.2,-5.3 3.8,-6.3 4.4,-7.4 0.7,-1.2 0.8,-1.9 0,-2.7 -0.2,-0.2 -0.7,-0.5 -1.1,-0.8 -0.3,-0.2 -0.5,-0.4 -0.3,-0.6 0.1,-0.2 0.4,-0.2 0.8,0.1 1.6,1 3.3,2.2 4.1,2.7 0.7,0.4 2.6,1.4 3.7,2.1 0.4,0.2 0.6,0.4 0.4,0.7 -0.1,0.2 -0.4,0.2 -0.7,0 -0.2,-0.1 -0.5,-0.3 -0.9,-0.4 -0.9,-0.3 -1.5,0.1 -2.3,1.3 -0.7,1.1 -1.3,2.1 -4.6,7.4 l -3.7,6.1 c -2,3.2 -3.6,6 -4.4,7.6 -0.1,0.4 -0.4,1.3 0.4,2 z m 30.6,13.2 c -0.1,0.3 -0.4,0.3 -1.6,-0.2 -1.1,-0.4 -3.5,-1.4 -6,-2.4 -0.6,-0.3 -0.9,-0.4 -0.8,-0.7 0.1,-0.2 0.2,-0.3 0.6,-0.2 0.3,0 0.6,-0.2 0.6,-0.8 l 0.6,-9.1 c 0,-0.2 -0.1,-0.3 -0.2,-0.4 l -7.1,-2.8 c -0.2,-0.1 -0.3,0 -0.4,0.2 l -3.9,4.8 c -0.7,0.8 -1.2,1.7 -1.4,2.1 -0.3,0.7 -0.2,1.3 0.8,1.7 l 0.5,0.2 c 0.4,0.1 0.4,0.3 0.4,0.5 -0.1,0.3 -0.3,0.3 -0.7,0.2 -1,-0.4 -2.3,-1 -3.3,-1.4 -0.3,-0.1 -2.1,-0.7 -3.8,-1.4 -0.4,-0.2 -0.6,-0.3 -0.5,-0.6 0.1,-0.2 0.2,-0.3 0.5,-0.2 0.3,0.1 0.7,0.2 1,0.3 1.5,0.3 2.7,-0.7 4,-2.4 l 17.3,-20.7 c 0.8,-1 1.2,-1.3 1.5,-1.2 0.3,0.1 0.3,0.5 0.3,1.5 -0.1,2.4 -1.1,19.9 -1.3,26.5 -0.1,3.9 0.6,4.8 1.2,5.2 0.4,0.3 0.9,0.5 1.3,0.7 0.3,0.2 0.5,0.3 0.4,0.6 z m 29.4,6.4 c -0.1,0.3 -0.3,0.3 -0.7,0.3 l -3.2,-0.7 c -1.9,-0.4 -2.7,-0.8 -3.4,-1.5 -1.2,-1.2 -2.1,-3.4 -3.3,-6.9 -0.9,-2.5 -1.8,-5.5 -2.1,-6.2 -0.1,-0.3 -0.3,-0.4 -0.5,-0.4 l -2.9,-0.7 c -0.2,0 -0.3,0 -0.3,0.3 l -0.1,0.6 c -0.8,3.7 -1.5,6.9 -1.7,8.6 -0.2,1.2 -0.1,2.1 0.8,2.5 0.5,0.2 1.2,0.4 1.6,0.5 0.3,0.1 0.4,0.2 0.3,0.4 -0.1,0.3 -0.3,0.3 -0.8,0.3 -1.9,-0.4 -4.4,-1.1 -4.9,-1.2 -0.6,-0.1 -2.8,-0.5 -4.1,-0.8 -0.4,-0.1 -0.6,-0.3 -0.6,-0.5 0,-0.2 0.2,-0.3 0.6,-0.2 0.5,0.1 0.9,0.1 1.2,0.1 0.7,0 1.1,-0.9 1.4,-2 0.5,-1.6 1.2,-4.8 2,-8.5 l 1.5,-7 c 1.3,-6.1 1.6,-7.2 1.8,-8.5 0.2,-1.4 0.1,-2.1 -0.9,-2.6 -0.2,-0.1 -0.8,-0.3 -1.3,-0.4 -0.4,-0.1 -0.5,-0.2 -0.5,-0.5 0.1,-0.3 0.3,-0.3 0.8,-0.2 1.8,0.4 3.8,1 4.5,1.1 1.1,0.2 3.7,0.7 4.7,0.9 2.1,0.5 4.3,1.2 5.8,3 0.8,1 1.7,3.3 1.1,6 -0.6,3 -2.3,5.4 -6.3,8 2,5.1 3.5,9.2 4.9,12.1 1.4,2.7 2.7,3.3 3.1,3.5 0.4,0.2 0.6,0.3 0.9,0.3 0.5,0 0.6,0.1 0.6,0.3 z m 18.4,-14.3 c -2.4,5.9 -4.1,10.3 -4.9,12.3 -1,2.3 -1.2,3 -1.7,3 -0.4,0 -0.6,-0.6 -1.2,-2.5 L 239,385.9 c -0.7,-2.3 -1.3,-2.7 -2.5,-3.2 -0.5,-0.2 -1.1,-0.2 -1.3,-0.2 -0.3,0 -0.4,-0.1 -0.4,-0.4 0,-0.3 0.4,-0.4 0.9,-0.3 1.8,0.1 3.7,0.2 4.9,0.3 0.9,0 2.5,0 4.2,0 0.4,0 0.8,0.1 0.8,0.4 0,0.3 -0.2,0.4 -0.5,0.3 -0.5,0 -1.1,0 -1.3,0.2 -0.2,0.2 -0.4,0.5 -0.4,0.8 0,0.5 0.3,1.7 0.7,3.2 l 5.3,18.7 h 0.1 c 1.6,-4.4 6.5,-17.4 7.4,-20.1 0.2,-0.5 0.3,-1.1 0.4,-1.5 0,-0.3 -0.1,-0.7 -0.4,-0.8 -0.4,-0.2 -0.9,-0.2 -1.4,-0.3 -0.3,0 -0.6,-0.1 -0.6,-0.3 0,-0.3 0.3,-0.4 1,-0.4 1.7,0.1 3.1,0.2 3.6,0.2 0.6,0 2.2,-0.1 3.2,0 0.4,0 0.7,0.1 0.7,0.4 0,0.3 -0.2,0.4 -0.6,0.4 -0.3,0 -1.1,0 -1.7,0.4 -0.5,0.3 -1,1 -2,3.6 -1.5,3.9 -2.5,6.1 -4.5,11 z m 31.6,11.4 c -1.2,0.2 -3.7,0.6 -6.4,0.9 -0.6,0.1 -1,0.1 -1.1,-0.2 0,-0.2 0.1,-0.3 0.4,-0.4 0.2,-0.1 0.4,-0.5 0.2,-1 l -4,-8.2 c -0.1,-0.2 -0.2,-0.3 -0.4,-0.2 l -7.5,1.1 c -0.2,0 -0.2,0.1 -0.3,0.4 l -0.9,6.1 c -0.2,1.1 -0.2,2.1 -0.1,2.5 0.1,0.7 0.5,1.2 1.5,1.1 l 0.5,-0.1 c 0.4,-0.1 0.5,0 0.6,0.2 0,0.3 -0.1,0.4 -0.5,0.5 -1.1,0.2 -2.5,0.3 -3.6,0.4 -0.4,0.1 -2.2,0.5 -4,0.7 -0.4,0.1 -0.7,0 -0.7,-0.3 0,-0.2 0.1,-0.3 0.4,-0.4 0.3,0 0.8,-0.2 1,-0.2 1.5,-0.5 1.9,-1.9 2.3,-4.1 l 4.6,-26.6 c 0.2,-1.2 0.4,-1.7 0.7,-1.8 0.3,0 0.6,0.3 1,1.2 1.1,2.1 9,17.8 12.1,23.6 1.8,3.4 2.9,3.9 3.6,4 0.5,0.1 1,0 1.4,-0.1 0.3,0 0.4,0 0.5,0.3 0.2,0.3 -0.1,0.4 -1.3,0.6 z m 30.2,-10.6 -3,1.1 c -1.8,0.7 -2.7,0.8 -3.7,0.5 -1.7,-0.4 -3.6,-1.7 -6.4,-4 -2,-1.6 -4.5,-3.7 -5.1,-4.1 -0.2,-0.2 -0.4,-0.1 -0.7,-0.1 l -2.8,0.9 c -0.2,0.1 -0.2,0.2 -0.1,0.4 l 0.2,0.5 c 1.3,3.6 2.4,6.6 3.2,8.1 0.5,1.1 1,1.9 2,1.7 0.5,-0.1 1.2,-0.3 1.6,-0.4 0.3,-0.1 0.4,0 0.5,0.2 0.1,0.3 -0.1,0.5 -0.5,0.6 -1.9,0.7 -4.3,1.4 -4.7,1.6 -0.6,0.2 -2.6,1.1 -3.9,1.5 -0.4,0.2 -0.7,0.1 -0.8,-0.1 -0.1,-0.2 0,-0.4 0.4,-0.5 0.5,-0.2 0.8,-0.4 1.1,-0.6 0.6,-0.4 0.4,-1.3 0.2,-2.5 -0.4,-1.7 -1.5,-4.7 -2.8,-8.2 l -2.5,-6.8 c -2.1,-5.8 -2.5,-6.9 -3,-8.1 -0.5,-1.3 -1,-1.8 -2.2,-1.7 -0.3,0 -0.8,0.2 -1.3,0.3 -0.4,0.1 -0.6,0.1 -0.7,-0.1 -0.1,-0.3 0.1,-0.4 0.6,-0.6 1.7,-0.6 3.8,-1.2 4.4,-1.5 1.1,-0.4 3.5,-1.4 4.5,-1.8 2,-0.7 4.2,-1.3 6.5,-0.5 1.2,0.4 3.2,1.9 4.1,4.5 1,2.8 1,5.8 -1.1,10.1 4.4,3.3 7.9,5.9 10.6,7.5 2.6,1.6 4,1.4 4.5,1.3 0.4,-0.1 0.7,-0.1 0.9,-0.2 0.3,-0.1 0.4,0 0.5,0.2 0.1,0.5 -0.1,0.6 -0.5,0.8 z m 21.1,-18.4 c -0.3,2.5 -1.8,6.8 -7.1,10.1 -1,0.7 -2.3,1.3 -3.5,1.9 -1.2,0.6 -2.2,1.1 -3,1.6 -0.3,0.2 -1,0.6 -1.6,1.1 -0.7,0.4 -1.4,1 -2,1.3 -0.4,0.2 -0.6,0.3 -0.8,0 -0.1,-0.2 -0.1,-0.4 0.3,-0.6 0.4,-0.3 0.7,-0.6 1,-0.8 0.5,-0.5 0.2,-1.3 -0.4,-2.4 -0.8,-1.5 -2.5,-4.3 -4.5,-7.5 l -3.8,-6.1 c -3.3,-5.3 -3.9,-6.2 -4.6,-7.3 -0.8,-1.1 -1.4,-1.6 -2.5,-1.2 -0.3,0.1 -0.8,0.3 -1.2,0.6 -0.3,0.2 -0.5,0.2 -0.7,0 -0.2,-0.2 0,-0.4 0.4,-0.7 1.5,-1 3.4,-2 4.2,-2.5 0.9,-0.6 2.7,-1.8 4.4,-2.9 3.6,-2.3 8.4,-5.3 14.1,-3.3 2.6,0.9 5.7,2.9 8.3,7.1 2.9,4.4 3.4,8.7 3,11.6 z" />
	<path
   id="XMLID_299_"
   d="m 179.9,375.4 c 0.1,0 0.2,0 0.3,-0.1 l 0.4,-0.7 c 3.2,-5.3 3.8,-6.3 4.4,-7.4 0.7,-1.2 0.8,-1.9 0,-2.8 -0.2,-0.2 -0.7,-0.5 -1.1,-0.8 -0.3,-0.2 -0.5,-0.4 -0.3,-0.6 0.1,-0.2 0.4,-0.2 0.8,0.1 1.6,1 3.3,2.2 4.1,2.7 0.7,0.4 2.6,1.4 3.7,2.1 0.4,0.2 0.6,0.4 0.4,0.7 -0.1,0.2 -0.4,0.2 -0.7,0 -0.2,-0.1 -0.5,-0.3 -0.9,-0.4 -0.9,-0.3 -1.5,0.1 -2.3,1.3 -0.7,1.1 -1.3,2.1 -4.6,7.4 l -3.7,6.1 c -2,3.2 -3.6,6 -4.4,7.6 -0.5,1 -0.8,1.9 0,2.6 0.4,0.3 1,0.8 1.4,1 0.3,0.2 0.4,0.4 0.3,0.6 -0.1,0.2 -0.4,0.2 -0.8,0 -1.9,-1.2 -3.7,-2.4 -4.5,-2.9 -0.7,-0.4 -2.6,-1.4 -3.7,-2.1 -0.4,-0.2 -0.5,-0.5 -0.4,-0.7 0.1,-0.2 0.3,-0.2 0.6,0 0.4,0.3 0.8,0.4 1.1,0.5 0.7,0.2 1.3,-0.5 2,-1.4 1,-1.4 2.7,-4.1 4.7,-7.3 l 1.9,-3.1 c 0.1,-0.1 0,-0.3 0,-0.3 l -11.1,-6.8 c -0.1,-0.1 -0.2,-0.1 -0.3,0.1 l -1.9,3.1 c -2,3.2 -3.6,6 -4.4,7.6 -0.5,1 -0.8,1.9 0,2.6 0.4,0.3 1,0.8 1.4,1 0.3,0.2 0.4,0.4 0.3,0.6 -0.1,0.2 -0.4,0.2 -0.8,0 -1.9,-1.1 -3.7,-2.4 -4.5,-2.9 -0.7,-0.4 -2.6,-1.4 -3.7,-2.1 -0.4,-0.2 -0.5,-0.5 -0.4,-0.7 0.1,-0.2 0.3,-0.2 0.6,0 0.4,0.3 0.8,0.4 1.1,0.5 0.7,0.2 1.3,-0.5 2,-1.4 1,-1.4 2.7,-4.1 4.7,-7.3 l 3.7,-6.1 c 3.2,-5.3 3.8,-6.3 4.4,-7.4 0.7,-1.2 0.8,-1.9 0,-2.8 -0.2,-0.2 -0.7,-0.5 -1.1,-0.8 -0.3,-0.2 -0.5,-0.4 -0.3,-0.6 0.1,-0.2 0.4,-0.2 0.8,0.1 1.6,1 3.3,2.2 4.1,2.7 0.7,0.4 2.6,1.4 3.7,2.1 0.4,0.2 0.6,0.4 0.4,0.7 -0.1,0.2 -0.4,0.2 -0.7,0 -0.2,-0.1 -0.5,-0.3 -0.9,-0.4 -0.9,-0.3 -1.5,0.1 -2.3,1.3 -0.7,1.1 -1.3,2.1 -4.6,7.4 l -0.4,0.7 c -0.1,0.2 -0.1,0.3 0,0.4 z" />
	<path
   id="XMLID_306_"
   d="m 192.9,389.7 c -0.2,-0.1 -0.3,0 -0.4,0.2 l -3.9,4.8 c -0.7,0.8 -1.2,1.7 -1.4,2.1 -0.3,0.7 -0.2,1.3 0.8,1.7 l 0.5,0.2 c 0.4,0.1 0.4,0.3 0.4,0.5 -0.1,0.3 -0.3,0.3 -0.7,0.2 -1,-0.4 -2.3,-1 -3.3,-1.4 -0.3,-0.1 -2.1,-0.7 -3.8,-1.4 -0.4,-0.2 -0.6,-0.3 -0.5,-0.6 0.1,-0.2 0.2,-0.3 0.5,-0.2 0.3,0.1 0.7,0.2 1,0.3 1.5,0.3 2.7,-0.7 4,-2.4 L 203.4,373 c 0.8,-1 1.2,-1.3 1.5,-1.2 0.3,0.1 0.3,0.5 0.3,1.5 -0.1,2.4 -1.1,19.9 -1.3,26.5 -0.1,3.9 0.6,4.8 1.2,5.2 0.4,0.3 0.9,0.5 1.3,0.7 0.3,0.1 0.4,0.2 0.3,0.5 -0.1,0.3 -0.4,0.3 -1.6,-0.2 -1.1,-0.4 -3.5,-1.4 -6,-2.4 -0.6,-0.3 -0.9,-0.4 -0.8,-0.7 0.1,-0.2 0.2,-0.3 0.6,-0.2 0.3,0 0.6,-0.2 0.6,-0.8 l 0.6,-9.1 c 0,-0.2 -0.1,-0.3 -0.2,-0.4 l -7,-2.7 m 7.2,0.7 c 0.2,0.1 0.2,0 0.2,-0.2 l 0.8,-10.5 c 0,-0.2 0.1,-0.4 0,-0.4 -0.1,0 -0.2,0.1 -0.3,0.3 l -6.6,8.2 c -0.1,0.1 -0.1,0.3 0,0.3 z" />
	<path
   id="XMLID_309_"
   d="m 217.2,389.4 c 1.3,-6.1 1.6,-7.2 1.8,-8.5 0.2,-1.4 0.1,-2.1 -0.9,-2.6 -0.2,-0.1 -0.8,-0.3 -1.3,-0.4 -0.4,-0.1 -0.5,-0.2 -0.5,-0.5 0.1,-0.3 0.3,-0.3 0.8,-0.2 1.8,0.4 3.8,1 4.5,1.1 1.1,0.2 3.7,0.7 4.7,0.9 2.1,0.5 4.3,1.2 5.8,3 0.8,1 1.7,3.3 1.1,6 -0.6,3 -2.3,5.4 -6.3,8 2,5.1 3.5,9.2 4.9,12.1 1.4,2.7 2.7,3.3 3.1,3.5 0.4,0.2 0.6,0.3 0.9,0.3 0.3,0.1 0.4,0.2 0.3,0.4 -0.1,0.3 -0.3,0.3 -0.7,0.3 l -3.2,-0.7 c -1.9,-0.4 -2.7,-0.8 -3.4,-1.5 -1.2,-1.2 -2.1,-3.4 -3.3,-6.9 -0.9,-2.5 -1.8,-5.5 -2.1,-6.2 -0.1,-0.3 -0.3,-0.4 -0.5,-0.4 l -2.9,-0.7 c -0.2,0 -0.3,0 -0.3,0.3 l -0.1,0.6 c -0.8,3.7 -1.5,6.9 -1.7,8.6 -0.2,1.2 -0.1,2.1 0.8,2.5 0.5,0.2 1.2,0.4 1.6,0.5 0.3,0.1 0.4,0.2 0.3,0.4 -0.1,0.3 -0.3,0.3 -0.8,0.3 -1.9,-0.4 -4.4,-1.1 -4.9,-1.2 -0.6,-0.1 -2.8,-0.5 -4.1,-0.8 -0.4,-0.1 -0.6,-0.3 -0.6,-0.5 0,-0.2 0.2,-0.3 0.6,-0.2 0.5,0.1 0.9,0.1 1.2,0.1 0.7,0 1.1,-0.9 1.4,-2 0.5,-1.6 1.2,-4.8 2,-8.5 l 1.8,-7.1 m 3.3,4 c -0.1,0.4 -0.1,0.6 0.1,0.8 0.6,0.4 1.6,0.8 2.4,0.9 1.3,0.3 1.8,0.2 2.5,-0.2 1.2,-0.7 2.6,-2.3 3.3,-5.6 1.2,-5.7 -1.5,-8 -3.5,-8.4 -0.8,-0.2 -1.4,-0.3 -1.8,-0.2 -0.3,0 -0.4,0.2 -0.4,0.5 z" />
	<path
   id="XMLID_310_"
   d="m 239,385.9 c -0.7,-2.3 -1.3,-2.7 -2.5,-3.2 -0.5,-0.2 -1.1,-0.2 -1.3,-0.2 -0.3,0 -0.4,-0.1 -0.4,-0.4 0,-0.3 0.4,-0.4 0.9,-0.3 1.8,0.1 3.7,0.2 4.9,0.3 0.9,0 2.5,0 4.2,0 0.4,0 0.8,0.1 0.8,0.4 0,0.3 -0.2,0.4 -0.5,0.3 -0.5,0 -1.1,0 -1.3,0.2 -0.2,0.2 -0.4,0.5 -0.4,0.8 0,0.5 0.3,1.7 0.7,3.2 l 5.3,18.7 h 0.1 c 1.6,-4.4 6.5,-17.4 7.4,-20.1 0.2,-0.5 0.3,-1.1 0.4,-1.5 0,-0.3 -0.1,-0.7 -0.4,-0.8 -0.4,-0.2 -0.9,-0.2 -1.4,-0.3 -0.3,0 -0.6,-0.1 -0.6,-0.3 0,-0.3 0.3,-0.4 1,-0.4 1.7,0.1 3.1,0.2 3.6,0.2 0.6,0 2.2,-0.1 3.2,0 0.4,0 0.7,0.1 0.7,0.4 0,0.3 -0.2,0.4 -0.6,0.4 -0.3,0 -1.1,0 -1.7,0.4 -0.5,0.3 -1,1 -2,3.6 -1.5,3.8 -2.4,6 -4.4,10.9 -2.4,5.9 -4.1,10.3 -4.9,12.3 -1,2.3 -1.2,3 -1.7,3 -0.4,0 -0.6,-0.6 -1.2,-2.5 z" />
	<path
   id="XMLID_313_"
   d="m 267.5,401.7 c -0.2,0 -0.2,0.1 -0.3,0.4 l -0.9,6.1 c -0.2,1.1 -0.2,2.1 -0.1,2.5 0.1,0.7 0.5,1.2 1.5,1.1 l 0.5,-0.1 c 0.4,-0.1 0.5,0 0.6,0.2 0,0.3 -0.1,0.4 -0.5,0.5 -1.1,0.2 -2.5,0.3 -3.6,0.4 -0.4,0.1 -2.2,0.5 -4,0.7 -0.4,0.1 -0.7,0 -0.7,-0.3 0,-0.2 0.1,-0.3 0.4,-0.4 0.3,0 0.8,-0.2 1,-0.2 1.5,-0.5 1.9,-1.9 2.3,-4.1 l 4.6,-26.6 c 0.2,-1.2 0.4,-1.7 0.7,-1.8 0.3,0 0.6,0.3 1,1.2 1.1,2.1 9,17.8 12.1,23.6 1.8,3.4 2.9,3.9 3.6,4 0.5,0.1 1,0 1.4,-0.1 0.3,0 0.4,0 0.5,0.3 0,0.3 -0.2,0.4 -1.5,0.6 -1.2,0.2 -3.7,0.6 -6.4,0.9 -0.6,0.1 -1,0.1 -1.1,-0.2 0,-0.2 0.1,-0.3 0.4,-0.4 0.2,-0.1 0.4,-0.5 0.2,-1 l -4,-8.2 c -0.1,-0.2 -0.2,-0.3 -0.4,-0.2 l -7.3,1.1 m 6.5,-3 c 0.2,0 0.2,-0.2 0.1,-0.3 l -4.5,-9.5 c -0.1,-0.2 -0.1,-0.4 -0.2,-0.3 -0.1,0 -0.1,0.2 -0.1,0.4 l -1.6,10.4 c 0,0.2 0,0.3 0.2,0.3 z" />
	<path
   id="XMLID_316_"
   d="m 288.4,389 c -2.1,-5.8 -2.5,-6.9 -3,-8.1 -0.5,-1.3 -1,-1.8 -2.2,-1.7 -0.3,0 -0.8,0.2 -1.3,0.3 -0.4,0.1 -0.6,0.1 -0.7,-0.1 -0.1,-0.3 0.1,-0.4 0.6,-0.6 1.7,-0.6 3.8,-1.2 4.4,-1.5 1.1,-0.4 3.5,-1.4 4.5,-1.8 2,-0.7 4.2,-1.3 6.5,-0.5 1.2,0.4 3.2,1.9 4.1,4.5 1,2.8 1,5.8 -1.1,10.1 4.4,3.3 7.9,5.9 10.6,7.5 2.6,1.6 4,1.4 4.5,1.3 0.4,-0.1 0.7,-0.1 0.9,-0.2 0.3,-0.1 0.4,0 0.5,0.2 0.1,0.3 -0.1,0.5 -0.5,0.6 l -3,1.1 c -1.8,0.7 -2.7,0.8 -3.7,0.5 -1.7,-0.4 -3.6,-1.7 -6.4,-4 -2,-1.6 -4.5,-3.7 -5.1,-4.1 -0.2,-0.2 -0.4,-0.1 -0.7,-0.1 l -2.8,0.9 c -0.2,0.1 -0.2,0.2 -0.1,0.4 l 0.2,0.5 c 1.3,3.6 2.4,6.6 3.2,8.1 0.5,1.1 1,1.9 2,1.7 0.5,-0.1 1.2,-0.3 1.6,-0.4 0.3,-0.1 0.4,0 0.5,0.2 0.1,0.3 -0.1,0.5 -0.5,0.6 -1.9,0.7 -4.3,1.4 -4.7,1.6 -0.6,0.2 -2.6,1.1 -3.9,1.5 -0.4,0.2 -0.7,0.1 -0.8,-0.1 -0.1,-0.2 0,-0.4 0.4,-0.5 0.5,-0.2 0.8,-0.4 1.1,-0.6 0.6,-0.4 0.4,-1.3 0.2,-2.5 -0.4,-1.7 -1.5,-4.7 -2.8,-8.2 l -2.5,-6.6 m 4.9,1.7 c 0.2,0.4 0.3,0.6 0.5,0.6 0.8,0 1.8,-0.2 2.6,-0.5 1.3,-0.5 1.6,-0.8 2,-1.5 0.7,-1.2 0.9,-3.3 -0.2,-6.4 -2,-5.4 -5.6,-5.9 -7.5,-5.2 -0.8,0.3 -1.4,0.5 -1.6,0.8 -0.2,0.2 -0.2,0.3 -0.1,0.6 z" />
	<path
   id="XMLID_319_"
   d="m 312.2,379.3 c -3.3,-5.3 -3.9,-6.2 -4.6,-7.3 -0.8,-1.1 -1.4,-1.6 -2.5,-1.2 -0.3,0.1 -0.8,0.3 -1.2,0.6 -0.3,0.2 -0.5,0.2 -0.7,0 -0.2,-0.2 0,-0.4 0.4,-0.7 1.5,-1 3.4,-2 4.2,-2.5 0.9,-0.6 2.7,-1.8 4.4,-2.9 3.6,-2.3 8.4,-5.3 14.1,-3.3 2.6,0.9 5.7,2.9 8.3,7.1 2.7,4.4 3.3,8.7 2.9,11.6 -0.3,2.5 -1.8,6.8 -7.1,10.1 -1,0.7 -2.3,1.3 -3.5,1.9 -1.2,0.6 -2.2,1.1 -3,1.6 -0.3,0.2 -1,0.6 -1.6,1.1 -0.7,0.4 -1.4,1 -2,1.3 -0.4,0.2 -0.6,0.3 -0.8,0 -0.1,-0.2 -0.1,-0.4 0.3,-0.6 0.4,-0.3 0.7,-0.6 1,-0.8 0.5,-0.5 0.2,-1.3 -0.4,-2.4 -0.8,-1.5 -2.5,-4.3 -4.5,-7.5 l -3.7,-6.1 m 6,1.6 c 2.3,3.7 4,6.3 4.4,7 0.6,0.8 1.5,2.2 2,2.4 0.8,0.4 2.4,0.4 4.6,-1 3,-1.8 4.5,-3.8 5.1,-6.6 0.7,-3.1 -0.7,-6.6 -3,-10.1 -2.7,-4.4 -6,-6.3 -8.2,-6.9 -4.6,-1.4 -8.1,0.2 -10.4,1.6 -0.6,0.4 -1.6,1.1 -1.7,1.4 -0.2,0.3 -0.2,0.5 0.1,0.9 0.7,1.2 2.6,4.2 4.3,7 z" />
	<path
   id="XMLID_359_"
   d="m 225.4,146.9 c -1.2,0 -2.1,1.3 -3.2,1.9 -5.6,2.6 -11.4,0.6 -17.8,1.4 l -4.8,1.6 c -1.3,-0.1 -2.3,-1 -3.6,-1.2 -4.6,0 -9,-0.8 -13.6,-0.1 -3.5,-0.5 -6.9,-1 -9.7,-3 -1.9,-0.1 -1.7,2.5 -3.4,2.6 -1.3,0 -2.6,0.4 -3.9,0.1 -1.7,-0.1 -3.2,0.7 -3.9,2 l -0.4,8.5 c 0,0.6 -0.4,1.3 -1,1.5 -3.3,0.1 -7.2,-0.3 -8.5,3.3 -0.3,1.6 -0.7,3.6 0.4,4.9 1.9,1.9 4.8,2 7.3,1.9 1.9,0.3 1.5,2.4 1.5,3.7 0.3,7.2 -0.6,14.1 0,21.8 -0.8,3.7 -5.6,0.3 -7.8,2.6 -0.9,1.2 -1.6,2.6 -1.5,4 -0.1,2 0.4,3.7 2.6,4.6 2.2,0.8 4.6,0.2 6.6,1.3 1,3.3 -0.7,7.9 1.5,11.1 1.2,1 2.6,1.3 4,1.5 4.5,0 8.7,0.7 13,-0.3 4.5,0.1 9,-0.6 13.5,0.1 1.2,0.4 2.8,0.3 3.2,1.7 2,1.3 4.6,2.3 7.1,1 1.3,-1.2 2.1,-2.7 3.7,-3.2 l 7.2,0.3 c 2,-0.9 4.4,-0.6 6.5,-0.3 3.7,0.1 7.5,0.1 11.1,0 1.9,-0.3 3.9,-0.5 5.5,-1.6 2.2,-3.9 -0.8,-8.5 1.6,-12.2 2.3,-0.6 4.9,0.7 6.8,-1 1.6,-1.3 2.2,-3.2 1.9,-5.2 -1.3,-3 -4.8,-3.4 -7.7,-3.3 -1.3,-0.3 -1.6,-1.7 -1.8,-2.7 -0.3,-6.5 0.1,-12.3 0.2,-18.6 0.7,-2 -0.6,-3.9 0.9,-5.6 2.1,-1.6 5.3,-0.1 7.1,-2.6 0.1,-1.6 0.9,-4.2 -0.7,-5.5 -1.4,-1.6 -3.8,-1.4 -5.7,-1.4 -4.2,-3 0.1,-7.4 -2.3,-11.1 -1.9,-1.7 -4.8,-1.8 -7.1,-1.3 -1.6,-0.1 -2.7,-1.4 -3.7,-2.6 -0.3,-0.4 -0.7,-0.6 -1.1,-0.6 z m -2.1,4.2 c 0.7,0.1 1.3,0.6 1.1,1.4 0.4,2.7 -0.4,5.4 -0.1,8.6 0,5.9 0.5,11.4 0,17.1 0,8.8 -0.1,16.5 0.1,25 -0.1,1.7 0.4,4.3 -1.4,5.5 l -3.5,0.8 c -6,0 -12.5,-0.4 -18.4,0.6 -2.3,-0.9 -0.3,-3.6 -0.6,-5.7 -0.6,-11.7 -0.6,-23.9 -0.5,-35.4 0.1,-3.2 0.7,-6.8 0.1,-10 0.6,-2 0.3,-4.9 2.8,-5.6 2.7,-0.7 6,-0.3 8.9,-0.5 4,0.4 8.3,0.2 11.5,-1.8 z m -47.5,0.7 c 1,0 1.9,0.7 3,0.8 3.2,1.3 6.9,0.6 10.2,0.7 0.8,0.3 1.6,-0.3 2.3,-0.4 2,-0.3 3.7,0.4 5.3,1.3 l 1,2.2 c 0.1,8.2 0.6,15.8 0,24.5 v 2.7 l -0.3,13.9 c 0.4,4.2 -0.3,7.8 0.6,12 -0.1,0.5 -0.4,1 -0.8,1 -4.9,-1.3 -9.8,-1 -15,-1.3 -2.4,0.3 -5.7,0.6 -7.5,-1.3 -1,-1 0.2,-2.2 -0.4,-3.2 0.4,-7.9 -0.1,-17.1 -0.3,-24.8 0.3,-5.9 -0.1,-11.4 0.4,-17.1 -0.4,-2.6 0.2,-5.7 -0.1,-8.5 -0.3,-0.8 -0.2,-1.7 0.6,-2.3 0.3,-0.1 0.7,-0.2 1,-0.2 z m 57,0.8 c 0.9,-0.1 1.9,0.3 2,1.2 1.1,3.3 0,6.8 0.8,10.1 2.2,1.9 6.1,-0.4 7.8,2.3 0.1,0.8 -0.4,2 -1.5,2.2 -1.9,0.9 -4.9,-0.7 -6.1,1.5 -0.8,6 -0.1,11.2 -0.8,17.2 0.3,4.5 -0.3,8.4 0.6,12.7 2,3.7 8.1,-0.8 8.7,4.1 -1.7,3.6 -7.1,-0.5 -8.9,3.1 -0.3,3.5 -0.4,7.3 -0.7,10.8 -0.3,0.8 -1.1,1 -1.8,1.5 l -15.5,0.3 c -3,-0.6 -6.2,0.9 -9.2,-0.1 -0.7,0.6 -1.6,0 -2.3,-0.1 -0.1,-0.3 -0.3,-0.8 -0.1,-1.2 2,-0.9 4.8,-0.8 7.1,-0.7 l 10.1,-0.3 c 3.2,0.1 7.6,1 9.3,-2.3 1.2,-7.3 -0.1,-14.9 0.5,-22.5 0.2,-9.1 0.1,-17.3 0.1,-26.6 -0.6,-3.9 0.3,-8.3 -1,-12.1 -0.1,-0.7 0.4,-1 0.9,-1.1 z m -5.2,0.3 c 1.2,-0.1 1.7,1.4 2.1,2.1 0.6,1 0.9,2.4 0.7,3.4 0.4,12 0,24.3 0,36.3 v 15 c 0,0.6 -0.2,1 -0.7,1 -1.9,-0.9 -2.3,-2.9 -3,-4.6 0.1,-7.6 0.1,-14.4 0.1,-22 0.1,-9.1 -0.3,-18.7 0.1,-28 -0.1,-1 -0.4,-2.3 0.1,-3.1 0.3,-0.1 0.4,-0.1 0.6,-0.1 z m -62.1,0.5 c 3.2,0 0,2.9 0.6,4.4 l -0.3,7.5 c -0.1,12.1 0.4,24.4 -0.1,36.1 0.1,4.8 0.6,8.8 0.7,13.4 0.4,2.4 3,2 4.6,2.4 3.7,-0.4 7.6,0.4 11.2,0.1 3.9,-0.3 7.3,-0.3 11.4,0 0.4,0.1 1,0.4 1,1 0.2,0.9 -0.7,1.3 -1.4,1.5 -9.1,-0.3 -18.5,0.1 -27.2,-0.3 -0.9,-0.1 -1.7,-1 -2,-1.9 -0.4,-3.3 0,-7.2 -0.6,-10.4 -2.4,-1.9 -6.6,0.4 -8.5,-2.4 -0.4,-0.7 -0.1,-1.6 0.5,-2.2 2,-1.6 4.9,-0.3 7.2,-1.2 l 0.7,-0.7 c 1,-9.4 -0.2,-18.4 0.7,-27.5 -0.6,-1.3 -0.3,-3 -1.9,-3.8 -1.6,-0.1 -3.3,-0.1 -4.9,0.1 -1.2,-0.6 -2.6,-0.4 -3.2,-1.7 -0.2,-1.2 0.7,-2.2 1.7,-2.6 2.3,-1.4 6.6,1.1 7.5,-2.7 1.3,-2.6 -0.5,-6.9 2.3,-9.1 z m 5.4,0.1 c 0.7,-0.1 0.7,0.6 0.8,0.8 -0.4,0.7 -0.7,1.5 -0.1,2.2 0.4,4.5 -0.7,9.3 0,13.7 -0.3,6.2 0,12.1 0,18.5 -0.3,4.8 -0.2,10.6 -0.2,15.4 0.4,3.2 0.4,6.8 -2.4,8.5 -1.2,-0.1 -0.6,-1.4 -0.8,-2 0.3,-2.9 -0.2,-5.6 0,-8.7 0.6,-8.4 -0.4,-17 0.1,-25.5 v -18.6 c 0.4,-1.6 0.8,-3.5 2.6,-4.3 z m 9.3,14.6 c -1.4,0.6 -4.2,-0.4 -4.3,1.6 0,0.8 1,1 1.5,1.6 2.6,3.5 3.2,7.6 4.8,11.3 0.8,1.9 0.9,4.1 2,5.8 0.4,2.3 0.8,5 3.2,5.9 0.9,0 1.3,-0.7 1.7,-1.3 2.3,-7.1 3.8,-14.6 6.1,-21.5 0.3,-0.6 1.1,-1.2 0.8,-2 -0.9,-1 -2.1,-1 -3.4,-1 -0.7,0.3 -1.7,0.6 -1.6,1.7 2.6,3.5 -0.3,7.8 -0.7,11.4 -0.6,1.6 -0.3,4.2 -2.3,4.5 -1.3,-1.4 -1.5,-3.3 -2,-4.9 -1.3,-2.6 -1.9,-5.3 -2.7,-8.2 0,-1.3 1,-2 1.3,-3.1 -0.6,-1.9 -2.9,-1.7 -4.4,-1.8 z m 34,0 c -3.2,0.3 -6.9,0.1 -10.2,0.8 -1.1,1.4 1.2,2.3 1.6,3.7 0.1,5.8 0,11.4 -0.1,17.4 0,1.6 -2.6,3.2 -0.6,4.3 3,0.1 5.9,0.4 8.8,0.6 1.7,0.1 3.7,0.3 4.7,-1.4 0.6,-1 1.3,-2.3 0.6,-3.5 0,-0.7 -0.9,-1.4 -1.5,-1.1 -0.8,1.3 -1.1,2.7 -2.7,3.3 -1.7,0 -4.4,1 -5.5,-0.7 -0.1,-3.2 -1.4,-7.6 0.4,-10.1 2.3,-1.6 4.1,2.9 5.7,0.1 0.6,-1.2 0.4,-2.8 -0.4,-3.9 -1.7,0.1 -2.6,2.5 -4.6,1.6 -2.2,-1.3 -1,-4.6 -1.2,-6.8 0.3,-1.2 1.3,-1.8 2.6,-1.8 1.9,-0.1 2.7,2 4.3,2.5 1,-0.3 1,-1.4 0.8,-2.1 -1,-0.9 -0.8,-3.1 -2.7,-2.9 z m 11.8,42.3 c 1.5,0.2 1.9,2.2 2.9,3.2 0.3,0.6 -0.4,1.3 -1,1.3 h -8.8 c -3.5,0.1 -6.2,0.3 -9.8,0.3 -2.4,-0.4 -5.3,1.5 -6.7,-1.1 -0.4,-0.8 0.6,-1.4 1.1,-1.7 2,-0.8 3.9,0.6 6,0 5.1,-0.3 11,0.3 15.5,-1.8 0.4,-0.2 0.6,-0.2 0.8,-0.2 z m -52.7,0.4 c 1.2,-0.1 1.9,0.6 2.7,1 5.7,1 12.2,0 17.8,0.6 0.9,0.3 2,0.4 2.3,1.4 0,0.6 0,1.5 -0.8,1.6 -7.1,-1.3 -14.4,0.3 -21.4,-0.6 -0.9,-0.1 -2.8,0.4 -2.9,-0.9 0.1,-1.3 1,-2.5 2.3,-3.1 z m 26.8,4.8 c 1.4,0.4 2.7,1.7 3.2,3.2 -0.1,1.4 -0.1,3.4 -1.7,4 -0.9,0.4 -2,0.3 -2.7,-0.3 -1.6,-0.7 -1,-2.3 -1.2,-3.7 -0.1,-1.6 1,-2.6 2.4,-3.2 z m 127.2,-68.2 c -0.2,0 -0.3,0.1 -0.5,0.1 -6.6,5.2 -16.1,1.2 -23.9,3 -0.9,0.1 -1.4,1.2 -2.6,0.8 -6.1,-3.3 -13.4,-0.3 -19.7,-1.8 -2.8,-0.2 -5.2,-2.8 -7.8,-1.3 -1.2,4 -5.9,0.8 -8.6,1.8 -4.8,2 -1.6,7.2 -2.4,11.1 -1.6,3 -5.7,0.2 -7.8,2.6 -1.2,0.9 -1.6,2.3 -1.7,3.9 0.3,5.6 7.1,2.5 9.8,5.3 -0.7,3.5 0.4,7.1 -0.3,10.1 -0.4,5 0.9,9.9 0.3,14.7 -2.5,2.6 -7.8,-0.2 -9.1,4 -1.1,1.7 0,3.6 0.8,5.2 1.9,1.6 4.3,1.9 6.9,1.7 2.4,2.3 1,5.9 1.2,9.1 0.3,1.1 -0.3,2.3 0.7,3.3 3,1 6.4,1 9.5,1 7.1,0 13.4,0 19.9,0.3 3.3,-0.9 5.3,2.6 8.5,2.7 3,0.4 3.5,-3.7 6.5,-3 l 14.7,0.1 c 2.9,0.2 5.7,-0.2 8.5,0.3 2.9,-0.6 6.3,0.6 8.1,-1.7 1,-3.3 0.6,-6.8 1,-10.2 0.9,-2.9 4.8,-1 6.8,-2.3 1.6,-0.6 2.6,-2 2.9,-3.6 0.6,-2.2 -0.8,-3.8 -2.2,-5.2 -1.7,-1 -3.6,-0.4 -5.5,-0.8 -1.2,-0.3 -1.6,-1.5 -1.7,-2.4 0.1,-4.2 -0.6,-8.8 0.3,-12.8 -0.3,-3.5 -0.4,-6.8 0,-10.1 l 0.6,-0.8 c 2.3,-0.6 5,0.3 6.8,-1.4 1.2,-1.6 2,-3.8 1,-5.5 -0.9,-3.5 -4.8,-2.6 -7.3,-3 -2.4,-1.2 -1.1,-3.7 -1.3,-5.7 0,-1.9 0.8,-4.5 -1.3,-5.9 -1.9,-0.8 -4.2,-0.4 -6,-0.2 -3,0.4 -2.7,-3.7 -5.1,-3.4 z m -51.6,3.8 c 1.7,0.2 3.5,0.3 4.9,1.2 4.3,1 8.8,0 13.1,0 1.3,0.3 3.1,-0.2 3.9,1.4 1.2,4.2 1.2,7.9 0.7,12 0.3,8.4 -0.6,17 0,25.2 0,2.3 -0.3,4.3 -0.1,6.6 -0.4,3.9 -0.1,7.3 -0.3,11.5 -0.9,0.7 -2.2,0.1 -3,0 -2.9,-0.3 -5.5,-0.1 -8.3,-0.1 -1.3,-0.3 -2.6,0.1 -3.8,0.3 -2.6,-0.6 -5.9,0.1 -7.9,-1.9 -0.7,-1.9 -0.1,-3.5 0,-5.5 0.1,-10.7 -0.9,-20.9 -0.1,-31.7 v -14.9 c -0.1,-1.3 -0.4,-3.3 0.9,-4.1 z m 49.3,0 c 0.7,0 0.8,0.7 0.8,1.3 -0.6,9.9 0.6,20.3 -0.3,29.9 0.4,8.1 -0.3,16.7 -0.1,25.1 -0.9,1.7 -3.4,1.7 -5.5,1.7 -5,0.6 -10.2,-0.6 -15,0 -1.6,-0.1 -3.3,2 -4.5,0.4 0.1,-4 0.6,-7.6 0.7,-11.5 -0.6,-15.1 -0.1,-27.7 0.1,-42.7 0.3,-1.3 1.4,-2.2 2.6,-2.4 7.1,-0.6 14.9,1.1 21.2,-1.8 z m -58.6,1.2 c 0.5,-0.1 1,0 1.6,0.3 l 0.4,0.4 c -0.8,2.3 -2,4.6 -1.6,7.3 -0.1,7.1 -0.1,13.5 -0.1,20.2 0.3,10.1 -0.4,22.6 0.3,33.1 0.1,1.2 1,1.7 2,2.3 8.1,0.7 16,-0.1 24.2,0.8 0.6,0.3 1.3,0.3 1.6,1 0.2,0.7 -0.6,1 -1,1.3 -7.1,0.3 -14.3,-0.3 -21.3,0.1 -2.6,-0.6 -6.6,1 -7.8,-2 -0.3,-2.6 0,-5.2 -0.3,-7.8 -0.1,-1.3 -1.2,-2.4 -2.2,-3.2 -2.3,-0.7 -6,0.7 -7,-2.3 -0.2,-1 0.5,-1.9 1.6,-2.2 2.2,-0.6 5.4,0.3 6.7,-2.2 1,-5.9 0.6,-12.1 0.8,-18.1 -0.4,-3 0.1,-6.5 -0.1,-9.8 -1.2,-3.6 -5.3,-2.2 -8.1,-2.9 -1.2,-0.6 -1.6,-1.7 -1,-2.9 2.6,-2.5 8.4,0.3 9.1,-4.2 0.1,-3 -0.1,-6 0.9,-8.9 0.3,0 0.8,-0.2 1.3,-0.3 z m 67.7,0.6 c 1,0 2.2,0.1 2.7,1 1.6,3.5 -1.9,9.7 3.3,10.8 1.9,0.6 4.7,-0.6 5.6,1.7 0.3,0.6 0.1,1.6 -0.1,2 -2.4,2.4 -7.7,-1 -8.5,3.3 0.3,2.6 0.1,4.5 0,7.1 V 189 c -0.4,3.5 -0.6,7.9 0.6,11.3 l 1.1,0.8 c 2.5,0.6 5.6,-0.4 7.3,1.6 0.2,1 -0.1,2.3 -1.1,2.6 -2.4,1.6 -6.8,-1.3 -8.1,2.2 0,3.6 -0.6,7 -1,10.5 l -1.3,1.2 c -7.3,0.6 -14.4,0 -21.6,0.1 l -7.1,-0.1 c -0.6,-0.3 -0.6,-0.9 -0.4,-1.3 3,-2 7.4,-0.4 11,-0.7 4.9,0.1 9.9,0 15,-0.1 3.5,-1.6 1.4,-5.3 2.3,-8.4 0.3,-8.4 0.1,-16.7 0.4,-25 -0.1,-8.6 -0.3,-17 -0.1,-25.4 0.2,-2.1 -2.3,-4.3 0,-5.3 z m -4.7,0.2 c 1.1,0.2 1.3,1.6 1.9,2.5 l 0.6,1.7 c 0.3,9.1 0.1,18.4 -0.1,27.9 -0.3,4.6 0.3,8.6 0.1,13.4 -0.7,3.9 0.4,7.9 -0.3,11.7 -0.4,0.4 -1.1,0.4 -1.6,-0.1 -1.4,-1.4 -2.5,-3.3 -2,-5.5 0,-11.8 0,-23.1 0.1,-34.6 0.6,-5.3 -0.3,-10.1 0,-15.5 0.1,-0.6 0,-1.3 0.7,-1.5 0.3,0 0.5,0 0.6,0 z m -58.3,0.7 c 0.1,0 0.3,0.1 0.5,0.4 0.6,1.7 0.6,3.7 0.6,5.6 -0.4,4.7 0.6,9.7 -0.1,14.6 0.1,11.1 0,22.5 -0.1,34 -0.7,1 -0.7,2.6 -2.2,2.9 -0.8,0.1 -0.7,-0.8 -0.8,-1.3 0.6,-3.3 -0.4,-6.3 0.1,-9.5 -0.5,-12.5 0,-23.8 -0.1,-35.6 0.3,-3.6 -0.6,-6.6 1,-9.8 0.4,-0.4 0.7,-1.3 1.1,-1.3 z m 9.1,13.9 c -0.6,0.1 -1.1,0.7 -1.1,1.3 0,0.9 1,1 1.6,1.6 1.2,1.9 0.9,4.2 0.9,6.2 -0.1,4.9 -0.3,9.1 -0.1,13.7 -0.3,1.4 -2.8,2.1 -1.5,3.9 l 5.8,0.1 c 3,-1.2 -1,-2.7 -0.8,-4.5 -0.1,-2 -0.3,-4.1 0.5,-6 0.4,-0.1 1,-0.2 1.3,0.3 1.3,2.9 3.3,5.3 4.9,8.1 0.7,1.2 1.9,2.2 3.3,2 0.6,-0.3 1.4,-0.7 1.1,-1.6 -2.7,-2.2 -3.2,-5.5 -5.6,-8.1 -0.4,-0.9 -0.1,-1.4 0,-2.3 1.9,-1.4 3.9,-3.2 4.7,-5.3 0.3,-1.7 0,-3.3 -0.3,-4.9 -0.8,-2.6 -3.7,-3.9 -6.2,-4.4 -2.9,-0.2 -5.6,0.2 -8.5,-0.1 z m 33.1,0 c -1.7,0.6 -4,-0.5 -5.6,0.7 -0.6,1.3 0.6,2.3 1,3.4 -0.1,6.2 0.9,12.5 -0.1,18.9 -0.3,1 -1.7,1.6 -1.9,2.6 -0.3,0.4 0.3,1 0.7,1.1 2.2,0 4.1,-0.1 6.1,0.1 2.6,-1.2 -0.4,-2.7 -0.6,-4.1 0.1,-6.5 -0.4,-12.3 0.1,-18.5 0.6,-1.2 2,-2 1.7,-3.4 -0.1,-0.7 -0.8,-0.7 -1.4,-0.8 z m -25.9,2.3 c 2,-0.2 3.4,1.6 3.9,3.3 0.8,1.6 0.4,3.4 -0.3,4.9 -1,1.3 -2.3,2.6 -4,2.4 -3.5,-0.4 -1.3,-4.6 -1.7,-6.6 0.2,-1.3 -0.3,-3.4 1.3,-3.9 0.3,-0.1 0.6,-0.1 0.8,-0.1 z m -13.7,40.5 c 3.6,0.5 7.4,1.5 11.1,1.2 3.6,0.1 8.2,-0.6 11.3,0.6 0.7,0.7 1,1.6 0.3,2.4 -2.7,0.7 -5.3,-0.9 -8.2,-0.6 l -15.4,0.1 c -0.6,-0.1 -1.3,-0.5 -1.3,-1.2 0.1,-1.1 1.3,-1.8 2.2,-2.5 z m 52.6,0.1 c 1.7,0 2.8,1.4 3.8,2.7 0.3,0.6 0,1.6 -0.8,1.3 h -25.4 c -0.7,-0.3 -1,-1.3 -0.8,-2 3.3,-1.6 7.5,-0.7 11.1,-0.7 4,0.2 8.3,0 12.1,-1.3 z m -26.5,4.3 c 1.1,0 2.2,0.8 2.7,1.9 1,1.2 0.9,3 0.1,4.3 -0.7,0.7 -1.9,0.5 -2.7,0.6 -1,-0.1 -1.7,-1 -2.2,-1.9 -0.4,-1.3 -0.3,-2.7 0.5,-3.7 0.4,-0.8 1,-1.1 1.6,-1.2 z m -86,30.8 c -1.3,0.2 -1.6,2.6 -2.9,3.1 -2.9,1 -6.5,-0.8 -8.9,1.5 -1.4,3 0.3,6.5 -0.4,9.8 -0.4,2 -2.9,1.1 -4.5,1.3 -2.4,0 -4.9,0.6 -6.2,2.6 -0.4,1.3 -0.6,2.7 -0.3,4.2 1.3,2.9 4.9,2.7 7.6,3.3 1,0 2.1,-0.3 2.9,0.6 0.4,4.2 0.1,8.1 0.3,12.1 -0.6,2.7 0.1,6 0,8.9 -0.1,1.2 -0.5,2.5 0,3.5 -0.1,0.9 -0.3,1.9 -1.3,2 -2,0.3 -4.4,-0.6 -6.1,0.4 -1.4,0.4 -2.4,1.7 -3,3 -0.3,1.3 -0.3,2.8 0.3,3.9 2.1,2.6 5.5,2 8.5,2.3 3,0.7 1.6,4.6 1.9,6.9 l 0.3,4.8 c 0.9,3 4.6,2.2 6.9,3 l 4.9,-0.6 c 3.2,0.9 6.9,-0.6 10.1,0.1 3.6,-1 7.5,-0.4 11.5,-0.4 2.5,-0.2 5,-0.2 7.6,-0.3 2.2,1.5 4.5,3.3 7.3,2.4 2.3,-2 5.6,-2.4 8.5,-2 l 6.1,-0.3 1.1,0.5 7.3,-0.3 c 4.5,0.1 9.1,-0.5 14,-0.2 l 4.2,-0.3 3.7,-1 c 2.6,-2.4 0.9,-6.5 1.5,-9.7 0.5,-1.2 0.1,-2.7 1.6,-3.2 3,-0.4 7.1,-0.1 8.2,-3.6 0.3,-1.4 0.4,-3 -0.3,-4.2 -1.3,-1.4 -2.9,-2 -4.6,-2.4 -1.7,0.3 -4.2,0.4 -5.2,-1.1 0.7,-8.6 -0.3,-16 0.4,-24.6 l 1,-1.3 c 2.9,-0.6 6.5,-0.1 8,-3.3 0.6,-1.4 0.1,-3.2 -0.9,-4.5 -1.7,-3.2 -5.9,-0.6 -8.2,-2.4 -1.4,-3 0.9,-6.3 -0.3,-9.7 -1.9,-3.3 -6,-2.2 -9.2,-2.2 -1.7,-1.4 -3.9,-1.7 -6.1,-2.1 -3.2,2 -6.9,2.5 -10.8,2.5 -4.8,0.6 -9.4,-0.6 -14,-0.3 -2.8,-0.1 -5.9,-0.4 -7.9,1.7 l -3.6,-1.6 c -8.9,-1.4 -18.4,2.2 -27,-1 L 215,246 c -0.5,-0.2 -0.9,-0.3 -1.2,-0.2 z m 67.2,3.9 c 0.8,-0.1 1.7,0 1.5,1 -1.3,9.5 0.3,18.5 -0.1,28.1 0.4,7.5 -0.4,14.4 0,21.9 -0.3,1.9 0.6,4.2 -0.7,5.7 -2.8,1.7 -6.3,2 -9.7,1.9 l -16.8,-0.1 c -2.2,-0.3 -3.5,2 -5.7,1.1 -0.7,-2 1,-4 0,-6 0.3,-3.9 0.1,-6.8 -0.1,-10.7 0.3,-3 -0.7,-5.9 0.4,-8.6 0.3,-0.6 0.9,-0.1 1.3,0.1 1.4,2 2,4.9 1.1,7.3 0.3,0.9 1.3,1 2.2,1 1.9,-0.1 4.5,1 5.6,-0.7 -0.3,-2.3 -3.7,-2.6 -3.7,-5.2 -0.4,-4.8 -3.2,-8.7 -3.8,-13.4 -0.8,-2.9 -1.7,-5.7 -2.7,-8.5 -0.1,-3.9 -0.1,-7.2 0,-11.1 0.4,-2.6 3.5,-1.7 5.4,-2.4 4.9,0 9.6,0.9 14.5,0.6 3.7,0.2 7.5,-0.3 10.5,-2 0.2,0.1 0.5,0.1 0.8,0 z m -65.7,0.4 c 2,0.1 3.6,1 5.3,1.6 8.1,0.8 16.1,-1.4 24.1,0.3 3.3,1.6 1.4,5.2 1.8,7.9 0,3.7 -0.3,7.7 -1.4,11.1 -2.2,6.1 -2.9,12.4 -5,18.3 -0.9,1 -3.2,1.3 -2.4,3 1.2,0.7 3,0.6 4.3,0.4 0.9,0.1 1.5,-0.3 1.6,-1 -0.3,-2.6 -1,-5.5 0.8,-7.5 0.4,-0.4 1.3,-0.7 1.9,-0.3 1.2,3.6 0,7 0.3,10.8 -0.1,3.7 0.4,8.2 0.1,12 0,0.7 0.1,1.7 -0.7,2 -2.3,0.4 -4.5,-0.7 -6.8,-0.3 l -5,0.1 c -3.2,0 -6.5,-0.3 -9.7,-0.1 -3,0 -6.3,0.1 -8.8,-1.5 l -0.8,-1 c -0.1,-11.8 0.1,-23.1 -0.3,-35.2 0.1,-6.2 0.8,-13 -0.1,-19 0.5,-0.5 -0.1,-1.2 0.8,-1.6 z m 76.2,0.8 c 1.3,0 2.4,1.1 2.5,2.5 -0.1,3 -0.6,6.6 1,9.2 2.2,1.2 5.2,0.4 7.5,1.6 0.6,0.7 0.3,1.6 0.1,2.3 -2.4,2.4 -7.5,-0.5 -8.6,3.7 -0.4,5.3 0.3,9.9 -0.1,15.1 0.1,4.5 -0.7,10 0.4,13.8 2.2,2.6 6.3,0.4 8.8,2.6 0.6,0.6 0.4,1.6 0,2.3 -2,2.7 -6.7,-0.4 -8.3,2.7 -0.6,3.3 -1.1,7 -1.1,10.5 -1.9,2.3 -5,0.8 -7.5,1.6 -10.8,-0.3 -21,0.6 -31.7,0 -0.6,-0.4 -1.5,-1.3 -0.8,-2 l 1.3,-0.6 c 10.7,-0.4 21.9,0.3 32.4,-0.7 1.3,-0.1 2.8,-0.7 3.2,-2 0.7,-7.9 0.3,-16.6 0.3,-24.3 0.6,-11.1 -0.1,-23 0,-34.1 0,-1.4 -2.6,-2.7 -0.8,-3.9 0.5,-0.2 1,-0.3 1.4,-0.3 z m -84.3,0.6 c 0.6,0.1 1.1,0.5 1.1,1.3 -0.1,1.4 -1.5,2.3 -1.7,3.7 -0.6,8.4 0.1,17.4 0,25.7 0,4.6 0.3,8.6 -0.3,13.1 0.4,2 0,4.8 0,6.9 0.4,4.8 0.3,8.7 0.7,13.3 l 1,0.8 c 7.2,0.2 14.8,-0.8 22.5,-0.1 l 11.5,0.1 c 0.3,0.5 1,1.3 0.3,1.9 -2,0.7 -4.2,0.3 -6.4,0.7 -4.4,-0.4 -8.7,0.9 -13.2,0 -5.5,0 -11,0.9 -16.4,0.4 -0.9,-0.1 -1.6,-1 -1.9,-1.6 -0.6,-3.6 0.3,-7.1 -0.8,-10.3 -2,-3 -6.4,-1 -8.9,-2.7 -0.6,-0.3 -1,-1.3 -0.6,-1.9 2.3,-2.3 5.8,-1.1 8.7,-2 1.2,-0.9 1,-2.5 1.1,-3.6 0.1,-7.3 0,-14.3 0.1,-21.2 -0.1,-2.6 0.6,-5.8 -2,-7.3 -2.7,-1 -6.8,1.3 -8.2,-2.2 0,-1 0.7,-1.9 1.6,-2.2 3,-0.9 7.6,0.8 8.6,-3.3 -0.3,-2.9 0.1,-5.3 0.4,-8.2 0.5,-0.7 1.8,-1.4 2.8,-1.3 z m 78.5,0.3 c 1.2,0.6 2,2 2.6,3.2 0.7,12.8 0.4,26.2 0.4,38.8 l -0.3,16.5 c -0.3,0.6 -0.8,0.2 -1.1,-0.1 -1.6,-1.9 -3.2,-4.3 -2.3,-7 -0.2,-8.1 -0.3,-17.9 -0.1,-25.8 l 0.1,-5 V 264 c -0.3,-3.6 -0.2,-7.6 0,-11.2 z m -74.8,1.1 c 2.4,0.4 0.4,3 1,4.6 0.1,15.4 0.1,30.7 0.1,47.2 0.4,2.3 -0.7,4.6 -2.4,6.1 -0.4,0 -0.8,-0.3 -0.8,-0.8 l 0.1,-5.7 c 0,-16.3 -0.3,-32.3 0,-48 0.3,-1.2 1.3,-2.4 2,-3.4 z m 26,11.7 c -2.2,1.9 -5.1,1.3 -7.8,1.1 -1.6,0.3 -3.6,0.4 -4.9,-0.7 -0.7,-0.4 -1.7,-0.3 -2,0.4 -0.4,1.9 -1.8,3.7 -1,5.6 0.4,0.6 1,0.4 1.4,0.1 0.6,-1.6 2,-2.7 3.6,-3.2 0.7,0.1 1.6,0.9 2,1.5 l -0.4,7 c 0.1,3.5 -0.2,7.2 0.1,10.5 0.7,2.3 -3.3,3.3 -1.4,5.6 0.7,0.3 1.8,0.4 2.5,0 1.6,0 3.5,0.7 4.6,-0.6 0.9,-1.3 -0.7,-2 -1.1,-3 -0.1,-4.3 -0.2,-9.4 -0.5,-13.8 0.7,-2.2 -0.8,-4.8 0.6,-6.5 2.1,-1.2 2.2,2.1 4.2,1.9 1.6,-0.8 0.8,-3.2 1.6,-4.8 0.1,-0.5 -0.8,-1.1 -1.5,-1.1 z m 36.5,1.2 c -0.7,0 -1.4,0.3 -1.9,0.7 -2.8,-0.3 -6.1,-0.2 -7.7,2.4 -1,1.9 -1.7,3.9 -1,6.1 2,5 8.8,5.4 10.6,10.6 0.1,1.6 -0.4,3.2 -1.8,4 -1.9,0.3 -3.9,0.3 -5.2,-1.3 -1.7,-0.9 -0.9,-3.4 -2.9,-3.4 -2.2,1 -0.5,3.9 -1,5.9 0.2,0.4 0.3,1.2 1,1 2.2,-1.9 4.1,0.8 6.4,0.7 2,-0.3 4.1,-0.7 5.5,-2.4 1.4,-1.6 1.9,-4 1.7,-6 -1,-6.1 -8.1,-6.4 -11,-11 -0.6,-1 -0.4,-2.1 0.1,-3.2 1.3,-1.4 3.2,-0.4 4.8,-0.3 1.3,0.7 1.8,3.4 3.6,2.3 0.6,-1.5 0.4,-3.3 0,-4.8 0,-0.9 -0.6,-1.2 -1.2,-1.3 z m -26.8,8.2 c 0.4,-0.1 0.6,0.4 0.8,0.8 l -0.5,5.9 c -0.1,0.6 -1,0.7 -1.4,0.3 -1.2,-2.1 0.3,-4.6 0.7,-6.8 0.1,-0.1 0.3,-0.2 0.4,-0.2 z m 3,5.3 c 0.4,0 0.8,0.7 0.6,1.2 -0.1,0.1 -0.1,0.4 -0.4,0.4 -0.7,0.1 -0.6,-0.5 -0.6,-1 0,-0.3 0.1,-0.5 0.2,-0.6 z M 214.1,309 c 1.6,0.3 2.8,1.3 4.3,1.7 7.2,0.6 14.8,0.3 22.2,0.3 1.4,0 3.3,-0.2 4.5,0.8 0.3,0.4 0,1 -0.3,1.5 l -1,0.6 -23.4,-0.1 c -2.7,0.1 -5.6,-0.9 -8.2,-0.3 -0.4,0 -1.3,0.1 -1.3,-0.6 0.6,-1.8 1.6,-3.1 3.2,-3.9 z m 69,0 c 1.4,0 2.3,2.4 3.3,3.5 0.3,1.2 -1.2,1.1 -1.9,1.3 -5.3,-0.3 -10.2,0 -15.5,0 -5.2,0.3 -10.7,-0.1 -16,0 -0.7,-0.5 -1.4,-1.3 -0.8,-2 2.4,-1.3 5.6,-0.8 8.5,-0.8 7.1,-0.3 14.2,0.8 20.9,-1.1 0.5,-0.7 1,-0.9 1.5,-0.9 z m -34.6,4.7 c 0.9,0 1.7,0.9 2,1.8 0.8,1.4 0,3 0.1,4.7 -0.4,0.9 -1.5,1 -2.4,1 -1,0 -2,-1 -2.3,-2 -1,-1.2 -0.3,-2.7 0,-4 0.7,-0.6 1.2,-1.3 2.2,-1.5 0.1,0 0.3,0 0.4,0 z" />
	<path
   id="XMLID_362_"
   d="m 137.9,116.6 v 1.7 76.3 c 0,119.7 111.1,179.5 111.1,179.5 l 0.8,0.4 0.8,-0.4 c 0,0 111.1,-59.8 111.1,-179.5 v -76.3 -1.7 H 360 139.6 Z m 3.3,3.3 c 3.3,0 213.7,0 217,0 0,3.2 0,74.6 0,74.6 0,115.1 -104,173.6 -108.5,176 -4.5,-2.5 -108.5,-60.9 -108.5,-176 0,0 0,-71.3 0,-74.6 z" />
	<path
   id="XMLID_367_"
   class="st1"
   d="m 141.2,119.9 c 3.3,0 213.7,0 217,0 0,3.2 0,74.6 0,74.6 0,115.1 -104,173.6 -108.5,176 -4.5,-2.5 -108.5,-60.9 -108.5,-176 0,0 0,-71.3 0,-74.6 z m 84.2,27 c -1.2,0 -2.1,1.3 -3.2,1.9 -5.6,2.6 -11.4,0.6 -17.8,1.4 l -4.8,1.6 c -1.3,-0.1 -2.3,-1 -3.6,-1.2 -4.6,0 -9,-0.8 -13.6,-0.1 -3.5,-0.5 -6.9,-1 -9.7,-3 -1.9,-0.1 -1.7,2.5 -3.4,2.6 -1.3,0 -2.6,0.4 -3.9,0.1 -1.7,-0.1 -3.2,0.7 -3.9,2 l -0.4,8.5 c 0,0.6 -0.4,1.3 -1,1.5 -3.3,0.1 -7.2,-0.3 -8.5,3.3 -0.3,1.6 -0.7,3.6 0.4,4.9 1.9,1.9 4.8,2 7.3,1.9 1.9,0.3 1.5,2.4 1.5,3.7 0.3,7.2 -0.6,14.1 0,21.8 -0.8,3.7 -5.6,0.3 -7.8,2.6 -0.9,1.2 -1.6,2.6 -1.5,4 -0.1,2 0.4,3.7 2.6,4.6 2.2,0.8 4.6,0.2 6.6,1.3 1,3.3 -0.7,7.9 1.5,11.1 1.2,1 2.6,1.3 4,1.5 4.5,0 8.7,0.7 13,-0.3 4.5,0.1 9,-0.6 13.5,0.1 1.2,0.4 2.8,0.3 3.2,1.7 2,1.3 4.6,2.3 7.1,1 1.3,-1.2 2.1,-2.7 3.7,-3.2 l 7.2,0.3 c 2,-0.9 4.4,-0.6 6.5,-0.3 3.7,0.1 7.5,0.1 11.1,0 1.9,-0.3 3.9,-0.5 5.5,-1.6 2.2,-3.9 -0.8,-8.5 1.6,-12.2 2.3,-0.6 4.9,0.7 6.8,-1 1.6,-1.3 2.2,-3.2 1.9,-5.2 -1.3,-3 -4.8,-3.4 -7.7,-3.3 -1.3,-0.3 -1.6,-1.7 -1.8,-2.7 -0.3,-6.5 0.1,-12.3 0.2,-18.6 0.7,-2 -0.6,-3.9 0.9,-5.6 2.1,-1.6 5.3,-0.1 7.1,-2.6 0.1,-1.6 0.9,-4.2 -0.7,-5.5 -1.4,-1.6 -3.8,-1.4 -5.7,-1.4 -4.2,-3 0.1,-7.4 -2.3,-11.1 -1.9,-1.7 -4.8,-1.8 -7.1,-1.3 -1.6,-0.1 -2.7,-1.4 -3.7,-2.6 -0.3,-0.4 -0.7,-0.6 -1.1,-0.6 z m 101.9,0.5 c -0.2,0 -0.3,0.1 -0.5,0.1 -6.6,5.2 -16.1,1.2 -23.9,3 -0.9,0.1 -1.4,1.2 -2.6,0.8 -6.1,-3.3 -13.4,-0.3 -19.7,-1.8 -2.8,-0.2 -5.2,-2.8 -7.8,-1.3 -1.2,4 -5.9,0.8 -8.6,1.8 -4.8,2 -1.6,7.2 -2.4,11.1 -1.6,3 -5.7,0.2 -7.8,2.6 -1.2,0.9 -1.6,2.3 -1.7,3.9 0.3,5.6 7.1,2.5 9.8,5.3 -0.7,3.5 0.4,7.1 -0.3,10.1 -0.4,5 0.9,9.9 0.3,14.7 -2.5,2.6 -7.8,-0.2 -9.1,4 -1.1,1.7 0,3.6 0.8,5.2 1.9,1.6 4.3,1.9 6.9,1.7 2.4,2.3 1,5.9 1.2,9.1 0.3,1.1 -0.3,2.3 0.7,3.3 3,1 6.4,1 9.5,1 7.1,0 13.4,0 19.9,0.3 3.3,-0.9 5.3,2.6 8.5,2.7 3,0.4 3.5,-3.7 6.5,-3 l 14.7,0.1 c 2.9,0.2 5.7,-0.2 8.5,0.3 2.9,-0.6 6.3,0.6 8.1,-1.7 1,-3.3 0.6,-6.8 1,-10.2 0.9,-2.9 4.8,-1 6.8,-2.3 1.6,-0.6 2.6,-2 2.9,-3.6 0.6,-2.2 -0.8,-3.8 -2.2,-5.2 -1.7,-1 -3.6,-0.4 -5.5,-0.8 -1.2,-0.3 -1.6,-1.5 -1.7,-2.4 0.1,-4.2 -0.6,-8.8 0.3,-12.8 -0.3,-3.5 -0.4,-6.8 0,-10.1 l 0.6,-0.8 c 2.3,-0.6 5,0.3 6.8,-1.4 1.2,-1.6 2,-3.8 1,-5.5 -0.9,-3.5 -4.8,-2.6 -7.3,-3 -2.4,-1.2 -1.1,-3.7 -1.3,-5.7 0,-1.9 0.8,-4.5 -1.3,-5.9 -1.9,-0.8 -4.2,-0.4 -6,-0.2 -3,0.4 -2.7,-3.7 -5.1,-3.4 z m -113.5,98.4 c -1.3,0.2 -1.6,2.6 -2.9,3.1 -2.9,1 -6.5,-0.8 -8.9,1.5 -1.4,3 0.3,6.5 -0.4,9.8 -0.4,2 -2.9,1.1 -4.5,1.3 -2.4,0 -4.9,0.6 -6.2,2.6 -0.4,1.3 -0.6,2.7 -0.3,4.2 1.3,2.9 4.9,2.7 7.6,3.3 1,0 2.1,-0.3 2.9,0.6 0.4,4.2 0.1,8.1 0.3,12.1 -0.6,2.7 0.1,6 0,8.9 -0.1,1.2 -0.5,2.5 0,3.5 -0.1,0.9 -0.3,1.9 -1.3,2 -2,0.3 -4.4,-0.6 -6.1,0.4 -1.4,0.4 -2.4,1.7 -3,3 -0.3,1.3 -0.3,2.8 0.3,3.9 2.1,2.6 5.5,2 8.5,2.3 3,0.7 1.6,4.6 1.9,6.9 l 0.3,4.8 c 0.9,3 4.6,2.2 6.9,3 l 4.9,-0.6 c 3.2,0.9 6.9,-0.6 10.1,0.1 3.6,-1 7.5,-0.4 11.5,-0.4 2.5,-0.2 5,-0.2 7.6,-0.3 2.2,1.5 4.5,3.3 7.3,2.4 2.3,-2 5.6,-2.4 8.5,-2 l 6.1,-0.3 1.1,0.5 7.3,-0.3 c 4.5,0.1 9.1,-0.5 14,-0.2 l 4.2,-0.3 3.7,-1 c 2.6,-2.4 0.9,-6.5 1.5,-9.7 0.5,-1.2 0.1,-2.7 1.6,-3.2 3,-0.4 7.1,-0.1 8.2,-3.6 0.3,-1.4 0.4,-3 -0.3,-4.2 -1.3,-1.4 -2.9,-2 -4.6,-2.4 -1.7,0.3 -4.2,0.4 -5.2,-1.1 0.7,-8.6 -0.3,-16 0.4,-24.6 l 1,-1.3 c 2.9,-0.6 6.5,-0.1 8,-3.3 0.6,-1.4 0.1,-3.2 -0.9,-4.5 -1.7,-3.2 -5.9,-0.6 -8.2,-2.4 -1.4,-3 0.9,-6.3 -0.3,-9.7 -1.9,-3.3 -6,-2.2 -9.2,-2.2 -1.7,-1.4 -3.9,-1.7 -6.1,-2.1 -3.2,2 -6.9,2.5 -10.8,2.5 -4.8,0.6 -9.4,-0.6 -14,-0.3 -2.8,-0.1 -5.9,-0.4 -7.9,1.7 l -3.6,-1.6 c -8.9,-1.4 -18.4,2.2 -27,-1 L 215,246 c -0.5,-0.2 -0.9,-0.3 -1.2,-0.2 z" />
	<path
   id="XMLID_368_"
   class="st2"
   d="m 232.8,152.6 c 0.9,-0.1 1.9,0.3 2,1.2 1.1,3.3 0,6.8 0.8,10.1 2.2,1.9 6.1,-0.4 7.8,2.3 0.1,0.8 -0.4,2 -1.5,2.2 -1.9,0.9 -4.9,-0.7 -6.1,1.5 -0.8,6 -0.1,11.2 -0.8,17.2 0.3,4.5 -0.3,8.4 0.6,12.7 2,3.7 8.1,-0.8 8.7,4.1 -1.7,3.6 -7.1,-0.5 -8.9,3.1 -0.3,3.5 -0.4,7.3 -0.7,10.8 -0.3,0.8 -1.1,1 -1.8,1.5 l -15.5,0.3 c -3,-0.6 -6.2,0.9 -9.2,-0.1 -0.7,0.6 -1.6,0 -2.3,-0.1 -0.1,-0.3 -0.3,-0.8 -0.1,-1.2 2,-0.9 4.8,-0.8 7.1,-0.7 l 10.1,-0.3 c 3.2,0.1 7.6,1 9.3,-2.3 1.2,-7.3 -0.1,-14.9 0.5,-22.5 0.2,-9.1 0.1,-17.3 0.1,-26.6 -0.6,-3.9 0.3,-8.3 -1,-12.1 -0.1,-0.7 0.4,-1 0.9,-1.1 z" />
	<path
   id="XMLID_369_"
   class="st2"
   d="m 165.5,153.4 c 3.2,0 0,2.9 0.6,4.4 l -0.3,7.5 c -0.1,12.1 0.4,24.4 -0.1,36.1 0.1,4.8 0.6,8.8 0.7,13.4 0.4,2.4 3,2 4.6,2.4 3.7,-0.4 7.6,0.4 11.2,0.1 3.9,-0.3 7.3,-0.3 11.4,0 0.4,0.1 1,0.4 1,1 0.2,0.9 -0.7,1.3 -1.4,1.5 -9.1,-0.3 -18.5,0.1 -27.2,-0.3 -0.9,-0.1 -1.7,-1 -2,-1.9 -0.4,-3.3 0,-7.2 -0.6,-10.4 -2.4,-1.9 -6.6,0.4 -8.5,-2.4 -0.4,-0.7 -0.1,-1.6 0.5,-2.2 2,-1.6 4.9,-0.3 7.2,-1.2 l 0.7,-0.7 c 1,-9.4 -0.2,-18.4 0.7,-27.5 -0.6,-1.3 -0.3,-3 -1.9,-3.8 -1.6,-0.1 -3.3,-0.1 -4.9,0.1 -1.2,-0.6 -2.6,-0.4 -3.2,-1.7 -0.2,-1.2 0.7,-2.2 1.7,-2.6 2.3,-1.4 6.6,1.1 7.5,-2.7 1.3,-2.6 -0.5,-6.9 2.3,-9.1 z" />
	<path
   id="XMLID_370_"
   class="st2"
   d="m 266.4,152.4 c 0.5,-0.1 1,0 1.6,0.3 l 0.4,0.4 c -0.8,2.3 -2,4.6 -1.6,7.3 -0.1,7.1 -0.1,13.5 -0.1,20.2 0.3,10.1 -0.4,22.6 0.3,33.1 0.1,1.2 1,1.7 2,2.3 8.1,0.7 16,-0.1 24.2,0.8 0.6,0.3 1.3,0.3 1.6,1 0.2,0.7 -0.6,1 -1,1.3 -7.1,0.3 -14.3,-0.3 -21.3,0.1 -2.6,-0.6 -6.6,1 -7.8,-2 -0.3,-2.6 0,-5.2 -0.3,-7.8 -0.1,-1.3 -1.2,-2.4 -2.2,-3.2 -2.3,-0.7 -6,0.7 -7,-2.3 -0.2,-1 0.5,-1.9 1.6,-2.2 2.2,-0.6 5.4,0.3 6.7,-2.2 1,-5.9 0.6,-12.1 0.8,-18.1 -0.4,-3 0.1,-6.5 -0.1,-9.8 -1.2,-3.6 -5.3,-2.2 -8.1,-2.9 -1.2,-0.6 -1.6,-1.7 -1,-2.9 2.6,-2.5 8.4,0.3 9.1,-4.2 0.1,-3 -0.1,-6 0.9,-8.9 0.3,0 0.8,-0.2 1.3,-0.3 z" />
	<path
   id="XMLID_371_"
   class="st2"
   d="m 334.1,153 c 1,0 2.2,0.1 2.7,1 1.6,3.5 -1.9,9.7 3.3,10.8 1.9,0.6 4.7,-0.6 5.6,1.7 0.3,0.6 0.1,1.6 -0.1,2 -2.4,2.4 -7.7,-1 -8.5,3.3 0.3,2.6 0.1,4.5 0,7.1 V 189 c -0.4,3.5 -0.6,7.9 0.6,11.3 l 1.1,0.8 c 2.5,0.6 5.6,-0.4 7.3,1.6 0.2,1 -0.1,2.3 -1.1,2.6 -2.4,1.6 -6.8,-1.3 -8.1,2.2 0,3.6 -0.6,7 -1,10.5 l -1.3,1.2 c -7.3,0.6 -14.4,0 -21.6,0.1 l -7.1,-0.1 c -0.6,-0.3 -0.6,-0.9 -0.4,-1.3 3,-2 7.4,-0.4 11,-0.7 4.9,0.1 9.9,0 15,-0.1 3.5,-1.6 1.4,-5.3 2.3,-8.4 0.3,-8.4 0.1,-16.7 0.4,-25.1 -0.1,-8.6 -0.3,-17 -0.1,-25.4 0.2,-2 -2.3,-4.2 0,-5.2 z" />
	<path
   id="XMLID_372_"
   class="st2"
   d="m 291.5,250.9 c 1.3,0 2.4,1.1 2.5,2.5 -0.1,3 -0.6,6.6 1,9.2 2.2,1.2 5.2,0.4 7.5,1.6 0.6,0.7 0.3,1.6 0.1,2.3 -2.4,2.4 -7.5,-0.5 -8.6,3.7 -0.4,5.3 0.3,9.9 -0.1,15.1 0.1,4.5 -0.7,10 0.4,13.8 2.2,2.6 6.3,0.4 8.8,2.6 0.6,0.6 0.4,1.6 0,2.3 -2,2.7 -6.7,-0.4 -8.3,2.7 -0.6,3.3 -1.1,7 -1.1,10.5 -1.9,2.3 -5,0.8 -7.5,1.6 -10.8,-0.3 -21,0.6 -31.7,0 -0.6,-0.4 -1.5,-1.3 -0.8,-2 l 1.3,-0.6 c 10.7,-0.4 21.9,0.3 32.4,-0.7 1.3,-0.1 2.8,-0.7 3.2,-2 0.7,-7.9 0.3,-16.6 0.3,-24.3 0.6,-11.1 -0.1,-23 0,-34.1 0,-1.4 -2.6,-2.7 -0.8,-3.9 0.5,-0.2 1,-0.3 1.4,-0.3 z" />
	<path
   id="XMLID_373_"
   class="st2"
   d="m 207.2,251.5 c 0.6,0.1 1.1,0.5 1.1,1.3 -0.1,1.4 -1.5,2.3 -1.7,3.7 -0.6,8.4 0.1,17.4 0,25.7 0,4.6 0.3,8.6 -0.3,13.1 0.4,2 0,4.8 0,6.9 0.4,4.8 0.3,8.7 0.7,13.3 l 1,0.8 c 7.2,0.2 14.8,-0.8 22.5,-0.1 l 11.5,0.1 c 0.3,0.5 1,1.3 0.3,1.9 -2,0.7 -4.2,0.3 -6.4,0.7 -4.4,-0.4 -8.7,0.9 -13.2,0 -5.5,0 -11,0.9 -16.4,0.4 -0.9,-0.1 -1.6,-1 -1.9,-1.6 -0.6,-3.6 0.3,-7.1 -0.8,-10.3 -2,-3 -6.4,-1 -8.9,-2.7 -0.6,-0.3 -1,-1.3 -0.6,-1.9 2.3,-2.3 5.8,-1.1 8.7,-2 1.2,-0.9 1,-2.5 1.1,-3.6 0.1,-7.3 0,-14.3 0.1,-21.2 -0.1,-2.6 0.6,-5.8 -2,-7.3 -2.7,-1 -6.8,1.3 -8.2,-2.2 0,-1 0.7,-1.9 1.6,-2.2 3,-0.9 7.6,0.8 8.6,-3.3 -0.3,-2.9 0.1,-5.3 0.4,-8.2 0.5,-0.7 1.8,-1.4 2.8,-1.3 z" />
	<path
   id="XMLID_376_"
   class="st0"
   d="m 175.8,151.8 c 1,0 1.9,0.7 3,0.8 3.2,1.3 6.9,0.6 10.2,0.7 0.8,0.3 1.6,-0.3 2.3,-0.4 2,-0.3 3.7,0.4 5.3,1.3 l 1,2.2 c 0.1,8.2 0.6,15.8 0,24.5 v 2.7 l -0.3,13.9 c 0.4,4.2 -0.3,7.8 0.6,12 -0.1,0.5 -0.4,1 -0.8,1 -4.9,-1.3 -9.8,-1 -15,-1.3 -2.4,0.3 -5.7,0.6 -7.5,-1.3 -1,-1 0.2,-2.2 -0.4,-3.2 0.4,-7.9 -0.1,-17.1 -0.3,-24.8 0.3,-5.9 -0.1,-11.4 0.4,-17.1 -0.4,-2.6 0.2,-5.7 -0.1,-8.5 -0.3,-0.8 -0.2,-1.7 0.6,-2.3 0.3,-0.1 0.7,-0.2 1,-0.2 z m 4.4,16.3 c -1.4,0.6 -4.2,-0.4 -4.3,1.6 0,0.8 1,1 1.5,1.6 2.6,3.5 3.2,7.6 4.8,11.3 0.8,1.9 0.9,4.1 2,5.8 0.4,2.3 0.8,5 3.2,5.9 0.9,0 1.3,-0.7 1.7,-1.3 2.3,-7.1 3.8,-14.6 6.1,-21.5 0.3,-0.6 1.1,-1.2 0.8,-2 -0.9,-1 -2.1,-1 -3.4,-1 -0.7,0.3 -1.7,0.6 -1.6,1.7 2.6,3.5 -0.3,7.8 -0.7,11.4 -0.6,1.6 -0.3,4.2 -2.3,4.5 -1.3,-1.4 -1.5,-3.3 -2,-4.9 -1.3,-2.6 -1.9,-5.3 -2.7,-8.2 0,-1.3 1,-2 1.3,-3.1 -0.6,-1.9 -2.9,-1.7 -4.4,-1.8 z" />
	<path
   id="XMLID_379_"
   class="st0"
   d="m 223.3,151.1 c 0.7,0.1 1.3,0.6 1.1,1.4 0.4,2.7 -0.4,5.4 -0.1,8.6 0,5.9 0.5,11.4 0,17.1 0,8.8 -0.1,16.5 0.1,25 -0.1,1.7 0.4,4.3 -1.4,5.5 l -3.5,0.8 c -6,0 -12.5,-0.4 -18.4,0.6 -2.3,-0.9 -0.3,-3.6 -0.6,-5.7 -0.6,-11.7 -0.6,-23.9 -0.5,-35.4 0.1,-3.2 0.7,-6.8 0.1,-10 0.6,-2 0.3,-4.9 2.8,-5.6 2.7,-0.7 6,-0.3 8.9,-0.5 4,0.4 8.3,0.2 11.5,-1.8 z m -9.1,17 c -3.2,0.3 -6.9,0.1 -10.2,0.8 -1.1,1.4 1.2,2.3 1.6,3.7 0.1,5.8 0,11.4 -0.1,17.4 0,1.6 -2.6,3.2 -0.6,4.3 3,0.1 5.9,0.4 8.8,0.6 1.7,0.1 3.7,0.3 4.7,-1.4 0.6,-1 1.3,-2.3 0.6,-3.5 0,-0.7 -0.9,-1.4 -1.5,-1.1 -0.8,1.3 -1.1,2.7 -2.7,3.3 -1.7,0 -4.4,1 -5.5,-0.7 -0.1,-3.2 -1.4,-7.6 0.4,-10.1 2.3,-1.6 4.1,2.9 5.7,0.1 0.6,-1.2 0.4,-2.7 -0.4,-3.9 -1.7,0.1 -2.6,2.5 -4.6,1.6 -2.2,-1.3 -1,-4.6 -1.2,-6.8 0.3,-1.2 1.3,-1.8 2.6,-1.8 1.9,-0.1 2.7,2 4.3,2.5 1,-0.3 1,-1.4 0.8,-2.1 -1,-0.9 -0.8,-3.1 -2.7,-2.9 z" />
	<path
   id="XMLID_382_"
   class="st0"
   d="m 325,151.2 c 0.7,0 0.8,0.7 0.8,1.3 -0.6,9.9 0.6,20.3 -0.3,29.9 0.4,8.1 -0.3,16.7 -0.1,25.1 -0.9,1.7 -3.4,1.7 -5.5,1.7 -5,0.6 -10.2,-0.6 -15,0 -1.6,-0.1 -3.3,2 -4.5,0.4 0.1,-4 0.6,-7.6 0.7,-11.5 -0.6,-15.1 -0.1,-27.7 0.1,-42.7 0.3,-1.3 1.4,-2.2 2.6,-2.4 7.1,-0.6 14.9,1.1 21.2,-1.8 z m -11.7,16.6 c -1.7,0.6 -4,-0.5 -5.6,0.7 -0.6,1.3 0.6,2.3 1,3.4 -0.1,6.2 0.9,12.5 -0.1,18.9 -0.3,1 -1.7,1.6 -1.9,2.6 -0.3,0.4 0.3,1 0.7,1.1 2.2,0 4.1,-0.1 6.1,0.1 2.6,-1.2 -0.4,-2.7 -0.6,-4.1 0.1,-6.5 -0.4,-12.3 0.1,-18.5 0.6,-1.2 2,-2 1.7,-3.4 -0.1,-0.7 -0.8,-0.7 -1.4,-0.8 z" />
	<path
   id="XMLID_386_"
   class="st0"
   d="m 275.7,151.2 c 1.7,0.2 3.5,0.3 4.9,1.2 4.3,1 8.8,0 13.1,0 1.3,0.3 3.1,-0.2 3.9,1.4 1.2,4.2 1.2,7.9 0.7,12 0.3,8.4 -0.6,17 0,25.2 0,2.3 -0.3,4.3 -0.1,6.6 -0.4,3.9 -0.1,7.3 -0.3,11.5 -0.9,0.7 -2.2,0.1 -3,0 -2.9,-0.3 -5.5,-0.1 -8.3,-0.1 -1.3,-0.3 -2.6,0.1 -3.8,0.3 -2.6,-0.6 -5.9,0.1 -7.9,-1.9 -0.7,-1.9 -0.1,-3.5 0,-5.5 0.1,-10.7 -0.9,-20.9 -0.1,-31.7 v -14.9 c -0.1,-1.3 -0.4,-3.3 0.9,-4.1 z m 4.5,16.6 c -0.6,0.1 -1.1,0.7 -1.1,1.3 0,0.9 1,1 1.6,1.6 1.2,1.9 0.9,4.2 0.9,6.2 -0.1,4.9 -0.3,9.1 -0.1,13.7 -0.3,1.4 -2.8,2.1 -1.5,3.9 l 5.8,0.1 c 3,-1.2 -1,-2.7 -0.8,-4.5 -0.1,-2 -0.3,-4.1 0.5,-6 0.4,-0.1 1,-0.2 1.3,0.3 1.3,2.9 3.3,5.3 4.9,8.1 0.7,1.2 1.9,2.2 3.3,2 0.6,-0.3 1.4,-0.7 1.1,-1.6 -2.7,-2.2 -3.2,-5.5 -5.6,-8.1 -0.4,-0.9 -0.1,-1.4 0,-2.3 1.9,-1.4 3.9,-3.2 4.7,-5.3 0.3,-1.7 0,-3.3 -0.3,-4.9 -0.8,-2.6 -3.7,-3.9 -6.2,-4.4 -2.9,-0.2 -5.6,0.2 -8.5,-0.1 z m 7.2,2.3 c 2,-0.2 3.4,1.6 3.9,3.3 0.8,1.6 0.4,3.4 -0.3,4.9 -1,1.3 -2.3,2.6 -4,2.4 -3.5,-0.4 -1.3,-4.6 -1.7,-6.6 0.2,-1.3 -0.3,-3.4 1.3,-3.9 0.3,-0.1 0.6,-0.1 0.8,-0.1 z" />
	<path
   id="XMLID_391_"
   class="st0"
   d="m 215.3,250.1 c 2,0.1 3.6,1 5.3,1.6 8.1,0.8 16.1,-1.4 24.1,0.3 3.3,1.6 1.4,5.2 1.8,7.9 0,3.7 -0.3,7.7 -1.4,11.1 -2.2,6.1 -2.9,12.4 -5,18.3 -0.9,1 -3.2,1.3 -2.4,3 1.2,0.7 3,0.6 4.3,0.4 0.9,0.1 1.5,-0.3 1.6,-1 -0.3,-2.6 -1,-5.5 0.8,-7.5 0.4,-0.4 1.3,-0.7 1.9,-0.3 1.2,3.6 0,7 0.3,10.8 -0.1,3.7 0.4,8.2 0.1,12 0,0.7 0.1,1.7 -0.7,2 -2.3,0.4 -4.5,-0.7 -6.8,-0.3 l -5,0.1 c -3.2,0 -6.5,-0.3 -9.7,-0.1 -3,0 -6.3,0.1 -8.8,-1.5 l -0.8,-1 c -0.1,-11.8 0.1,-23.1 -0.3,-35.2 0.1,-6.2 0.8,-13 -0.1,-19 0.5,-0.5 -0.1,-1.2 0.8,-1.6 z m 21.6,14.5 c -2.2,1.9 -5.1,1.3 -7.8,1.1 -1.6,0.3 -3.6,0.4 -4.9,-0.7 -0.7,-0.4 -1.7,-0.3 -2,0.4 -0.4,1.9 -1.8,3.7 -1,5.6 0.4,0.6 1,0.4 1.4,0.1 0.6,-1.6 2,-2.7 3.6,-3.2 0.7,0.1 1.6,0.9 2,1.5 l -0.4,7 c 0.1,3.5 -0.2,7.2 0.1,10.5 0.7,2.3 -3.3,3.3 -1.4,5.6 0.7,0.3 1.8,0.4 2.5,0 1.6,0 3.5,0.7 4.6,-0.6 0.9,-1.3 -0.7,-2 -1.1,-3 -0.1,-4.3 -0.2,-9.4 -0.5,-13.8 0.7,-2.2 -0.8,-4.8 0.6,-6.5 2.1,-1.2 2.2,2.1 4.2,1.9 1.6,-0.8 0.8,-3.2 1.6,-4.8 0.1,-0.5 -0.8,-1.1 -1.5,-1.1 z m 9.7,9.4 c 0.4,-0.1 0.6,0.4 0.8,0.8 l -0.5,5.9 c -0.1,0.6 -1,0.7 -1.4,0.3 -1.2,-2.1 0.3,-4.6 0.7,-6.8 0.1,-0.1 0.3,-0.2 0.4,-0.2 z" />
	<path
   id="XMLID_398_"
   class="st0"
   d="m 281,249.7 c 0.8,-0.1 1.7,0 1.5,1 -1.3,9.5 0.3,18.5 -0.1,28.1 0.4,7.5 -0.4,14.4 0,21.9 -0.3,1.9 0.6,4.2 -0.7,5.7 -2.8,1.7 -6.3,2 -9.7,1.9 l -16.8,-0.1 c -2.2,-0.3 -3.5,2 -5.7,1.1 -0.7,-2 1,-4 0,-6 0.3,-3.9 0.1,-6.8 -0.1,-10.7 0.3,-3 -0.7,-5.9 0.4,-8.6 0.3,-0.6 0.9,-0.1 1.3,0.1 1.4,2 2,4.9 1.1,7.3 0.3,0.9 1.3,1 2.2,1 1.9,-0.1 4.5,1 5.6,-0.7 -0.3,-2.3 -3.7,-2.6 -3.7,-5.2 -0.4,-4.8 -3.2,-8.7 -3.8,-13.4 -0.8,-2.9 -1.7,-5.7 -2.7,-8.5 -0.1,-3.9 -0.1,-7.2 0,-11.1 0.4,-2.6 3.5,-1.7 5.4,-2.4 4.9,0 9.6,0.9 14.5,0.6 3.7,0.2 7.5,-0.3 10.5,-2 0.2,0.1 0.5,0.1 0.8,0 z m -7.6,16.1 c -0.7,0 -1.4,0.3 -1.9,0.7 -2.8,-0.3 -6.1,-0.2 -7.7,2.4 -1,1.9 -1.7,3.9 -1,6.1 2,5 8.8,5.4 10.6,10.6 0.1,1.6 -0.4,3.2 -1.8,4 -1.9,0.3 -3.9,0.3 -5.2,-1.3 -1.7,-0.9 -0.9,-3.4 -2.9,-3.4 -2.2,1 -0.5,3.9 -1,5.9 0.2,0.4 0.3,1.2 1,1 2.2,-1.9 4.1,0.8 6.4,0.7 2,-0.3 4.1,-0.7 5.5,-2.4 1.4,-1.6 1.9,-4 1.7,-6 -1,-6.1 -8.1,-6.4 -11,-11 -0.6,-1 -0.4,-2.1 0.1,-3.2 1.3,-1.4 3.2,-0.4 4.8,-0.3 1.3,0.7 1.8,3.4 3.6,2.3 0.6,-1.5 0.4,-3.3 0,-4.8 0,-0.9 -0.6,-1.2 -1.2,-1.3 z m -23.8,13.5 c 0.4,0 0.8,0.7 0.6,1.2 -0.1,0.1 -0.1,0.4 -0.4,0.4 -0.7,0.1 -0.6,-0.5 -0.6,-1 0,-0.3 0.1,-0.5 0.2,-0.6 z" />
	<path
   id="XMLID_399_"
   class="st0"
   d="m 227.6,152.9 c 1.2,-0.1 1.7,1.4 2.1,2.1 0.6,1 0.9,2.4 0.7,3.4 0.4,12 0,24.3 0,36.3 v 15 c 0,0.6 -0.2,1 -0.7,1 -1.9,-0.9 -2.3,-2.9 -3,-4.6 0.1,-7.6 0.1,-14.4 0.1,-22 0.1,-9.1 -0.3,-18.7 0.1,-28 -0.1,-1 -0.4,-2.3 0.1,-3.1 0.3,-0.1 0.4,-0.1 0.6,-0.1 z" />
	<path
   id="XMLID_400_"
   class="st0"
   d="m 170.9,153.5 c 0.7,-0.1 0.7,0.6 0.8,0.8 -0.4,0.7 -0.7,1.5 -0.1,2.2 0.4,4.5 -0.7,9.3 0,13.7 -0.3,6.2 0,12.1 0,18.5 -0.3,4.8 -0.2,10.6 -0.2,15.4 0.4,3.2 0.4,6.8 -2.4,8.5 -1.2,-0.1 -0.6,-1.4 -0.8,-2 0.3,-2.9 -0.2,-5.6 0,-8.7 0.6,-8.4 -0.4,-17 0.1,-25.5 v -18.6 c 0.4,-1.6 0.8,-3.5 2.6,-4.3 z" />
	<path
   id="XMLID_401_"
   class="st0"
   d="m 226,210.4 c 1.5,0.2 1.9,2.2 2.9,3.2 0.3,0.6 -0.4,1.3 -1,1.3 h -8.8 c -3.5,0.1 -6.2,0.3 -9.8,0.3 -2.4,-0.4 -5.3,1.5 -6.7,-1.1 -0.4,-0.8 0.6,-1.4 1.1,-1.7 2,-0.8 3.9,0.6 6,0 5.1,-0.3 11,0.3 15.5,-1.8 0.4,-0.2 0.6,-0.2 0.8,-0.2 z" />
	<path
   id="XMLID_402_"
   class="st0"
   d="m 173.3,210.8 c 1.2,-0.1 1.9,0.6 2.7,1 5.7,1 12.2,0 17.8,0.6 0.9,0.3 2,0.4 2.3,1.4 0,0.6 0,1.5 -0.8,1.6 -7.1,-1.3 -14.4,0.3 -21.4,-0.6 -0.9,-0.1 -2.8,0.4 -2.9,-0.9 0.1,-1.3 1,-2.5 2.3,-3.1 z" />
	<path
   id="XMLID_403_"
   class="st0"
   d="m 329.4,153.2 c 1.1,0.2 1.3,1.6 1.9,2.5 l 0.6,1.7 c 0.3,9.1 0.1,18.4 -0.1,27.9 -0.3,4.6 0.3,8.6 0.1,13.4 -0.7,3.9 0.4,7.9 -0.3,11.7 -0.4,0.4 -1.1,0.4 -1.6,-0.1 -1.4,-1.4 -2.5,-3.3 -2,-5.5 0,-11.8 0,-23.1 0.1,-34.6 0.6,-5.3 -0.3,-10.1 0,-15.5 0.1,-0.6 0,-1.3 0.7,-1.5 0.3,0 0.5,0 0.6,0 z" />
	<path
   id="XMLID_404_"
   class="st0"
   d="m 271.1,153.9 c 0.1,0 0.3,0.1 0.5,0.4 0.6,1.7 0.6,3.7 0.6,5.6 -0.4,4.7 0.6,9.7 -0.1,14.6 0.1,11.1 0,22.5 -0.1,34 -0.7,1 -0.7,2.6 -2.2,2.9 -0.8,0.1 -0.7,-0.8 -0.8,-1.3 0.6,-3.3 -0.4,-6.3 0.1,-9.5 -0.5,-12.5 0,-23.8 -0.1,-35.6 0.3,-3.6 -0.6,-6.6 1,-9.8 0.4,-0.4 0.7,-1.3 1.1,-1.3 z" />
	<path
   id="XMLID_405_"
   class="st0"
   d="m 273.7,210.6 c 3.6,0.5 7.4,1.5 11.1,1.2 3.6,0.1 8.2,-0.6 11.3,0.6 0.7,0.7 1,1.6 0.3,2.4 -2.7,0.7 -5.3,-0.9 -8.2,-0.6 l -15.4,0.1 c -0.6,-0.1 -1.3,-0.5 -1.3,-1.2 0.1,-1.1 1.3,-1.8 2.2,-2.5 z" />
	<path
   id="XMLID_406_"
   class="st0"
   d="m 326.3,210.7 c 1.7,0 2.8,1.4 3.8,2.7 0.3,0.6 0,1.6 -0.8,1.3 h -25.4 c -0.7,-0.3 -1,-1.3 -0.8,-2 3.3,-1.6 7.5,-0.7 11.1,-0.7 4,0.2 8.3,0 12.1,-1.3 z" />
	<path
   id="XMLID_407_"
   class="st0"
   d="m 285.7,251.8 c 1.2,0.6 2,2 2.6,3.2 0.7,12.8 0.4,26.2 0.4,38.8 l -0.3,16.5 c -0.3,0.6 -0.8,0.2 -1.1,-0.1 -1.6,-1.9 -3.2,-4.3 -2.3,-7 -0.2,-8.1 -0.3,-17.9 -0.1,-25.8 l 0.1,-5 V 264 c -0.3,-3.6 -0.2,-7.6 0,-11.2 z" />
	<path
   id="XMLID_408_"
   class="st0"
   d="m 210.9,252.9 c 2.4,0.4 0.4,3 1,4.6 0.1,15.4 0.1,30.7 0.1,47.2 0.4,2.3 -0.7,4.6 -2.4,6.1 -0.4,0 -0.8,-0.3 -0.8,-0.8 l 0.1,-5.7 c 0,-16.3 -0.3,-32.3 0,-48 0.3,-1.2 1.3,-2.4 2,-3.4 z" />
	<path
   id="XMLID_409_"
   class="st0"
   d="m 214.1,309 c 1.6,0.3 2.8,1.3 4.3,1.7 7.2,0.6 14.8,0.3 22.2,0.3 1.4,0 3.3,-0.2 4.5,0.8 0.3,0.4 0,1 -0.3,1.5 l -1,0.6 -23.4,-0.1 c -2.7,0.1 -5.6,-0.9 -8.2,-0.3 -0.4,0 -1.3,0.1 -1.3,-0.6 0.6,-1.8 1.6,-3.1 3.2,-3.9 z" />
	<path
   id="XMLID_410_"
   class="st0"
   d="m 283.1,309 c 1.4,0 2.3,2.4 3.3,3.5 0.3,1.2 -1.2,1.1 -1.9,1.3 -5.3,-0.3 -10.2,0 -15.5,0 -5.2,0.3 -10.7,-0.1 -16,0 -0.7,-0.5 -1.4,-1.3 -0.8,-2 2.4,-1.3 5.6,-0.8 8.5,-0.8 7.1,-0.3 14.2,0.8 20.9,-1.1 0.5,-0.7 1,-0.9 1.5,-0.9 z" />
	<path
   id="XMLID_411_"
   class="st2"
   d="m 200.1,215.6 c 1.4,0.4 2.7,1.7 3.2,3.2 -0.1,1.4 -0.1,3.4 -1.7,4 -0.9,0.4 -2,0.3 -2.7,-0.3 -1.6,-0.7 -1,-2.3 -1.2,-3.7 -0.1,-1.6 1,-2.6 2.4,-3.2 z" />
	<path
   id="XMLID_412_"
   class="st2"
   d="m 299.8,215 c 1.1,0 2.2,0.8 2.7,1.9 1,1.2 0.9,3 0.1,4.3 -0.7,0.7 -1.9,0.5 -2.7,0.6 -1,-0.1 -1.7,-1 -2.2,-1.9 -0.4,-1.3 -0.3,-2.7 0.5,-3.7 0.4,-0.8 1,-1.1 1.6,-1.2 z" />
	<path
   id="XMLID_430_"
   class="st2"
   d="m 248.5,313.7 c 0.9,0 1.7,0.9 2,1.8 0.8,1.4 0,3 0.1,4.7 -0.4,0.9 -1.5,1 -2.4,1 -1,0 -2,-1 -2.3,-2 -1,-1.2 -0.3,-2.7 0,-4 0.7,-0.6 1.2,-1.3 2.2,-1.5 0.1,0 0.3,0 0.4,0 z" />
	<path
   id="XMLID_505_"
   d="m 164.3,303.8 c -4.1,0 -7.5,3.4 -7.5,7.5 0,0.7 0.1,1.4 0.3,2.1 v 0 c -0.6,0.5 -1.2,1.4 -1.5,3.8 0,0.2 0,0.5 0,0.7 0,0.5 -0.1,0.9 -0.1,1.4 0,0.8 0,1.8 0.1,2.9 0.9,0 1.7,0 2.5,0.1 -0.3,-3.9 0,-5.6 0.3,-6.4 0.5,0.6 1.1,1.1 1.7,1.6 -0.7,1.4 -0.7,3.5 -0.5,5 0.9,0.2 1.8,0.4 2.6,0.7 -0.1,-0.8 -0.2,-1.6 -0.2,-2.3 0,-1.1 0.1,-2 0.3,-2.4 0.6,0.2 1.2,0.3 1.9,0.3 4.1,0 7.5,-3.4 7.5,-7.5 0.1,-4.1 -3.3,-7.5 -7.4,-7.5 z m 0,12.5 c -2.7,0 -5,-2.2 -5,-5 0,-2.7 2.2,-5 5,-5 2.7,0 5,2.2 5,5 0,2.7 -2.3,5 -5,5 z m 60.9,43 c -2.2,-0.1 -3.6,1 -4.4,2.5 -2.2,-2.4 -10.4,-11.4 -13.8,-14.4 0,0 -2.4,-2.8 -2.4,-5 0,0 -3.6,-6.3 -5.7,-0.8 -2.4,-4 -10.8,-17.6 -12.9,-11.7 0,0 -1.1,4.3 -0.6,9 0,0 0.1,1.8 0,3.8 -1.5,-1.2 -3.3,-2.7 -3.3,-2.7 -8,-4.6 -5.8,0.2 -5.8,0.2 0.8,2.5 0.4,5.3 0.2,6.7 1.1,0.5 1.6,0.9 1.6,0.9 0.5,0.3 1,0.7 1.4,1 0.3,-2 -0.7,-4.8 -0.7,-4.8 -1.7,-2.7 0,-2.7 0,-2.7 2.7,-0.1 5.1,2.6 6.5,4.5 -0.1,1.2 -0.3,2.2 -0.6,2.8 0,0 -0.8,1 -1,3 1.2,0.8 2.4,1.5 3.6,2.2 -0.3,-2.7 -0.8,-8.5 1.5,-12.5 0,0 0.3,-3.2 -1.1,-6 0,0 -1.6,-5.2 3.3,-0.2 0,0 5.5,6.2 7.4,10.9 -0.1,1.9 -0.2,4.4 -0.2,7 -2.7,-0.7 -3.9,-5.3 -3.9,-5.3 -1.1,-4.9 -2.4,-4.7 -2.4,-4.7 -0.6,2.1 0.5,4.6 0.5,4.6 1.1,1.5 2,7.7 2.2,10.3 0.7,0.4 1.4,0.7 2.1,1.1 -0.5,-1.6 -0.3,-3.3 -0.3,-3.3 0.3,0.6 1.2,0.6 1.9,0.6 0.1,1.3 0.3,2.6 0.6,3.8 0.9,0.4 1.9,0.9 2.8,1.3 -1.3,-3.5 -3.7,-11.7 -0.6,-17.2 0,0 1.4,-3 2.7,0.8 0,0 7.4,10.4 12.1,14.4 0,0 3,3.6 2.2,8.2 1,0.3 1.9,0.5 2.9,0.8 0.2,-4.4 1.9,-5.7 1.9,-5.7 4.3,-4.3 4.3,5.8 4.3,7.1 1.2,0.2 2.4,0.5 3.6,0.7 -0.6,-8.6 -5.6,-11.2 -5.6,-11.2 z M 338.1,116.6 h 2.7 c -5.3,-6.1 -6.9,-4.5 -6.9,-4.5 1.6,0.9 3.3,3.2 4.2,4.5 z M 316.7,340 c 0,0 -1.8,1.5 -3.3,2.7 0,-2 0,-3.8 0,-3.8 0.5,-4.7 -0.6,-9 -0.6,-9 -2.1,-5.9 -10.4,7.7 -12.7,11.7 -2.1,-5.5 -5.6,0.8 -5.6,0.8 0,2.2 -2.3,5 -2.3,5 -3.3,3 -11.3,11.9 -13.5,14.4 -0.8,-1.5 -2.1,-2.6 -4.3,-2.5 0,0 -5,2.6 -5.5,11.4 1.2,-0.2 2.3,-0.4 3.4,-0.6 l 0.1,-0.2 c 0,0 -0.3,-11.8 4.2,-7.3 0,0 1.8,1.4 1.9,6.1 1,-0.2 1.9,-0.5 2.9,-0.8 -1.1,-4.8 2.1,-8.7 2.1,-8.7 4.6,-3.9 11.9,-14.4 11.9,-14.4 1.2,-3.8 2.6,-0.8 2.6,-0.8 3.5,6.3 -0.1,16 -1,18.4 1,-0.4 1.9,-0.8 2.9,-1.3 0.5,-1.5 0.7,-3.3 0.9,-5.1 0.7,0.1 1.6,0 1.9,-0.6 0,0 0.4,2.9 -1,4.8 0.2,-0.1 0.3,-0.1 0.5,-0.2 l 2.2,-1.3 c 0,0 0.9,-9.5 2.3,-11.4 0,0 1.1,-2.5 0.5,-4.6 0,0 -1.2,-0.2 -2.3,4.7 0,0 -1.2,4.6 -3.9,5.3 0.1,-2.6 0,-5.1 -0.2,-7 1.9,-4.7 7.3,-10.9 7.3,-10.9 4.8,-5 3.3,0.2 3.3,0.2 -1.4,2.8 -1.1,6 -1.1,6 2.9,5.2 1.2,13.9 1.2,13.9 l 2.1,-1.2 c 0.6,-0.3 1.1,-0.7 1.6,-1 0.3,-3.1 -0.9,-4.4 -0.9,-4.4 -0.3,-0.5 -0.5,-1.6 -0.6,-2.8 1.3,-1.9 3.7,-4.6 6.4,-4.5 0,0 1.7,0 0,2.7 0,0 -1.5,4.2 -0.3,6 l 0.2,-0.1 2.6,-2.1 c 0,0 -1.1,-4.1 0,-7.6 -0.1,0.2 2,-4.5 -5.9,0.1 z M 144.3,291.2 c 0,0 -3.5,0.2 -7.7,15.8 0,0 -0.9,5.7 0.3,5.8 0,0 1.7,-0.3 1.4,-4.9 0,0 1.4,-2.7 1.4,2.8 0,0 2.1,1.1 2.1,-2.1 0,0 -1.3,-11.5 2.5,-15.6 0,0.1 2.2,-3.9 0,-1.8 z m 59.3,60.6 c 2.7,2.3 2.6,9 2.4,11.5 1,0.4 2.1,0.8 3.1,1.2 0,-1 -0.3,-2 -0.3,-2 0.8,0.7 1.6,1.8 2.1,2.6 0.7,0.3 1.4,0.5 2.2,0.8 -0.9,-5.6 -5.4,-11.6 -5.4,-11.6 -4.4,-5.7 -4.1,-2.5 -4.1,-2.5 z m 88.1,2.3 c 0,0 -4.8,6.5 -5.4,12.3 0.6,-0.2 1.2,-0.4 1.7,-0.6 0.3,-0.5 1.4,-2.5 2.6,-3.5 0,0 -0.5,1.6 -0.3,2.7 1,-0.4 2.1,-0.8 3,-1.1 -0.1,-1.2 -0.7,-9.7 2.3,-12.3 0.1,0 0.4,-3.1 -3.9,2.5 z m 51.6,-36.5 c 0,-0.1 0,-0.2 0,-0.3 0,-0.1 0,-0.2 0,-0.3 -0.2,-1.5 -0.6,-2.6 -1.3,-3.3 0.3,-0.8 0.4,-1.6 0.4,-2.5 0,-4.1 -3.4,-7.5 -7.5,-7.5 -4.1,0 -7.5,3.4 -7.5,7.5 0,4.1 3.4,7.5 7.5,7.5 0.3,0 0.5,0 0.8,0 v 0.2 c 0.1,0 0.2,0.1 0.3,0.2 0.5,0.8 0.2,3.2 -0.2,4.5 l 0.2,0.1 c 0.8,-0.3 1.6,-0.5 2.6,-0.7 0.3,-1.4 0.5,-3.6 -0.3,-5 0.9,-0.4 1.6,-1 2.3,-1.7 0.3,0.9 0.6,2.7 0.2,6.4 0.8,-0.1 1.7,-0.1 2.5,-0.2 0.1,-1.3 0.2,-2.4 0.1,-3.5 0,-0.4 -0.1,-0.9 -0.1,-1.4 z m -8.3,-1.3 c -2.7,0 -5,-2.2 -5,-5 0,-2.7 2.2,-5 5,-5 2.7,0 5,2.2 5,5 0,2.7 -2.2,5 -5,5 z M 116.6,329 c -10.9,-11.7 -13.2,-8 -13.2,-8 4.3,2 12.1,11.4 12.1,11.4 1.6,-0.7 1.1,-3.4 1.1,-3.4 z M 313.8,116.6 h 3.2 c -2.4,-5.9 -10.9,-5.3 -10.9,-5.3 -4.7,0.5 -5.4,-3.8 -5.4,-3.8 -5,-4.9 -12,-0.8 -12,-0.8 -2.1,3.3 -10.2,8.2 -13,9.9 h 3.5 c 4.5,-2.9 10.2,-7.7 10.2,-7.7 4.6,-3.4 6.6,-1.4 7.4,-0.1 h -0.3 c -3.4,0 -6.2,2.8 -6.2,6.1 0,0.6 0.1,1.1 0.2,1.7 h 2.7 c -0.3,-0.5 -0.4,-1.1 -0.4,-1.7 0,-2 1.6,-3.6 3.6,-3.6 l 1,0.1 v -0.1 c 0.6,1.5 1.8,2.4 2.7,3 h -0.2 v 0.6 c 0,0.6 -0.1,1.2 -0.4,1.7 h 2.7 c 0.2,-0.5 0.2,-1.1 0.2,-1.7 l -0.1,-0.7 c 5.7,-2.7 9.9,0.7 11.5,2.4 z m 103.7,124.2 c 0,0 1.9,-5.5 7.1,-8.2 0,0 2.7,-3.8 -5.5,-5.5 0,0 -2.5,-0.7 -5.2,0.2 0.8,-4.4 0.6,-7.5 0.6,-7.5 -1.3,-4.3 -0.3,-13.7 -0.3,-13.7 1.9,-5.5 -0.8,-5.2 -0.8,-5.2 -0.7,0.2 -1.5,0.6 -2.1,0.9 0.2,-2.9 -1.3,-5.7 -1.3,-5.7 -2.8,-3.8 -0.8,-12 -0.8,-12 5.2,-6.5 -1.4,-6.2 -1.4,-6.2 -8.6,3.9 -9.9,14.2 -10.1,17.7 -1.2,0.2 -2.2,1.5 -3.1,3 -1.9,-1.9 -5.9,-7.2 -3.1,-15.2 1.6,0.7 3.5,0.8 5.2,0.3 3.8,-0.5 6.7,-3.7 6.7,-7.7 0,-4.3 -3.5,-7.7 -7.7,-7.7 -0.7,0 -1.4,0.1 -2.1,0.3 -1.7,0.2 -3.3,1 -4.5,2.2 -1.4,1.4 -2.2,3.2 -2.3,5.1 h 0.1 c -0.7,0.8 -1.4,1.7 -1.7,2.5 0,0 -5.1,-5.3 -6.7,-11.5 1.6,-0.4 6.1,-2.2 7,-8.4 0,0 0.2,-5.5 3.9,-8 0,0 5.8,-3.2 -3.5,-4.6 0,0 -4.6,-0.1 -7.3,2 -0.4,-4.2 -1.5,-8.7 -4.4,-11.6 0,0 -3.2,-5.5 -1.4,-9.8 0,0 0.8,-3.2 -3.9,-0.9 0,0 -1.6,1.4 -3.3,3.4 -1.4,-2.3 -2.8,-3.5 -4,-4.3 v 3.1 c 1.1,1 2,2.2 2.5,3.2 -1.1,1.7 -2.1,3.6 -2.4,5.4 l -0.1,-0.1 v 3.9 c 8.4,5.7 9,15.6 9,19.3 -0.2,0.1 -0.5,0.2 -0.7,0.3 0,0 -4.1,-5.8 -8.2,-9 v 5.1 c 2.1,2.8 4.5,6.7 4.2,9.3 0,0 -2.2,-0.2 -4.2,-1.1 v 2.6 c 0.6,0.2 1.2,0.4 1.8,0.6 0,0 -1.6,1.1 -1.8,2.3 v 0.4 c 0,0.2 0.1,0.3 0.2,0.5 0,0 5.8,-3.3 7.6,0.3 0,0 0.4,0.5 1.1,1.4 -3.8,-0.7 -6.8,0.3 -8.8,1.6 v 2.9 c 4.2,-3.3 8,-3.1 10.3,-2.6 1.9,2.6 4.3,6.4 5.2,9.4 0,0 -2.4,-0.5 -4.3,-0.4 -1.3,-1.8 -3.3,-3 -5.7,-3 -2.3,0 -4.3,1.1 -5.6,2.8 v 8.6 c 1.3,1.6 3.2,2.7 5.5,2.7 0.7,0 1.3,-0.1 1.9,-0.3 3.4,2.6 1.8,8.9 1.8,8.9 -0.5,4.1 -0.4,7.7 -0.2,9.6 -1,-0.5 -2,-1.1 -3.1,-1.6 0,0 -8.2,-3.6 -3.2,6.1 0,0 0.9,1.8 2,4.3 -3.1,-0.5 -5.2,-0.5 -6.7,-0.3 -0.1,0.4 -0.1,0.7 -0.2,1.1 -0.1,0.7 -0.2,1.3 -0.3,2 -0.1,0.4 -0.1,0.8 -0.2,1.2 -0.1,0.7 -0.2,1.4 -0.3,2.1 0.2,0.3 0.4,0.5 0.4,0.5 2.4,1.7 5.2,8 5.2,8 4,6 9.5,8.5 11.7,9.3 0.1,0.2 0.3,0.4 0.4,0.6 -0.9,-0.4 -1.9,-0.6 -3,-0.6 -0.8,0 -1.6,0.1 -2.4,0.4 -3.7,0.7 -6.4,3.9 -6.4,7.7 0,4.3 3.5,7.9 7.9,7.9 0.8,0 1.6,-0.1 2.4,-0.4 1.1,-0.2 2.2,-0.7 3.1,-1.3 3.7,1.2 6.3,3.2 7.7,5.9 1.6,3.2 1.4,6.8 0.9,9.4 -2.6,-1.6 -2.7,2.9 -2.7,2.9 0.3,1.6 0.2,3.3 -0.1,4.8 -3.1,-2.2 -2,-10.7 -2,-10.7 0.5,-4.4 -1.1,-3.2 -1.1,-3.2 -3.4,-0.4 -7.2,6.4 -8.8,9.4 -8.3,-15.1 -10.3,-8 -10.3,-8 2,9.2 -1.7,12.6 -3.3,13.5 -3.5,-3.2 -6.5,-4.2 -6.5,-4.2 -2.3,-2 -1.5,25.4 -1.3,30.8 0.7,-0.1 1.4,-0.2 2.1,-0.2 -1.1,-6.7 0.1,-28.3 0.1,-28.3 10.4,4.4 14.7,27.3 14.7,27.3 -0.3,9.8 3.2,7.1 3.2,7.1 -0.5,-9.3 5.5,-16.1 5.5,-16.1 8.2,-6.8 9.1,-17.3 9.1,-17.3 0.8,-7.6 3.2,-1.3 3.2,-1.3 6.3,16.3 1.7,28.7 -0.5,33.3 -4.7,2.5 -6.4,5.4 -6.4,5.4 5.2,-8.7 5.2,-23 5.2,-23 -0.9,-4.7 -2.8,-2.7 -2.8,-2.7 1.4,7.4 -3.3,13.2 -3.3,13.2 -5.4,6.3 -5.7,15 -5.7,15 1.3,1.1 1.3,-0.5 1.3,-0.5 3.2,-9.9 6,-11.7 6,-11.7 1.3,3.8 -3.5,11.2 -3.5,11.2 -1.7,4.4 1.6,2.2 1.6,2.2 18,-16.1 31.9,-10.1 31.9,-10.1 -6.1,3.2 -12.8,11.2 -12.8,11.2 -2.2,7.7 -9.9,10.9 -13.1,11.9 l 0.4,0.4 c 0.5,0.5 0.9,1.1 1.3,1.6 5.1,-1.2 11.5,-8.9 11.5,-8.9 3.2,-10.1 13.4,-13.6 13.4,-13.6 7.4,-0.8 0.5,-5 0.5,-5 -1,-0.1 -2.1,-0.2 -3,-0.3 7.9,-13.4 7.5,-18.8 7.5,-18.8 0.8,-8.8 -3.5,-4.4 -3.5,-4.4 -3.9,4.2 -7.1,4.1 -8.3,3.8 0.2,-0.7 0.4,-1.3 0.6,-1.9 0,0 8.2,-12.6 0.9,-10.9 0,0 -5,0.6 -10.2,4.2 1.5,-7.4 6.4,-10.6 8.9,-11.7 1.4,1.7 3.6,2.9 6.1,2.9 0.7,0 1.5,-0.1 2.2,-0.3 3.9,-0.5 6.9,-3.8 6.9,-7.8 0,-4.3 -3.5,-7.9 -7.9,-7.9 -0.7,0 -1.5,0.1 -2.2,0.3 -2.8,0.4 -5.2,2.2 -6.3,4.8 -2.8,0.6 -4.5,2 -4.5,2 1.1,-3.7 1.5,-7.9 1.6,-11.7 2.4,0.2 10.9,-0.7 15.3,-12.6 z m -46.6,61.9 c -1.3,-19 -5,-18.4 -5,-18.4 2.8,3.8 1.2,12.9 1.2,12.9 -1.5,-4.4 -3.6,-7.7 -5.6,-10.3 1.5,-3.2 2.3,-9.1 2.3,-9.1 -0.8,-6.9 0.5,-5.2 0.5,-5.2 8.9,4.2 10.4,20 10.7,25.3 -2.5,2.9 -4.1,4.8 -4.1,4.8 z m 8.9,-10.6 c -1.1,1.3 -2.2,2.6 -3.2,3.8 0.1,-6.2 -1.2,-10.7 -2.3,-13.2 0.3,-5.3 3.1,-8.6 3.1,-8.6 2.7,-4.6 2.7,-1.6 2.7,-1.6 -0.2,3.7 1.5,11.3 2.3,14.7 -1.2,2.9 -2.6,4.9 -2.6,4.9 z m 32.1,-31.2 c 0.2,0 0.3,0 0.5,0 3,0 5.4,2.4 5.4,5.4 0,2.4 -1.6,4.4 -3.7,5.1 -0.2,0 -0.3,0 -0.5,0 -3,0 -5.4,-2.4 -5.4,-5.4 0,-2.3 1.5,-4.4 3.7,-5.1 z m -2.1,-54.2 c 3.6,-3.6 3,-0.9 3,-0.9 -2.8,3.2 0.2,13.1 0.2,13.1 1.1,13.8 -7.3,22.6 -10.6,25.6 0.6,-4.1 0.8,-7.9 0.7,-11.4 0.9,-1.7 2.5,-5.1 2.2,-6.9 0,0 0.2,-6 1.7,-8.2 0,0 -3.2,4.2 -4.4,9.8 -0.4,-3.1 -1.1,-5.9 -1.9,-8.4 1.9,-6.1 9.1,-12.7 9.1,-12.7 z m -5.2,-23.5 c 5.7,-3.9 3.2,0.2 3.2,0.2 -3.6,4.4 -0.3,11.8 -0.3,11.8 1,2.1 0.9,6 0.7,8.7 -0.9,0.7 -1.7,1.5 -2.5,2.4 -1.8,-4.1 -4.2,-8.1 -4.2,-8.1 -0.5,-0.7 -0.9,-1.2 -1.3,-1.6 -2,-8.9 4.4,-13.4 4.4,-13.4 z m -6,16 c 2.1,0.1 4.4,6.4 5.3,9.1 -2.3,2.8 -3.9,5.6 -4.8,7.1 -1.7,-3.9 -3.7,-6.7 -5.1,-8.4 1,-8.2 4.6,-7.8 4.6,-7.8 z m -4.5,-27.9 c 0.2,0 0.3,0 0.5,0 1.4,0 2.7,0.5 3.7,1.5 2,2 2,5.3 0,7.4 -0.6,0.6 -1.3,1 -2.1,1.3 -0.1,0 -0.3,0 -0.4,0 -1,0 -2,-0.3 -2.9,-0.9 0.5,-1.2 1.2,-4.1 -2.1,-5.6 0.3,-1.8 1.6,-3.2 3.3,-3.7 z m -15.7,-13.8 c 0.2,-1.5 0.4,-3.9 0.4,-6.7 1.1,-1 4,-3 8.1,-2.3 0,0 3,0.8 -1.6,3.5 0,0 -1.7,3.3 -2.7,8.2 0,0 -0.8,4.6 -4.5,5 -0.4,-3.4 0.4,-6.8 3.8,-9.8 0.1,0.1 -1.2,0.7 -3.5,2.1 z m -14.9,-19.8 c 0.3,-1.5 1.2,-4.5 4.3,-6.7 0,0 1.4,-1.4 3,2.5 0,0 2.4,6.8 4.1,9 0,0 3.7,7.6 1.5,16.3 -0.5,0.3 -1,0.7 -1.5,1 0,0 -0.7,-0.6 -1.9,-0.6 0.1,-11.9 -5.3,-18.3 -9.5,-21.5 z m 16,49.7 c 0,0 2.4,0.6 -1.6,-6.5 0,0 -6.9,-12.1 -9.1,-14.8 0,0 -0.5,-1.4 2.5,-1.1 0,0 1.7,0.6 1.3,-2.5 0,0 1.6,-0.9 2,0.6 0,0 4.4,10.4 9.8,18.5 0,0 2.2,1.6 3,-2 0,0 0.9,-3.5 3.5,-0.6 0,0 0.3,0.6 0.2,1.4 l -0.2,-0.1 -1.8,1.8 c 0.1,0.1 0.3,0.2 0.4,0.4 h -0.1 c 0,0 -4.8,7.9 4,18.7 -0.6,1.5 -1.1,3 -1.4,4 -1.6,-1.5 -2.8,-2.5 -3.7,-3 -6.1,-11.7 -11.8,-14.1 -14.2,-14.5 v -0.1 c 0,-0.8 -0.2,-1.6 -0.4,-2.4 1.6,-0.5 4.4,-0.6 5.8,2.2 z m -3.3,18.1 c 0,0 4.7,7.3 5.9,11.7 -0.5,1 -0.9,1.9 -1.1,2.5 -1.9,-1.7 -4.1,-3.3 -6.6,-4.9 -1.9,-2.9 -2.1,-6.8 -2.1,-6.8 0.6,-3.2 0.6,-9.9 0.6,-9.9 5,0.8 10.6,7.2 13,10.2 -0.3,2.7 -1.3,5.2 -1.3,5.2 l -0.2,0.2 c -1.8,-2.7 -6.7,-10 -9.4,-11.3 -0.1,0.1 -0.3,0.4 1.2,3.1 z m -9,-13.7 c -2.4,0 -4.4,-2 -4.4,-4.4 0,-0.6 0.1,-1.1 0.3,-1.6 0.7,-1.5 2.2,-2.5 4,-2.5 2.4,0 4.4,2 4.4,4.4 0,0.6 -0.1,1.1 -0.3,1.6 -0.7,1.4 -2.3,2.5 -4,2.5 z m 3.4,1.7 c 1.3,-0.8 2.3,-1.9 2.9,-3.3 v -0.1 c 5.3,-0.5 9.9,7.6 11.8,11.5 -0.4,0.7 -0.2,1.9 -0.2,1.9 0.3,0.5 0.4,1 0.6,1.5 -4.1,-5.7 -11.6,-9.8 -15.1,-11.5 z m -2.3,43.2 c -0.8,-1.6 -5.7,-7.3 -5.7,-7.3 -5,-6.1 -1.8,-6 -1.8,-6 2,-0.8 4.9,-0.2 6.7,0.4 1.5,3.4 3,7.4 3.4,9.9 0,0 0.9,3.6 2.8,7.6 -2.6,-1.5 -5.4,-4.6 -5.4,-4.6 z m 6,21.7 c -0.3,0 -0.5,0.1 -0.8,0.1 -3,0 -5.4,-2.4 -5.4,-5.4 0,-2.3 1.5,-4.3 3.6,-5.1 0.3,0 0.5,-0.1 0.8,-0.1 3,0 5.4,2.4 5.4,5.4 0,2.4 -1.5,4.4 -3.6,5.1 z m -3.4,-33.3 c 0,0 -4,-9.9 -5.9,-11.1 0,0 -0.4,-2.9 4.2,0.4 0,0 25.7,14.3 21.6,29.9 -13.2,-18.3 -17.6,-21.4 -17.6,-21.4 6.8,8.5 10.7,18.7 12.7,25.3 -3.4,-1.1 -12.5,-5.5 -15,-23.1 z m 16.8,30.1 c -2.8,-2.5 -5.2,-3.5 -6.6,-3.8 -0.1,-0.6 -0.3,-1.1 -0.6,-1.7 1.8,1.1 3.8,1.5 6.1,1.1 0.8,2.8 1.1,4.4 1.1,4.4 z m 26.3,36.2 c 2.7,-2.2 2.5,0 2.5,0 -0.9,10.1 -8.3,17.5 -10.3,19.4 -1.6,0 -3.2,0 -4.6,0.1 1.3,-1.5 6,-6.7 5.7,-9.5 0,0 -0.7,-0.6 -3.2,2.2 0,0 0.2,-4.6 1.2,-9.5 3.8,1.2 8.7,-2.7 8.7,-2.7 z m -7.3,-10.2 c 0,0 2,0.3 -0.2,4.2 0,0 -2.5,4.3 -4.6,17.7 0,0 -0.6,5.1 -3.8,8.3 -3,0.5 -5.4,1.2 -7.5,2 2.1,-4.7 3.2,-9.2 3.6,-13.2 1,-2.8 2.6,-6.2 4.3,-7 0,0 -0.1,-2.3 -4.2,2.6 -0.1,-1.8 -0.2,-3.6 -0.5,-5.2 0.6,-1 1.6,-2.5 3.2,-4 h 0.1 v -0.1 c 2.1,-2.3 5.3,-4.6 9.6,-5.3 z M 404.5,266 c 0,0.1 0,0.2 0,0.3 0,1 0.2,2 0.6,2.9 -3.4,1.6 -9.7,6 -10.5,16.2 -0.5,0.5 -1.1,1 -1.6,1.6 -1.3,-4.8 -3.2,-8.3 -4.2,-9.9 0.8,-2.8 1.7,-8.1 -0.7,-12.7 -1.5,-3.1 -4.2,-5.4 -8,-6.8 0.8,-1.2 1.3,-2.6 1.4,-4.1 3.5,1.3 7.6,6.4 7.6,6.4 0.6,2.5 2.1,2.7 2.1,2.7 0,-8 -2.9,-17.9 -2.9,-17.9 1.9,3.8 3.4,7.8 3.4,7.8 2.5,-0.6 2.1,-15.8 2.1,-15.8 0.6,13 2.9,17.7 2.9,17.7 1.5,-0.6 3.6,-4.2 3.6,-4.2 -4.2,18.9 -2.5,20 -2.5,20 2.1,-2.3 4.8,-3.5 6.7,-4.2 z m -5.1,-19.1 c -0.8,0.6 -1.6,0.3 -1.6,0.3 -4.2,-25.7 -7.2,-26.1 -7.2,-26.1 2.2,6.1 2.3,11.9 1.9,16.2 -1.1,-4.4 -3.7,-9.7 -9,-15.1 -0.2,-1.7 0.8,-3.1 0.8,-3.1 3.3,-2.7 2.8,-11 2.8,-11 -0.6,-5.2 1.6,-3 1.6,-3 16.6,15.8 11.9,37.4 10.7,41.8 z m 13.8,-16.4 c 1.8,-0.3 5.6,-0.7 7.6,-0.1 0,0 3.2,1.1 -1.7,3.8 0,0 -3.5,5.2 -5.8,10.3 0,0 -4.8,8 -11.1,7.9 0,-1.3 -0.1,-2.6 -0.1,-3.8 6.5,-5.4 9.6,-12.4 11.1,-18.1 z M 133.5,360 c -0.9,-0.2 -2,-0.2 -3.1,-0.1 -2.6,1.8 -5.5,1.9 -7.9,1.5 -1.6,0.4 -2.7,0.8 -2.7,0.8 -7.9,5 -0.9,6.9 -0.9,6.9 2.4,-0.2 7.4,2.5 7.4,2.5 4.3,4.4 5.7,2.2 5.7,2.2 -0.2,-3.6 -7.7,-6 -7.7,-6 -5.2,-0.9 -4.4,-1.7 -4.4,-1.7 5.7,-4.4 13.9,-2.8 13.9,-2.8 4.1,-1.9 -0.3,-3.3 -0.3,-3.3 z m 263.2,-39.2 c 0,0 -2.4,-3.6 -13.2,8 0,0 -0.5,2.7 1.1,3.3 -0.1,0 7.8,-9.3 12.1,-11.3 z m -41,-29.8 c -2.2,-2 0,1.9 0,1.9 3.8,4.1 2.5,15.6 2.5,15.6 0,3.2 2.1,2.1 2.1,2.1 0,-5.5 1.4,-2.8 1.4,-2.8 -0.3,4.6 1.4,4.9 1.4,4.9 1.3,-0.2 0.3,-5.8 0.3,-5.8 -4.3,-15.8 -7.7,-15.9 -7.7,-15.9 z m 14.7,76.1 c 2.6,-0.3 0.2,-1.7 0.2,-1.7 -4.6,-0.5 -3.5,1.7 -3.5,1.7 1.4,-0.7 3.3,0 3.3,0 z m 9.7,-4.9 c 0,0 -1,-0.3 -2.5,-0.7 -3.4,0.8 -6.5,-0.2 -8.8,-1.6 -0.9,0 -1.8,0 -2.6,0.1 0,0 -4.5,1.4 -0.2,3.3 0,0 8.3,-1.6 14,2.8 0,0 0.8,0.8 -4.5,1.7 0,0 -7.7,2.4 -7.8,6 0,0 1.4,2.2 5.7,-2.2 0,0 5.1,-2.7 7.5,-2.5 0.2,0 7.2,-1.9 -0.8,-6.9 z m -222,-245.6 c 0,-2.4 -0.3,-8.5 -3.3,-10.3 0,0 -1.1,-0.3 -2.2,2.4 0,0 -4,5.8 -7.4,8 h 4.3 c 1.5,-1.3 4.1,-3.7 4.6,-5.3 0,0 2.5,1.5 1.1,5.3 h 2.9 z m -28.9,248.7 c 0,0 -2.4,1.4 0.2,1.7 0,0 1.8,-0.6 3.3,0 0,0.1 1.1,-2.2 -3.5,-1.7 z M 234.8,101.6 c 1.8,-1.1 4,-3.4 4,-3.4 4.1,-4.4 0.3,-4.9 0.3,-4.9 -2.2,0.9 -5.8,-0.5 -5.8,-0.5 C 224,87 215.2,89.2 215.2,89.2 v -1.1 c -0.5,-7.9 -4.1,-3.5 -4.1,-3.5 -0.5,2.5 -3.6,3 -3.6,3 C 198,90.4 196,96 196,96 c -1.6,4.1 -5.2,5.5 -5.2,5.5 -6.1,1.2 -9.9,3.1 -11.7,4.2 0.4,-0.8 0.6,-1.8 0.6,-2.8 0,-3.6 -2.9,-6.5 -6.5,-6.5 -3.6,0 -6.5,2.9 -6.5,6.5 0,2.5 1.4,4.7 3.5,5.8 -1.2,1.8 -4.4,5.9 -8.5,7.9 h 4.1 c 2.4,-1.2 6.4,-3.8 6.8,-7.2 0.2,0 0.3,0 0.5,0 1.6,0 3,-0.6 4.1,-1.5 -0.3,2 2.2,0.4 2.2,0.4 2.7,-1.6 6.3,-3.5 6.3,-3.5 8,-1.3 9.8,-3.8 9.8,-3.8 2.7,-8 9.1,-10.1 9.1,-10.1 2.5,0.2 4.4,-1.1 4.4,-1.1 3,-3.3 3.6,-1.6 3.6,-1.6 1.4,1.6 -1.4,3.2 -1.4,3.2 -2.8,1.6 -6.8,4.6 -6.8,4.6 -3.5,3.6 -2.2,3.5 -2.2,3.5 14.5,-12.3 27,-6.3 27,-6.3 1.9,1.4 4.3,2.8 4.3,2.8 3.3,0 2.7,1.3 2.7,1.3 -0.8,2.3 -3.5,3.5 -5.6,4.1 -0.4,0 -0.9,0 -1.4,0.1 v -0.1 c 0,0 -0.6,-4.4 -11.7,-4.9 0,0 -8.4,0.9 -14,5.1 -2.1,0.1 -4.4,0.3 -5.6,1.2 0,0 21.1,0.6 12.5,2.5 0,0 -4.7,-0.2 -8.7,0.9 -0.3,-0.2 -0.4,-0.2 0,0 -1.4,0.4 -2.6,1 -3.5,1.7 -1.5,0.1 -3.5,0.4 -6.1,1.1 0,0 -4.4,0.8 -6,-0.2 0,0 -3.3,2 2.5,1.9 0,0 6.2,0.8 1.6,2 0,0 -13.1,-1.9 -17,3.7 h 4.5 c 2.1,-1.2 6.5,-2.9 12.1,-1.8 l -0.2,1.2 0.1,0.6 h 2.5 l -0.1,-0.6 0.2,-1.1 c 0.9,-0.2 2,-0.8 2.4,-2.2 l 0.9,-0.2 c 1.9,0 3.5,1.6 3.5,3.5 l -0.1,0.6 h 2.5 l 0.1,-0.6 c 0,-2.3 -1.3,-4.3 -3.3,-5.3 2.4,-0.1 5.6,0.8 9.1,4.9 0,0 0.4,0.5 1,1 h 4.7 c -1.6,-0.9 -4.3,-2.6 -6.8,-4.7 2.5,0.8 5.6,1.3 9,0.2 2.3,0.6 6.7,1.5 11.1,1 1,0.6 2.3,1.6 2.8,3.5 h 3.4 c -0.2,-1.3 -0.8,-3.2 -3.3,-4.1 1,-0.3 2,-0.7 2.9,-1.2 0,0 9.5,-1.9 12.5,1.6 0,0 4.1,1.4 1.9,-3.2 0.1,0.2 -4,-6.3 -11.8,-7.9 z m -61.6,5.2 c -2.2,0 -3.9,-1.8 -3.9,-3.9 0,-2.2 1.8,-3.9 3.9,-3.9 2.2,0 3.9,1.8 3.9,3.9 0,2.2 -1.7,3.9 -3.9,3.9 z m 31.7,1.2 c 1.2,-0.6 3.1,-1.2 6.3,-1.4 0,0 5.8,-0.3 6.9,-4.3 0,0 -1.4,-0.8 -9.1,-0.5 0,0 -0.1,0 -0.4,0 1.2,-1.2 4.5,-3.7 11.9,-3.9 0,0 10.3,2.8 5.4,5.2 0,0 -3.8,1.9 -7.7,5 -0.1,0 -8.3,2.1 -13.3,-0.1 z m 21.9,3.1 c 0,0 -5.1,1 -8,-0.6 0.7,-0.4 1.3,-1 2,-1.6 0,0 3.4,-3.9 6.8,-5.4 3.1,-0.4 11.1,-0.7 14.5,5.2 0,0 -6.8,-0.8 -15.3,2.4 z m 99.1,1.4 c -12,-4.3 -13.2,-11.2 -13.2,-11.2 0,-0.6 -0.1,-1.1 -0.3,-1.6 l 0.7,-1 c 0.6,-1 0.9,-2.1 0.9,-3.3 0,-3.5 -2.8,-6.3 -6.3,-6.3 -3.5,0 -6.3,2.8 -6.3,6.3 0,1.5 0.5,2.8 1.4,3.9 -4.4,0.5 -10,-3.4 -10,-3.4 -4.1,-7.9 -13.6,-10.3 -13.6,-10.3 -5.2,0.3 -11.4,-4.1 -11.4,-4.1 -3.9,-4.2 -4.2,-0.3 -4.1,1.2 -1.4,0.6 -4.4,1.4 -6.9,-1.2 0,0 -3.6,-1.6 -2.4,3.9 0,0 0.4,2.7 1.8,5.1 -5.6,0.1 -10.9,-1.2 -10.9,-1.2 -6,-0.5 2.2,6.5 2.2,6.5 0.7,0.8 1.5,1.5 2.2,2.2 -3.3,0.6 -9.8,2 -4.6,3.7 0,0 7.9,2.4 10.7,7.9 0,0 5.5,4.7 10.1,3.3 0,0 -1.6,0.7 -1.5,3.6 h 2.5 c 0.6,-1.3 1.8,-3.6 3.5,-5 0,0 1.6,-0.9 -3.6,-0.6 0,0 -8.5,0.2 -14.7,-7.4 0,0 -2.4,-1.9 -4.9,-2.2 0,0 -1.4,-1.7 4.5,-1.4 9.6,7.4 19.6,7.5 24.8,6.9 -2.1,1.5 -5.3,4.4 -3.4,7.6 0,0 6.6,-7.6 13.2,-7.7 0,0 0.8,-2 -4.8,-1.4 4,-2.3 8,-1.9 8,-1.9 -0.3,-1.9 -0.7,-2.8 -0.9,-3.1 0,-0.1 0,-0.2 0,-0.2 -4.5,-8.6 -16.7,-10.6 -19.9,-11 -1.6,-0.9 -2.2,-1.7 -2.2,-1.7 -3.2,-4.6 0.3,-4.1 0.3,-4.1 2.8,2.7 8.5,3.6 8.5,3.6 6.9,0.8 11.8,6.3 11.8,6.3 4.3,6 9.8,7.1 9.8,7.1 5,1.9 6.2,3 6.2,3 4.1,3.9 3.6,-0.6 3.6,-0.6 0.3,-2.8 3.9,-0.9 3.9,-0.9 0.5,5.4 9,9.8 9,9.8 4.1,2.2 6.2,4 7.1,5 h 2.8 c -0.8,-2.3 -3.6,-4.1 -3.6,-4.1 z M 282.2,96.9 c -15.3,-2.8 -15.2,2.7 -15.2,2.7 6.7,-2.7 13.8,-0.2 16.9,1.3 -14.1,10.7 -31.4,-3.5 -31.4,-3.5 -7.6,-3.9 -4.7,-5 -4.7,-5 5.4,2 11.5,0.3 11.5,0.3 13.8,-3.4 20.4,1.3 22.9,4.2 z m -16.4,-8 c -2.1,0.1 -4.3,0.9 -5.2,1.3 -1.6,-0.7 -4.1,-2.2 -4.2,-5.5 0,0 -0.3,-2.4 1.7,0.6 0,0 3.7,1.1 5.9,0.4 0.5,1.4 1.2,2.5 1.8,3.2 z m 45.1,8.6 -0.4,0.5 c -1.6,-0.5 -3.8,0.1 -5,0.5 -1,-0.7 -1.5,-1.8 -1.5,-3 0,-2.1 1.7,-3.8 3.8,-3.8 2.1,0 3.8,1.7 3.8,3.8 -0.1,0.7 -0.3,1.4 -0.7,2 z M 148.1,279.7 c 0,0 -3,1 -6.5,4.2 -1.6,-1 -5.3,-4.3 -3.3,-13.5 0,0 -2,-7.1 -10.3,8 -1.5,-3 -5.3,-9.8 -8.8,-9.4 0,0 -1.6,-1.3 -1.1,3.2 0,0 1.1,8.5 -2,10.7 -0.3,-1.6 -0.4,-3.3 -0.1,-4.8 0,0 -0.1,-4.5 -2.7,-2.9 -0.5,-2.6 -0.7,-6.2 0.9,-9.4 1.4,-2.8 4,-4.7 7.7,-5.9 1.3,0.9 2.9,1.5 4.6,1.5 4.4,0 7.9,-3.5 7.9,-7.9 0,-4.3 -3.5,-7.9 -7.9,-7.9 -1,0 -2,0.2 -3,0.6 0.1,-0.2 0.3,-0.4 0.4,-0.6 2.2,-0.8 7.7,-3.3 11.7,-9.3 0,0 2.8,-6.3 5.2,-8 v 0 c -0.2,-0.9 -0.3,-1.9 -0.5,-2.8 0,-0.3 -0.1,-0.6 -0.1,-0.8 -0.1,-0.7 -0.2,-1.4 -0.3,-2.2 0,-0.3 -0.1,-0.6 -0.1,-1 -1.5,-0.1 -3.5,-0.1 -6.2,0.3 1.1,-2.5 2,-4.3 2,-4.3 5,-9.7 -3.2,-6.1 -3.2,-6.1 -1.1,0.5 -2.1,1.1 -3.1,1.6 0.2,-1.9 0.4,-5.4 -0.2,-9.6 0,0 -1.6,-6.5 2,-9 0.5,0.1 1,0.2 1.6,0.2 2,0 3.8,-0.8 5,-2.2 v -9.5 c -1.3,-1.3 -3.1,-2.2 -5,-2.2 -2.3,0 -4.4,1.2 -5.7,3 -1.8,-0.1 -4.3,0.4 -4.3,0.4 0.9,-3 3.3,-6.7 5.2,-9.4 2.1,-0.5 5.8,-0.7 9.7,2.2 V 174 c -2,-1.1 -4.8,-2 -8.3,-1.3 0.6,-0.8 1.1,-1.4 1.1,-1.4 1.5,-3.1 6,-1.1 7.2,-0.5 V 169 c -0.5,-0.7 -1.2,-1.2 -1.2,-1.2 0.4,-0.1 0.8,-0.2 1.2,-0.4 v -2.6 c -1.9,0.8 -3.7,0.9 -3.7,0.9 -0.2,-2.4 1.8,-5.9 3.7,-8.6 v -5.5 c -4,3.2 -7.7,8.5 -7.7,8.5 -0.2,-0.1 -0.5,-0.2 -0.7,-0.3 -0.1,-3.6 0.5,-13.2 8.4,-19 V 135 c -0.5,-1.3 -1.2,-2.7 -2,-3.9 0.5,-0.8 1.2,-1.8 2,-2.7 v -3.3 c -1.1,0.8 -2.3,2 -3.5,3.9 -1.7,-2.1 -3.3,-3.4 -3.3,-3.4 -4.7,-2.2 -3.9,0.9 -3.9,0.9 1.7,4.3 -1.4,9.8 -1.4,9.8 -2.9,2.9 -4,7.4 -4.4,11.6 -2.7,-2.1 -7.3,-2 -7.3,-2 -9.3,1.4 -3.5,4.6 -3.5,4.6 3.8,2.5 3.9,8 3.9,8 0.9,6.2 5.3,7.9 7,8.4 -1.5,6.2 -6.7,11.5 -6.7,11.5 -0.6,-1.4 -2.1,-3 -2.9,-3.7 -0.7,-3.6 -3.8,-6.3 -7.6,-6.3 -4.3,0 -7.7,3.5 -7.7,7.7 0,4.3 3.5,7.7 7.7,7.7 1.4,0 2.7,-0.4 3.9,-1.1 3.4,8.3 -0.9,13.9 -2.8,15.8 -0.9,-1.5 -1.9,-2.7 -3.1,-3 -0.2,-3.5 -1.5,-13.8 -10.1,-17.7 0,0 -6.6,-0.3 -1.4,6.1 0,0 2.1,8.2 -0.8,12 0,0 -1.5,2.8 -1.3,5.7 -0.7,-0.4 -1.4,-0.7 -2.1,-0.9 0,0 -2.7,-0.3 -0.8,5.2 0,0 0.9,9.5 -0.3,13.7 0,0 -0.2,3.1 0.6,7.5 -2.7,-1 -5.2,-0.2 -5.2,-0.2 -8.2,1.7 -5.5,5.5 -5.5,5.5 5.2,2.7 7.1,8.2 7.1,8.2 4.4,11.9 12.9,12.8 15.4,12.8 0.1,3.8 0.4,8 1.6,11.7 0,0 -2.3,-1.8 -5.7,-2.2 -1.2,-2.9 -4,-4.9 -7.3,-4.9 -4.3,0 -7.9,3.5 -7.9,7.9 0,4.3 3.5,7.9 7.9,7.9 2.5,0 4.8,-1.2 6.2,-3 1.9,0.7 8.2,3.5 10,12.1 -5.2,-3.6 -10.2,-4.2 -10.2,-4.2 -7.3,-1.7 0.9,10.9 0.9,10.9 0.2,0.6 0.4,1.3 0.6,1.9 -1.3,0.3 -4.4,0.3 -8.3,-3.8 0,0 -4.3,-4.4 -3.5,4.4 0,0 -0.4,5.3 7.5,18.8 -1,0.1 -2,0.2 -3,0.3 0,0 -6.9,4.3 0.5,5 0,0 10.3,3.5 13.4,13.6 0,0 5.8,7 10.8,8.7 l 2.1,-1.9 c -3.4,-1.2 -10.5,-4.4 -12.7,-11.8 0,0 -6.6,-8 -12.8,-11.2 0,0 13.9,-6 31.9,10.1 0,0 3.3,2.2 1.6,-2.2 0,0 -4.7,-7.4 -3.5,-11.2 0,0 2.8,1.7 6,11.7 0,0 0,1.6 1.3,0.5 0,0 -0.3,-8.7 -5.7,-15 0,0 -4.7,-5.8 -3.3,-13.2 0,0 -1.9,-2 -2.8,2.7 0,0 0,14.4 5.2,23 0,0 -1.7,-2.8 -6.4,-5.4 -2.2,-4.6 -6.9,-17 -0.5,-33.3 0,0 2.4,-6.3 3.2,1.3 0,0 0.9,10.6 9.1,17.3 0,0 6,6.8 5.5,16.1 0,0 3.5,2.7 3.2,-7.1 0,0 4.3,-22.9 14.7,-27.3 0,0 1.2,20.9 0.2,28 0.7,0 1.4,0 2.1,0.1 0.1,-6 0.8,-32 -1.4,-30 z m -61.6,-8.1 c -3,0 -5.4,-2.4 -5.4,-5.4 0,-3 2.4,-5.4 5.4,-5.4 3,0 5.4,2.4 5.4,5.4 0,3 -2.5,5.4 -5.4,5.4 z m 40,-23.6 c 3,0 5.4,2.4 5.4,5.4 0,3 -2.4,5.4 -5.4,5.4 -3,0 -5.4,-2.4 -5.4,-5.4 0.1,-3 2.5,-5.4 5.4,-5.4 z m 12.7,-24.3 c 0,0 3.3,-0.2 -1.8,6 0,0 -4.9,5.7 -5.7,7.3 0,0 -2.9,3.1 -5.5,4.6 1.9,-3.9 2.8,-7.6 2.8,-7.6 0.4,-2.5 1.9,-6.5 3.4,-9.9 1.9,-0.6 4.8,-1.2 6.8,-0.4 z m -8.4,-9 c 4.6,-3.4 4.2,-0.4 4.2,-0.4 -1.9,1.3 -5.9,11.1 -5.9,11.1 -2.5,17.6 -11.6,22 -15,23 2,-6.7 5.9,-16.9 12.7,-25.3 0,0 -4.4,3.1 -17.6,21.4 -4.2,-15.6 21.6,-29.8 21.6,-29.8 z M 119.4,250 c -0.2,0.5 -0.4,1.1 -0.6,1.7 -1.4,0.3 -3.7,1.3 -6.5,3.8 0,0 0.3,-1.7 1,-4.3 2.3,0.3 4.3,-0.2 6.1,-1.2 z m 5.7,-47.3 c -2.7,1.3 -7.6,8.6 -9.4,11.3 l -0.2,-0.2 c 0,0 -1,-2.5 -1.3,-5.2 2.4,-3 8,-9.4 13,-10.2 0,0 0,6.8 0.6,9.9 0,0 -0.2,3.9 -2.1,6.8 -2.5,1.6 -4.7,3.2 -6.6,4.9 -0.2,-0.7 -0.6,-1.5 -1.1,-2.5 1.2,-4.4 5.9,-11.7 5.9,-11.7 1.4,-2.8 1.2,-3.1 1.2,-3.1 z m 7.7,-19.5 c 2.4,0 4.4,2 4.4,4.4 0,2.4 -2,4.4 -4.4,4.4 -2.4,0 -4.4,-2 -4.4,-4.4 0,-2.5 2,-4.4 4.4,-4.4 z m -6.3,7.1 c 0.6,1.4 1.7,2.6 3.1,3.4 -3.4,1.6 -11.1,5.7 -15.3,11.5 0.1,-0.5 0.3,-1 0.6,-1.5 0,0 0.2,-1.2 -0.2,-1.9 1.8,-3.9 6.4,-12 11.8,-11.5 z m -1.4,-47.5 c 1.7,-2.2 4.1,-9 4.1,-9 1.6,-3.9 3,-2.5 3,-2.5 3.1,2.2 4,5.2 4.3,6.7 -4.2,3.2 -9.6,9.5 -9.5,21.5 -1.2,0.1 -1.9,0.6 -1.9,0.6 -0.5,-0.4 -1,-0.7 -1.5,-1 -2.2,-8.7 1.5,-16.3 1.5,-16.3 z m -7.7,17.7 c -0.9,-4.9 -2.7,-8.2 -2.7,-8.2 -4.6,-2.7 -1.6,-3.5 -1.6,-3.5 4.1,-0.7 6.9,1.2 8.1,2.3 0,2.8 0.2,5.3 0.4,6.7 -2.3,-1.4 -3.6,-2 -3.6,-2 3.4,2.9 4.2,6.4 3.8,9.8 -3.7,-0.6 -4.4,-5.1 -4.4,-5.1 z m -10.2,20.3 c -0.8,0.6 -1.8,0.9 -2.9,0.9 -2.9,0 -5.2,-2.3 -5.2,-5.2 0,-2.9 2.3,-5.2 5.2,-5.2 2.4,0 4.4,1.7 5,3.9 -3.3,1.5 -2.6,4.4 -2.1,5.6 z m 3.4,1.7 c -2.4,-1.3 -1.4,-3.5 -1.4,-3.5 2.5,-2.8 3.5,0.6 3.5,0.6 0.8,3.6 3,2 3,2 5.4,-8 9.8,-18.5 9.8,-18.5 0.5,-1.6 2.1,-0.6 2.1,-0.6 -0.5,3.2 1.3,2.5 1.3,2.5 3,-0.3 2.5,1.1 2.5,1.1 -2.2,2.7 -9.1,14.8 -9.1,14.8 -3.9,7.1 -1.6,6.5 -1.6,6.5 1.4,-2.7 4.2,-2.7 5.8,-2.4 -0.3,0.7 -0.4,1.5 -0.4,2.4 v 0.1 c -2.4,0.4 -8.1,2.7 -14.2,14.5 -0.9,0.6 -2.2,1.6 -3.7,3.1 -0.3,-0.9 -0.7,-2.5 -1.4,-4 8.6,-10.6 3.8,-18.6 3.8,-18.6 z m -4.6,24.8 c -1.4,1.7 -3.3,4.4 -5.1,8.4 -0.9,-1.6 -2.5,-4.4 -4.8,-7.1 0.9,-2.7 3.2,-9 5.3,-9.1 0,-0.1 3.6,-0.5 4.6,7.8 z M 95.4,183.5 c 0,0 6.4,4.4 4.5,13.4 -0.4,0.4 -0.9,0.9 -1.3,1.6 0,0 -2.4,4 -4.2,8.1 -0.8,-0.8 -1.6,-1.6 -2.5,-2.4 -0.2,-2.7 -0.2,-6.7 0.7,-8.7 0,0 3.3,-7.4 -0.3,-11.8 0,-0.1 -2.5,-4.2 3.1,-0.2 z m -8.3,35.6 c 0,0 3,-9.9 0.2,-13.1 0,0 -0.6,-2.7 3,0.9 0,0 7.2,6.5 9.2,12.6 -0.8,2.5 -1.5,5.2 -1.9,8.4 -1.3,-5.6 -4.4,-9.8 -4.4,-9.8 1.6,2.2 1.7,8.2 1.7,8.2 -0.2,1.8 1.3,5.2 2.2,6.9 -0.1,3.5 0.1,7.3 0.7,11.4 -3.4,-2.8 -11.9,-11.7 -10.7,-25.5 z m 10.8,33.5 c -6.3,0.1 -11.1,-7.9 -11.1,-7.9 -2.4,-5 -5.8,-10.3 -5.8,-10.3 -4.9,-2.7 -1.7,-3.8 -1.7,-3.8 2,-0.6 5.8,-0.1 7.6,0.1 1.5,5.7 4.6,12.6 11.2,18.1 -0.2,1.2 -0.2,2.5 -0.2,3.8 z m 13.3,-47.4 c 0,0 2.2,-2.2 1.6,3 0,0 -0.5,8.4 2.8,11 0,0 1,1.4 0.8,3.1 -5.3,5.4 -7.9,10.8 -9,15.1 -0.4,-4.3 -0.3,-10 1.9,-16.2 0,0 -2.9,0.4 -7.1,26.1 0,0 -0.8,0.3 -1.6,-0.3 -1.2,-4.3 -5.9,-25.8 10.6,-41.8 z M 93.8,311.1 c -2.1,-1.9 -9.4,-9.2 -10.3,-19.4 0,0 -0.2,-2.2 2.5,0 0,0 4.9,3.9 8.7,2.8 1.1,4.9 1.2,9.5 1.2,9.5 -2.4,-2.8 -3.2,-2.2 -3.2,-2.2 -0.3,2.8 4.4,8.1 5.7,9.5 -1.4,-0.2 -3,-0.3 -4.6,-0.2 z m 15.7,2.5 c -2.1,-0.8 -4.5,-1.6 -7.5,-2 -3.2,-3.2 -3.8,-8.3 -3.8,-8.3 -2.1,-13.4 -4.6,-17.7 -4.6,-17.7 -2.2,-3.9 -0.2,-4.2 -0.2,-4.2 4.3,0.8 7.5,3 9.7,5.2 v 0.1 h 0.1 c 1.5,1.5 2.6,3.1 3.2,4 -0.3,1.6 -0.5,3.4 -0.5,5.2 -4,-4.9 -4.2,-2.6 -4.2,-2.6 1.7,0.8 3.3,4.2 4.3,7 0.3,4.2 1.3,8.6 3.5,13.3 z m 2.5,-49 c -2.3,4.7 -1.5,9.9 -0.7,12.7 -1,1.6 -2.9,5.1 -4.2,9.9 -0.5,-0.6 -1.1,-1.1 -1.6,-1.6 -0.9,-11.3 -8.7,-15.5 -11.6,-16.6 0.3,-0.8 0.5,-1.7 0.5,-2.6 0,-0.1 0,-0.3 0,-0.4 1.9,0.5 5.3,1.8 8.1,4.5 0,0 1.7,-1.1 -2.5,-20 0,0 2.1,3.6 3.6,4.2 0,0 2.3,-4.6 2.9,-17.7 0,0 -0.4,15.1 2.1,15.8 0,0 1.5,-4 3.4,-7.8 0,0 -2.9,9.9 -2.9,17.9 0,0 1.5,-0.2 2.1,-2.7 0,0 4.1,-5.2 7.6,-6.4 0.1,1.5 0.5,2.9 1.3,4.1 -3.9,1.3 -6.6,3.6 -8.1,6.7 z m 11.4,31.5 c -1,-1.2 -2.1,-2.5 -3.2,-3.8 0,0 -1.4,-2 -2.6,-4.8 0.8,-3.4 2.5,-11 2.3,-14.7 0,0 0,-3 2.7,1.6 0,0 2.8,3.2 3.1,8.6 -1,2.4 -2.3,6.9 -2.3,13.1 z m 9.6,1.4 c 0,0 -1.6,-9.1 1.2,-12.9 0,0 -3.8,-0.6 -5,18.4 0,0 -1.6,-2 -3.9,-4.8 0.3,-5.3 1.8,-21.1 10.7,-25.2 0,0 1.3,-1.7 0.5,5.2 0,0 0.8,5.8 2.3,9.1 -2.3,2.5 -4.3,5.8 -5.8,10.2 z M 342.1,110.9 c -3.6,-1.1 -7.6,-4.7 -7.6,-4.7 -2.5,-3.5 -4.1,-2.5 -4.1,-2.5 -3.5,0.9 -1.7,6.1 -1.7,6.1 1.8,2.3 2.3,5.1 2.4,6.7 h 1.8 c -0.2,-2 -1,-4.4 -1,-4.4 -2.4,-5 -0.2,-5.4 -0.2,-5.4 0.6,1.4 2.8,2 2.8,2 5.8,1.9 9.4,5.8 10.8,7.7 h 2.7 c -1.3,-2.5 -5.9,-5.5 -5.9,-5.5 z" />
	<path
   id="XMLID_510_"
   d="m 386.7,337.2 -23.1,-22 c -3.2,-3.4 -11.1,-8.4 -18.1,-2.4 -0.1,0.1 -2.1,1.9 -2.2,4.5 0,0.1 0,0.2 0,0.3 0,1.6 0.7,3.1 2,4.5 0.2,0.1 0.4,0.3 0.5,0.4 -11.5,-0.7 -17,5.2 -17.3,5.5 -2.8,2.7 -4.1,5.4 -3.7,8 0.5,3.4 3.8,5.1 3.9,5.2 l 0.4,0.2 0.4,-0.1 c 1.3,-0.3 2,0.2 2.1,0.2 1.2,1.1 1.9,2.1 1.9,2.8 v 0.2 c -0.2,0.8 -1.6,1.5 -2.3,1.7 -5.6,-0.5 -9.4,2.1 -9.6,2.2 -0.5,0.4 -27.7,22.4 -67.7,23.7 -2.1,1.3 -3.3,1.9 -3.3,1.9 l -0.8,0.4 -0.8,-0.4 c 0,0 -1.2,-0.7 -3.4,-2 -20.2,-0.9 -43.2,-7.3 -67.3,-24.2 0,0 -3,-2.5 -10,-2 -0.5,-0.1 -1.8,-0.6 -2.1,-1.4 0,-0.1 -0.1,-0.2 -0.1,-0.3 0,-0.6 0.4,-1.3 1.1,-2.2 0,-0.1 0.7,-0.8 3.1,-0.4 h 0.2 0.2 c 0.1,0 3.3,-0.4 4.5,-3 1,-2.2 0.3,-5.1 -2.2,-8.6 -0.4,-0.5 -8.2,-8.7 -18.2,-7.8 0.7,-1.4 1,-2.9 1,-4.3 0,-2 -0.4,-3.6 -0.4,-3.7 v -0.2 l -0.1,-0.1 c -4,-7.3 -14.3,-2.6 -14.7,-2.4 l -0.2,0.1 -29.5,27.8 -0.1,0.2 c -0.1,0.1 -5.9,11.2 6.5,19.9 0.5,0.3 8.5,4.7 14.2,-0.3 l 4.5,-5.4 c 0.9,0.1 3.7,0.9 4.7,4.9 l -5.2,6 -0.1,0.2 c -0.1,0.2 -1.4,3 -1.4,6.7 0,1.7 0.3,3.7 1.2,5.5 1.9,4 5.8,6.8 11.7,8.3 0.1,0 5.6,1.4 11.5,6.8 1,0.8 91.2,65.3 189.6,-4.2 l 0.1,-0.1 0.1,-0.1 c 0.1,-0.1 2.2,-2.5 8,-2.7 h 0.2 l 0.2,-0.1 c 0.3,-0.1 6.6,-2.1 9.2,-7.9 0.7,-1.5 1,-3.1 1,-4.9 0,-2.5 -0.7,-5.1 -2,-7.9 l -0.1,-0.1 -0.1,-0.1 c -0.3,-0.3 -2.7,-3.2 -5.9,-7 0.7,-1.2 2.1,-3.1 4.9,-3.5 l 3.6,4.5 c 3,2.8 10.1,6.2 16.5,0 0.2,-0.1 6.5,-5.1 7.1,-11.8 -0.3,-3.1 -1.5,-6.2 -4.1,-9 z m -249.3,14.5 16.2,-19.5 c 0.5,-0.6 4.9,-5.3 11.5,0.2 0.6,0.5 1.2,1.1 1.4,1.5 -0.2,0.1 -0.6,0.3 -1.8,0.3 h -0.2 l -0.2,0.1 c -0.1,0.1 -3.5,1.4 -6.3,4.5 l -15.5,17.8 c -1.4,-2.8 -3.4,-4.3 -5.1,-4.9 z m 219.1,3.5 c -6.1,-7.1 -14,-16.1 -16.3,-17.9 0,0 -1.5,-1.3 -4.4,-2.4 l -0.2,-0.1 h -0.2 c -1.3,-0.1 -2.7,-0.5 -3,-0.8 0.1,-0.2 0.5,-1 3.3,-2.7 0.2,-0.1 5.5,-3.1 11.3,1.9 l 14.4,18.2 c -2.5,0.9 -4,2.4 -4.9,3.8 z m 31.3,-9 c -0.4,5.6 -6.2,10 -6.2,10.1 -6.4,6.2 -12.8,0.5 -13,0.2 l -19.7,-24.9 c -7.4,-6.4 -14.3,-2.4 -14.4,-2.4 -2.2,1.3 -4.5,3 -4.5,4.9 0,0.2 0,0.4 0.1,0.6 0.5,2.2 3.8,2.6 5.1,2.7 2.3,0.8 3.5,1.9 3.5,1.9 2.1,1.7 10,10.5 16.7,18.4 v 0.1 h 0.1 c 2.5,2.9 4.9,5.7 6.7,7.9 1.1,2.4 1.7,4.7 1.7,6.7 0,1.4 -0.3,2.7 -0.8,3.8 -2,4.7 -7.4,6.4 -7.6,6.5 -6.2,0.3 -8.8,2.8 -9.4,3.4 -96.8,68.3 -185.6,4.9 -186.5,4.2 -6.2,-5.7 -12.2,-7.2 -12.4,-7.3 -5.1,-1.3 -8.5,-3.7 -10,-6.9 -0.7,-1.5 -0.9,-3.1 -0.9,-4.5 0,-2.9 0.9,-5.1 1.1,-5.5 0.3,-0.3 22.4,-25.7 22.4,-25.7 2.3,-2.5 4.9,-3.6 5.3,-3.8 1.6,-0.1 3.5,-0.4 4,-2 0.1,-0.2 0.1,-0.4 0.1,-0.7 0,-1.6 -1.8,-3.1 -2.4,-3.6 -8.6,-7.2 -14.9,0.1 -15,0.2 l -22.3,26.9 c -4.2,3.6 -11,0 -11,-0.1 -5.4,-3.9 -6.8,-8.2 -6.8,-11.4 0,-2.7 0.9,-4.6 1.1,-5 0.3,-0.3 28.6,-26.9 28.9,-27.2 0.8,-0.3 8.4,-3.5 11.2,1.3 0.1,0.6 0.3,1.7 0.3,2.9 0,1.5 -0.3,3.1 -1.1,4.1 -0.3,0.4 -0.8,0.7 -1.2,0.9 h -0.2 v 0.1 c -0.5,0.2 -1,0.3 -1.6,0.3 -2.9,-0.2 -3.5,-3.2 -3.5,-3.2 -0.9,-2.9 1.4,-2.4 1.4,-2.4 l 0.1,0.1 c 1.6,-1.1 -1.5,-1.8 -1.5,-1.8 -3.3,0.2 -3.6,3.8 -3.6,3.8 1.2,4.7 4.8,5.7 6,6 v 0.1 c 0.1,0 0.3,0 0.4,0 v 0 0 c 1.3,0 2.4,-0.2 3.4,-0.6 10.3,-3.3 19.1,6.2 19.1,6.3 1.4,2 2.1,3.7 2.1,5 0,0.4 -0.1,0.7 -0.2,1 -0.6,1.2 -2.2,1.5 -2.4,1.5 -3.8,-0.6 -5.1,1.1 -5.2,1.4 -1.4,1.7 -1.9,3.3 -1.4,4.8 0.8,2.3 3.7,3 4.1,3.1 h 0.2 0.2 c 6,-0.6 8.5,1.4 8.5,1.4 79.1,55.2 145.8,1.1 146.5,0.5 0,0 3.3,-2.2 8.1,-1.7 h 0.2 l 0.2,-0.1 c 0.4,-0.1 3.7,-1 4.3,-3.6 0.4,-1.7 -0.5,-3.6 -2.7,-5.5 -0.2,-0.1 -1.5,-1.1 -3.7,-0.8 -0.6,-0.4 -2.1,-1.4 -2.3,-3.1 0,-0.2 0,-0.3 0,-0.5 0,-1.6 1.1,-3.4 3.1,-5.4 0.3,-0.3 5.8,-6.4 18.1,-4.5 3.2,0.9 4.3,0 4.3,0 9.9,-6.5 2,-9.3 2,-9.3 -4.5,0.4 -1.9,1.9 -1.9,1.9 1.7,-0.3 1.6,1.7 1.6,1.7 0.5,4 -2.3,4 -3.9,3.7 -0.4,-0.6 -1.4,-1.5 -3.6,-3 -0.7,-0.8 -1.2,-1.8 -1.1,-2.8 0.1,-1.6 1.4,-2.8 1.4,-2.8 6.8,-5.9 14.3,1.9 14.6,2.3 l 23.1,22 c 1.9,2.4 2.9,4.8 2.7,7.4 z" />
	<path
   id="XMLID_606_"
   class="st2"
   d="m 321.4,348.6 v 0 l -1.6,1.2 c 0.8,-0.6 1.3,-1 1.6,-1.2 z m 71.4,-168.1 c 0.8,0.6 1.8,0.9 2.9,0.9 0.2,0 0.3,0 0.4,0 0.8,-0.2 1.5,-0.7 2.1,-1.3 2,-2 2,-5.3 0,-7.4 -1,-1 -2.3,-1.5 -3.7,-1.5 -0.2,0 -0.3,0 -0.5,0 -1.7,0.5 -3,1.9 -3.4,3.6 3.4,1.6 2.7,4.6 2.2,5.7 z m -8.4,1 c -5.4,-8 -9.8,-18.5 -9.8,-18.5 -0.5,-1.6 -2,-0.6 -2,-0.6 0.5,3.2 -1.3,2.5 -1.3,2.5 -3,-0.3 -2.5,1.1 -2.5,1.1 2.2,2.7 9.1,14.8 9.1,14.8 3.9,7.1 1.6,6.5 1.6,6.5 -1.4,-2.7 -4.2,-2.7 -5.8,-2.4 0.3,0.7 0.4,1.5 0.4,2.4 v 0.1 c 2.4,0.4 8.1,2.7 14.2,14.5 0.9,0.6 2.2,1.6 3.7,3 0.3,-0.9 0.7,-2.4 1.4,-4 -8.8,-10.8 -4,-18.7 -4,-18.7 h 0.1 c -0.1,-0.1 -0.3,-0.2 -0.4,-0.4 l 1.8,-1.8 0.2,0.1 c 0.1,-0.8 -0.2,-1.4 -0.2,-1.4 -2.5,-2.8 -3.5,0.6 -3.5,0.6 -0.8,3.8 -3,2.2 -3,2.2 z m 17,16.7 c 0,0 2.4,4 4.2,8.1 0.8,-0.8 1.6,-1.6 2.5,-2.4 0.2,-2.7 0.2,-6.7 -0.7,-8.7 0,0 -3.3,-7.4 0.3,-11.8 0,0 2.5,-4.1 -3.2,-0.2 0,0 -6.4,4.4 -4.5,13.4 0.5,0.4 0.9,0.9 1.4,1.6 z m -2.8,1 c 0,0 -3.6,-0.4 -4.6,7.9 1.4,1.7 3.3,4.4 5.1,8.4 0.9,-1.6 2.5,-4.4 4.8,-7.1 -0.9,-2.8 -3.2,-9.1 -5.3,-9.2 z m -28.7,-39.1 c 0.2,-0.1 0.5,-0.2 0.7,-0.3 0.1,-3.7 -0.5,-13.6 -9,-19.3 v 10.7 c 4.2,3.1 8.3,8.9 8.3,8.9 z m -5.7,-29 c -0.6,-0.9 -1.4,-2.2 -2.5,-3.2 v 8.5 l 0.1,0.1 c 0.2,-1.8 1.2,-3.7 2.4,-5.4 z m 23,76.9 c 0,0 0.5,8.4 -2.8,11 0,0 -1,1.4 -0.8,3.1 5.3,5.4 7.9,10.8 9,15.1 0.4,-4.3 0.3,-10 -1.9,-16.2 0,0 2.9,0.4 7.2,26.1 0,0 0.8,0.3 1.6,-0.3 1.2,-4.4 5.8,-26 -10.6,-41.9 -0.1,0.1 -2.3,-2.1 -1.7,3.1 z M 373,159.3 c 1.2,0.1 1.9,0.6 1.9,0.6 0.5,-0.4 1,-0.7 1.5,-1 2.2,-8.7 -1.5,-16.3 -1.5,-16.3 -1.7,-2.2 -4.1,-9 -4.1,-9 -1.6,-3.9 -3,-2.5 -3,-2.5 -3.1,2.2 -4,5.2 -4.3,6.7 4.2,3.1 9.6,9.5 9.5,21.5 z m 5.2,6 c 3.7,-0.5 4.5,-5 4.5,-5 0.9,-4.9 2.7,-8.2 2.7,-8.2 4.6,-2.7 1.6,-3.5 1.6,-3.5 -4.1,-0.7 -6.9,1.2 -8.1,2.3 0,2.8 -0.2,5.3 -0.4,6.7 2.3,-1.4 3.6,-2 3.6,-2 -3.5,2.8 -4.3,6.3 -3.9,9.7 z m 15.9,134.9 c -0.4,4.1 -1.4,8.5 -3.6,13.2 2.1,-0.8 4.5,-1.6 7.5,-2 3.2,-3.2 3.8,-8.3 3.8,-8.3 2.1,-13.4 4.6,-17.7 4.6,-17.7 2.2,-3.9 0.2,-4.2 0.2,-4.2 -4.3,0.8 -7.5,3 -9.7,5.2 v 0.1 h -0.1 c -1.5,1.5 -2.6,3.1 -3.2,4 0.3,1.6 0.5,3.4 0.5,5.2 4,-4.9 4.2,-2.6 4.2,-2.6 -1.6,0.9 -3.2,4.3 -4.2,7.1 z M 361.6,156.3 v 8.2 c 2.1,1 4.2,1.1 4.2,1.1 0.3,-2.7 -2.1,-6.6 -4.2,-9.3 z m 36,113.8 c 0,0 -1.7,-1.1 2.5,-20 0,0 -2.1,3.6 -3.6,4.2 0,0 -2.3,-4.6 -2.9,-17.7 0,0 0.4,15.1 -2.1,15.8 0,0 -1.5,-4 -3.4,-7.8 0,0 2.9,9.9 2.9,17.9 0,0 -1.5,-0.2 -2.1,-2.7 0,0 -4.1,-5.2 -7.6,-6.4 -0.1,1.5 -0.5,2.9 -1.4,4.1 3.8,1.4 6.5,3.7 8,6.8 2.3,4.7 1.5,9.9 0.7,12.7 1,1.6 2.9,5.1 4.2,9.9 0.5,-0.6 1.1,-1.1 1.6,-1.6 0.8,-10.1 7.1,-14.5 10.5,-16.2 -0.4,-0.9 -0.6,-1.9 -0.6,-2.9 0,-0.1 0,-0.2 0,-0.3 -1.7,0.8 -4.4,2 -6.7,4.2 z m -17.8,22 c 0,0 1.4,-2 2.6,-4.8 -0.8,-3.4 -2.5,-11 -2.3,-14.7 0,0 0,-3 -2.7,1.6 0,0 -2.8,3.2 -3.1,8.6 1,2.6 2.3,7 2.3,13.2 1,-1.3 2.1,-2.6 3.2,-3.9 z m -8.9,10.6 c 0,0 1.6,-2 3.9,-4.8 -0.3,-5.3 -1.8,-21.1 -10.7,-25.3 0,0 -1.3,-1.7 -0.5,5.2 0,0 -0.8,5.8 -2.3,9.1 2.1,2.6 4.1,5.9 5.6,10.3 0,0 1.6,-9.1 -1.2,-12.9 0.2,0 3.9,-0.6 5.2,18.4 z m 31.6,-75 c 1.3,-5.6 4.4,-9.8 4.4,-9.8 -1.6,2.2 -1.7,8.2 -1.7,8.2 0.2,1.8 -1.3,5.2 -2.2,6.9 0.1,3.5 -0.1,7.3 -0.7,11.4 3.4,-2.9 11.8,-11.8 10.6,-25.6 0,0 -3,-9.9 -0.2,-13.1 0,0 0.6,-2.7 -3,0.9 0,0 -7.2,6.5 -9.2,12.6 0.9,2.6 1.6,5.4 2,8.5 z m -18.2,-13.9 0.2,-0.2 c 0,0 1,-2.5 1.3,-5.2 -2.4,-3 -8,-9.4 -13,-10.2 0,0 0,6.8 -0.6,9.9 0,0 0.2,3.9 2.1,6.8 2.5,1.6 4.7,3.2 6.6,4.9 0.2,-0.7 0.6,-1.5 1.1,-2.5 -1.2,-4.4 -5.9,-11.7 -5.9,-11.7 -1.4,-2.7 -1.3,-3 -1.3,-3 2.8,1.2 7.7,8.4 9.5,11.2 z m -13.4,11.3 c 2.5,17.6 11.6,22 15,23 -2,-6.7 -5.9,-16.9 -12.7,-25.3 0,0 4.4,3.1 17.6,21.4 4.2,-15.6 -21.6,-29.9 -21.6,-29.9 -4.6,-3.4 -4.2,-0.4 -4.2,-0.4 1.9,1.4 5.9,11.2 5.9,11.2 z m 0.8,23 c -2.1,0.7 -3.6,2.7 -3.6,5.1 0,3 2.4,5.4 5.4,5.4 0.3,0 0.6,0 0.8,-0.1 2.1,-0.7 3.6,-2.7 3.6,-5.1 0,-3 -2.4,-5.4 -5.4,-5.4 -0.2,0 -0.5,0 -0.8,0.1 z m -0.5,-58.9 c 0.2,-0.5 0.3,-1.1 0.3,-1.6 0,-2.4 -2,-4.4 -4.4,-4.4 -1.8,0 -3.3,1 -4,2.5 -0.2,0.5 -0.3,1.1 -0.3,1.6 0,2.4 2,4.4 4.4,4.4 1.7,0.1 3.3,-1 4,-2.5 z m -30.4,133.5 c 0.4,-3.7 0.1,-5.5 -0.2,-6.4 -0.6,0.7 -1.4,1.3 -2.3,1.7 0.8,1.5 0.6,3.6 0.3,5 0.7,-0.1 1.4,-0.2 2.2,-0.3 z M 288,365.9 c 0.8,-0.3 1.5,-0.5 2.3,-0.8 -0.2,-1.1 0.3,-2.7 0.3,-2.7 -1.2,0.9 -2.3,2.9 -2.6,3.5 z m 75.4,-198.3 c -0.6,-0.2 -1.2,-0.4 -1.8,-0.6 v 2.9 c 0.2,-1.2 1.8,-2.3 1.8,-2.3 z m 4.9,69.1 c 0,0 2.9,3.1 5.5,4.6 -1.9,-3.9 -2.8,-7.6 -2.8,-7.6 -0.4,-2.5 -1.9,-6.5 -3.4,-9.9 -1.8,-0.6 -4.7,-1.2 -6.7,-0.4 0,0 -3.3,-0.2 1.8,6 -0.1,0.1 4.8,5.7 5.6,7.3 z M 204,345 c -1.3,-3.8 -2.7,-0.8 -2.7,-0.8 -3.2,5.6 -0.7,13.7 0.6,17.2 1.4,0.6 2.8,1.2 4.2,1.8 0.1,-2.5 0.2,-9.2 -2.4,-11.5 0,0 -0.3,-3.2 4.1,2.5 0,0 4.5,6 5.4,11.6 1.7,0.6 3.5,1.1 5.2,1.6 0.8,-4.6 -2.2,-8.2 -2.2,-8.2 C 211.4,355.4 204,345 204,345 Z m -12,-1.9 c 0,0 1.3,-0.2 2.4,4.7 0,0 1.3,4.6 3.9,5.3 -0.1,-2.6 0,-5.1 0.2,-7 -1.9,-4.7 -7.4,-10.9 -7.4,-10.9 -4.9,-5 -3.3,0.2 -3.3,0.2 1.4,2.8 1.1,6 1.1,6 -2.3,3.9 -1.8,9.8 -1.5,12.5 2.5,1.5 4.9,2.8 7.4,4.1 -0.3,-2.5 -1.1,-8.8 -2.2,-10.3 -0.2,0 -1.3,-2.6 -0.6,-4.6 z M 370.5,172.5 c -0.6,-0.8 -1.1,-1.4 -1.1,-1.4 -1.7,-3.6 -7.6,-0.3 -7.6,-0.3 -0.1,-0.2 -0.2,-0.3 -0.2,-0.5 v 3.8 c 2.1,-1.3 5,-2.4 8.9,-1.6 z m -159.3,-66 c -3.2,0.3 -5.1,0.8 -6.3,1.4 5,2.2 13.2,0.1 13.2,0.1 3.9,-3.2 7.7,-5 7.7,-5 4.9,-2.4 -5.4,-5.2 -5.4,-5.2 -7.5,0.2 -10.7,2.7 -11.9,3.9 0.3,0 0.4,0 0.4,0 7.7,-0.3 9.1,0.5 9.1,0.5 -1,4 -6.8,4.3 -6.8,4.3 z m 99,234.7 c 0,0 -0.3,-3.2 1.1,-6 0,0 1.5,-5.2 -3.3,-0.2 0,0 -5.4,6.2 -7.3,10.9 0.1,1.9 0.2,4.4 0.2,7 2.6,-0.7 3.9,-5.3 3.9,-5.3 1.1,-4.9 2.3,-4.7 2.3,-4.7 0.6,2.1 -0.5,4.6 -0.5,4.6 -1.4,1.9 -2.3,11.4 -2.3,11.4 l -2.2,1.3 c 4.6,-2.2 8.4,-4.4 11.5,-6.2 l -2.1,1.2 c 0,-0.1 1.7,-8.8 -1.3,-14 z m 9.8,2.7 c 1.7,-2.7 0,-2.7 0,-2.7 -2.7,-0.1 -5,2.6 -6.4,4.5 0.1,1.2 0.3,2.2 0.6,2.8 0,0 1.2,1.4 0.9,4.4 1.9,-1.2 3.4,-2.3 4.5,-3 -1.2,-1.8 0.4,-6 0.4,-6 z m -24.6,0.9 c 0,0 -7.3,10.4 -11.9,14.4 0,0 -3.2,3.8 -2.1,8.7 1.7,-0.5 3.3,-1 4.9,-1.5 0.6,-5.8 5.4,-12.3 5.4,-12.3 4.3,-5.7 4,-2.5 4,-2.5 -3,2.6 -2.4,11.1 -2.3,12.3 1.3,-0.5 2.5,-1 3.6,-1.5 1,-2.4 4.5,-12.1 1,-18.4 0,0.1 -1.4,-2.9 -2.6,0.8 z m -18.7,17.7 c -4.5,-4.6 -4.2,7.3 -4.2,7.3 l -0.1,0.2 c 2.1,-0.4 4.1,-0.9 6.1,-1.4 -0.1,-4.7 -1.8,-6.1 -1.8,-6.1 z M 137.9,169 v -1.6 c -0.4,0.1 -0.8,0.3 -1.2,0.4 -0.1,0.1 0.6,0.6 1.2,1.2 z m -23.6,36.2 c 4.2,-5.7 11.9,-9.8 15.3,-11.5 -1.4,-0.7 -2.5,-1.9 -3.1,-3.4 -5.3,-0.5 -9.9,7.6 -11.8,11.5 0.4,0.7 0.2,1.9 0.2,1.9 -0.3,0.4 -0.5,0.9 -0.6,1.5 z m -13.7,42 c 0.8,0.6 1.6,0.3 1.6,0.3 4.2,-25.7 7.1,-26.1 7.1,-26.1 -2.2,6.1 -2.3,11.9 -1.9,16.2 1.1,-4.4 3.7,-9.7 9,-15.1 0.2,-1.7 -0.8,-3.1 -0.8,-3.1 -3.3,-2.7 -2.8,-11 -2.8,-11 0.6,-5.2 -1.6,-3 -1.6,-3 -16.5,15.8 -11.8,37.3 -10.6,41.8 z m 0.8,-47.8 c -2.1,0.1 -4.4,6.4 -5.3,9.1 2.3,2.8 3.9,5.6 4.8,7.1 1.7,-3.9 3.7,-6.7 5.1,-8.4 -1,-8.2 -4.6,-7.8 -4.6,-7.8 z m 36.5,-42.2 c -1.9,2.7 -3.9,6.2 -3.7,8.6 0,0 1.8,-0.2 3.7,-0.9 z m -2.9,57 c 0,0 0.4,-2.9 -4.2,0.4 0,0 -25.7,14.3 -21.6,29.9 13.2,-18.3 17.6,-21.4 17.6,-21.4 -6.8,8.5 -10.7,18.7 -12.7,25.3 3.5,-1.1 12.5,-5.5 15,-23 0,0 4,-9.9 5.9,-11.2 z M 132.8,192 c 2.4,0 4.4,-2 4.4,-4.4 0,-2.4 -2,-4.4 -4.4,-4.4 -2.4,0 -4.4,2 -4.4,4.4 0,2.4 2,4.4 4.4,4.4 z m 5.1,-51 c -7.9,5.8 -8.5,15.3 -8.4,19 0.2,0.1 0.5,0.2 0.7,0.3 0,0 3.8,-5.3 7.7,-8.5 z m -8.4,31.7 c 3.5,-0.7 6.3,0.2 8.3,1.3 v -3.1 c -1.2,-0.6 -5.8,-2.6 -7.2,0.5 0,-0.1 -0.4,0.5 -1.1,1.3 z m -9.5,85.1 c -0.8,-1.2 -1.3,-2.6 -1.3,-4.1 -3.5,1.3 -7.6,6.4 -7.6,6.4 -0.6,2.5 -2.1,2.7 -2.1,2.7 0,-8 2.9,-17.9 2.9,-17.9 -1.9,3.8 -3.4,7.8 -3.4,7.8 -2.5,-0.6 -2.1,-15.8 -2.1,-15.8 -0.6,13 -2.9,17.7 -2.9,17.7 -1.5,-0.6 -3.6,-4.2 -3.6,-4.2 4.2,18.9 2.5,20 2.5,20 -2.7,-2.7 -6.2,-4 -8.1,-4.5 0,0.1 0,0.3 0,0.4 0,0.9 -0.2,1.8 -0.5,2.6 2.9,1.2 10.6,5.3 11.6,16.6 0.5,0.5 1.1,1 1.6,1.6 1.3,-4.8 3.2,-8.3 4.2,-9.9 -0.8,-2.8 -1.6,-8.1 0.7,-12.7 1.6,-3 4.3,-5.3 8.1,-6.7 z m 38.4,58.1 c -0.3,0.8 -0.6,2.5 -0.3,6.4 0.5,0.1 1,0.1 1.5,0.2 -0.1,-1.5 -0.1,-3.6 0.5,-5 -0.6,-0.4 -1.2,-1 -1.7,-1.6 z m -4.3,-204.6 c -0.5,1.6 -3.1,4 -4.6,5.3 h 5.7 c 1.5,-3.9 -1.1,-5.3 -1.1,-5.3 z m 10.2,195 c -2.7,0 -5,2.2 -5,5 0,2.7 2.2,5 5,5 2.7,0 5,-2.2 5,-5 0,-2.7 -2.3,-5 -5,-5 z m 24.5,-195.5 c -5.8,0.2 -2.5,-1.9 -2.5,-1.9 1.6,0.9 6,0.2 6,0.2 2.6,-0.7 4.5,-1 6.1,-1.1 0.9,-0.8 2.2,-1.3 3.5,-1.7 -0.4,-0.2 -0.3,-0.2 0,0 3.9,-1.2 8.7,-0.9 8.7,-0.9 8.7,-1.9 -12.5,-2.5 -12.5,-2.5 1.2,-0.8 3.4,-1.1 5.6,-1.2 5.6,-4.3 14,-5.1 14,-5.1 11,0.5 11.7,4.9 11.7,4.9 v 0.1 c 0.5,-0.1 0.9,-0.1 1.4,-0.1 2.1,-0.6 4.8,-1.8 5.6,-4.1 0,0 0.6,-1.3 -2.7,-1.3 0,0 -2.4,-1.4 -4.3,-2.8 0,0 -12.5,-6 -27,6.3 0,0 -1.3,0.2 2.2,-3.5 0,0 3.9,-3 6.8,-4.6 0,0 2.8,-1.6 1.4,-3.2 0,0 -0.6,-1.7 -3.6,1.6 0,0 -1.9,1.3 -4.4,1.1 0,0 -6.5,2.1 -9.1,10.1 0,0 -1.7,2.5 -9.8,3.8 0,0 -3.6,1.9 -6.3,3.5 0,0 -2.5,1.6 -2.2,-0.4 -1.1,0.9 -2.6,1.5 -4.1,1.5 -0.2,0 -0.3,0 -0.5,0 -0.4,3.4 -4.4,6 -6.8,7.2 h 7.5 c 3.9,-5.6 17,-3.7 17,-3.7 4.5,-1.4 -1.7,-2.2 -1.7,-2.2 z m -83,185.2 c 0.1,-1.9 0.2,-3.6 0.5,-5.2 -0.6,-1 -1.7,-2.5 -3.2,-4 H 103 v -0.1 c -2.2,-2.2 -5.4,-4.4 -9.7,-5.2 0,0 -2,0.3 0.2,4.2 0,0 2.5,4.3 4.6,17.7 0,0 0.6,5.1 3.8,8.3 3,0.5 5.4,1.2 7.5,2 -2.1,-4.7 -3.2,-9.2 -3.6,-13.2 -1,-2.8 -2.6,-6.2 -4.3,-7 0.1,-0.1 0.2,-2.4 4.3,2.5 z m 20.7,-37.3 c 3,0 5.4,-2.4 5.4,-5.4 0,-3 -2.4,-5.4 -5.4,-5.4 -3,0 -5.4,2.4 -5.4,5.4 0.1,3 2.5,5.4 5.4,5.4 z M 140,222.5 c 0.1,0.9 0.3,1.9 0.4,2.8 -0.2,-0.9 -0.3,-1.8 -0.4,-2.8 z m -7,75 c 1.5,-4.4 3.6,-7.7 5.6,-10.3 -1.5,-3.2 -2.3,-9.1 -2.3,-9.1 0.8,-6.9 -0.5,-5.2 -0.5,-5.2 -8.9,4.2 -10.4,20 -10.7,25.2 2.4,2.9 3.9,4.8 3.9,4.8 1.3,-19 5,-18.4 5,-18.4 -2.6,3.9 -1,13 -1,13 z m -0.5,-73.4 c -1.5,3.4 -3,7.4 -3.4,9.9 0,0 -0.9,3.6 -2.8,7.6 2.6,-1.5 5.5,-4.6 5.5,-4.6 0.8,-1.6 5.7,-7.3 5.7,-7.3 5,-6.2 1.8,-6 1.8,-6 -2.1,-0.8 -5,-0.2 -6.8,0.4 z m 0,85.1 c 0.3,9.8 -3.2,7.1 -3.2,7.1 0.5,-9.3 -5.5,-16.1 -5.5,-16.1 -8.2,-6.8 -9.1,-17.3 -9.1,-17.3 -0.8,-7.6 -3.2,-1.3 -3.2,-1.3 -6.3,16.3 -1.7,28.7 0.5,33.3 4.7,2.5 6.4,5.4 6.4,5.4 -5.2,-8.7 -5.2,-23 -5.2,-23 0.9,-4.7 2.8,-2.7 2.8,-2.7 -1.4,7.4 3.3,13.2 3.3,13.2 5.4,6.3 5.7,15 5.7,15 -1.3,1.1 -1.3,-0.5 -1.3,-0.5 -3.2,-9.9 -6,-11.7 -6,-11.7 -1.3,3.8 3.5,11.2 3.5,11.2 1.7,4.4 -1.6,2.2 -1.6,2.2 -18,-16.1 -31.9,-10.1 -31.9,-10.1 6.2,3.2 12.8,11.2 12.8,11.2 2.1,7.4 9.3,10.6 12.7,11.8 l 26.8,-25.3 0.2,-0.1 c 0.2,-0.1 3.5,-1.6 7,-1.6 1,-7.1 -0.2,-28 -0.2,-28 -10.2,4.4 -14.5,27.3 -14.5,27.3 z m -17,23.2 c 0,0 -7.9,-9.3 -12.1,-11.4 0,0 2.4,-3.6 13.2,8 0,0 0.5,2.7 -1.1,3.4 z m 28.8,-39.3 c -3.8,4.1 -2.5,15.6 -2.5,15.6 0,3.2 -2.1,2.1 -2.1,2.1 0,-5.5 -1.4,-2.8 -1.4,-2.8 0.3,4.6 -1.4,4.9 -1.4,4.9 -1.3,-0.2 -0.3,-5.8 -0.3,-5.8 4.3,-15.6 7.7,-15.8 7.7,-15.8 2.2,-2.2 0,1.8 0,1.8 z M 91.8,266.3 c 0,-3 -2.4,-5.4 -5.4,-5.4 -3,0 -5.4,2.4 -5.4,5.4 0,3 2.4,5.4 5.4,5.4 3,-0.1 5.4,-2.5 5.4,-5.4 z m 274.3,97 c 0,0 0.8,0.9 1.5,2.3 0.5,-0.2 1.4,-0.4 2.9,-0.2 0,0 2.4,1.4 -0.2,1.7 0,0 -1,-0.4 -2.2,-0.3 0.1,0.2 0.2,0.4 0.2,0.7 0.4,1.5 0.3,3.3 0.1,4.6 1.9,-2.6 7.1,-4.2 7.1,-4.2 5.3,-0.9 4.5,-1.7 4.5,-1.7 -5.6,-4.5 -13.9,-2.9 -13.9,-2.9 z m -246.4,2.8 c 0,0 -0.8,0.8 4.4,1.7 0,0 5,1.6 7,4.1 -0.2,-1.2 -0.3,-3.1 0.1,-4.5 0.1,-0.2 0.1,-0.5 0.2,-0.7 -1.1,-0.1 -2.2,0.3 -2.2,0.3 -2.5,-0.3 -0.2,-1.7 -0.2,-1.7 1.5,-0.2 2.4,0 2.9,0.2 0.7,-1.4 1.5,-2.3 1.5,-2.3 0,0 -8,-1.5 -13.7,2.9 z m -25.9,-55 c 1.6,0 3.2,0 4.7,0.1 -1.3,-1.4 -6,-6.7 -5.7,-9.5 0,0 0.7,-0.6 3.2,2.2 0,0 -0.2,-4.6 -1.2,-9.5 -3.7,1.1 -8.7,-2.8 -8.7,-2.8 -2.7,-2.2 -2.5,0 -2.5,0 0.8,10.2 8.1,17.6 10.2,19.5 z m 79.4,-204.3 c 2.2,0 3.9,-1.8 3.9,-3.9 0,-2.2 -1.8,-3.9 -3.9,-3.9 -2.2,0 -3.9,1.8 -3.9,3.9 0,2.2 1.7,3.9 3.9,3.9 z m 207.1,217 c 0,0 -3.3,2.2 -1.6,-2.2 0,0 4.7,-7.4 3.5,-11.2 0,0 -2.8,1.7 -6,11.7 0,0 0,1.6 -1.3,0.5 0,0 0.3,-8.7 5.7,-15 0,0 4.7,-5.8 3.3,-13.2 0,0 1.9,-2 2.8,2.7 0,0 0,14.4 -5.2,23 0,0 1.7,-2.8 6.4,-5.4 2.2,-4.6 6.9,-17 0.5,-33.3 0,0 -2.4,-6.3 -3.2,1.3 0,0 -0.9,10.6 -9.1,17.3 0,0 -6,6.8 -5.5,16.1 0,0 -3.5,2.7 -3.2,-7.1 0,0 -4.3,-22.9 -14.7,-27.3 0,0 -1.2,21.6 -0.1,28.3 4.6,0 8.8,2.9 10.9,5.2 l 22.6,21.6 c 3.2,-1 10.8,-4.2 13.1,-11.9 0,0 6.6,-8 12.8,-11.2 0.1,0 -13.8,-6 -31.7,10.1 z m -17.2,-11.2 c 0,0 -1.7,-0.3 -1.4,-4.9 0,0 -1.4,-2.7 -1.4,2.8 0,0 -2.1,1.1 -2.1,-2.1 0,0 1.3,-11.5 -2.5,-15.6 0,0 -2.2,-3.9 0,-1.9 0,0 3.5,0.2 7.7,15.8 0,0 0.9,5.7 -0.3,5.9 z m 21.4,19.5 c -1.6,-0.6 -1.1,-3.3 -1.1,-3.3 10.9,-11.7 13.2,-8 13.2,-8 -4.2,2 -12.1,11.3 -12.1,11.3 z m 27.9,-71.2 c -0.2,0 -0.3,0 -0.5,0 -2.2,0.7 -3.7,2.7 -3.7,5.1 0,3 2.4,5.4 5.4,5.4 0.2,0 0.3,0 0.5,0 2.2,-0.7 3.7,-2.7 3.7,-5.1 -0.1,-3 -2.5,-5.4 -5.4,-5.4 z m 8.4,-30.5 c -2,-0.6 -5.8,-0.1 -7.6,0.1 -1.5,5.7 -4.6,12.6 -11.2,18.1 0.1,1.2 0.1,2.4 0.1,3.8 6.3,0.1 11.1,-7.9 11.1,-7.9 2.4,-5 5.8,-10.3 5.8,-10.3 5,-2.7 1.8,-3.8 1.8,-3.8 z m -6.8,61 c 0,0 -4.9,3.9 -8.7,2.8 -1.1,4.9 -1.2,9.5 -1.2,9.5 2.4,-2.8 3.2,-2.2 3.2,-2.2 0.3,2.8 -4.4,8 -5.7,9.5 1.4,-0.1 3,-0.2 4.6,-0.1 2.1,-1.9 9.4,-9.2 10.3,-19.4 0,-0.1 0.2,-2.3 -2.5,-0.1 z m -293.8,0.9 c 1.1,1.3 2.2,2.6 3.2,3.8 -0.1,-6.2 1.2,-10.7 2.3,-13.2 -0.3,-5.3 -3.1,-8.6 -3.1,-8.6 -2.7,-4.6 -2.7,-1.6 -2.7,-1.6 0.2,3.7 -1.5,11.3 -2.3,14.7 1.2,2.9 2.6,4.9 2.6,4.9 z m 17.7,-163.6 c -0.9,0.9 -1.5,1.9 -2,2.7 0.8,1.2 1.6,2.5 2,3.9 z m -40,123.9 c 0,-1.3 0.1,-2.6 0.1,-3.8 -6.6,-5.5 -9.7,-12.4 -11.2,-18.1 -1.8,-0.3 -5.6,-0.7 -7.6,-0.1 0,0 -3.2,1.1 1.7,3.8 0,0 3.5,5.2 5.8,10.3 0.1,0 4.9,8 11.2,7.9 z m 16.8,-100.3 c 0,0 1.7,3.3 2.7,8.2 0,0 0.8,4.6 4.5,5 0.4,-3.4 -0.4,-6.8 -3.8,-9.8 0,0 1.3,0.6 3.6,2 -0.2,-1.5 -0.4,-3.9 -0.4,-6.7 -1.1,-1 -4,-3 -8.1,-2.3 -0.1,0.1 -3.1,0.9 1.5,3.6 z m 0.8,61.5 0.2,0.2 c 1.8,-2.7 6.7,-10 9.4,-11.3 0,0 0.2,0.3 -1.3,3 0,0 -4.7,7.3 -5.9,11.7 0.5,1 0.9,1.9 1.1,2.5 1.9,-1.7 4.1,-3.3 6.6,-4.9 1.9,-2.9 2.1,-6.8 2.1,-6.8 -0.6,-3.2 -0.6,-9.9 -0.6,-9.9 -5,0.8 -10.6,7.2 -13,10.2 0.4,2.8 1.4,5.3 1.4,5.3 z m 9.6,-53.7 c 0,0 0.7,-0.6 1.9,-0.6 -0.1,-12 5.3,-18.4 9.5,-21.5 -0.3,-1.5 -1.2,-4.5 -4.3,-6.7 0,0 -1.4,-1.4 -3,2.5 0,0 -2.4,6.8 -4.1,9 0,0 -3.7,7.6 -1.5,16.3 0.5,0.3 1,0.7 1.5,1 z m -14.5,22.4 c 0,0 4.8,7.9 -4,18.7 0.6,1.5 1.1,3 1.4,4 1.6,-1.5 2.8,-2.5 3.7,-3.1 6.1,-11.7 11.8,-14.1 14.2,-14.5 v -0.1 c 0,-0.8 0.2,-1.6 0.4,-2.4 -1.6,-0.3 -4.4,-0.4 -5.8,2.4 0,0 -2.4,0.6 1.6,-6.5 0,0 6.9,-12.1 9.1,-14.8 0,0 0.5,-1.4 -2.5,-1.1 0,0 -1.7,0.6 -1.3,-2.5 0,0 -1.6,-0.9 -2.1,0.6 0,0 -4.4,10.4 -9.8,18.5 0,0 -2.2,1.6 -3,-2 0,0 -0.9,-3.5 -3.5,-0.6 0.2,0 -0.8,2.2 1.6,3.4 z m -12.9,62.2 c -0.6,-4.1 -0.8,-7.9 -0.7,-11.4 -0.9,-1.7 -2.5,-5.1 -2.2,-6.9 0,0 -0.2,-6 -1.7,-8.2 0,0 3.2,4.2 4.4,9.8 0.4,-3.1 1.1,-5.9 1.9,-8.4 -2,-6.1 -9.2,-12.6 -9.2,-12.6 -3.6,-3.6 -3,-0.9 -3,-0.9 2.8,3.2 -0.2,13.1 -0.2,13.1 -1.1,13.7 7.4,22.6 10.7,25.5 z m -5.1,-49.2 c -1,2.1 -0.9,6 -0.7,8.7 0.9,0.7 1.7,1.5 2.5,2.4 1.8,-4.1 4.2,-8.1 4.2,-8.1 0.5,-0.7 0.9,-1.2 1.3,-1.6 1.9,-9 -4.5,-13.4 -4.5,-13.4 -5.7,-3.9 -3.2,0.2 -3.2,0.2 3.7,4.4 0.4,11.8 0.4,11.8 z m 11.7,-13.9 c 1,0 2,-0.3 2.9,-0.9 -0.5,-1.2 -1.2,-4.1 2.2,-5.6 -0.6,-2.2 -2.6,-3.9 -5,-3.9 -2.9,0 -5.2,2.3 -5.2,5.2 -0.1,2.9 2.3,5.2 5.1,5.2 z m 91.4,-69.1 -0.9,0.2 c -0.4,1.5 -1.5,2 -2.4,2.2 l -0.2,1.1 0.1,0.6 h 6.7 l 0.1,-0.6 c 0.1,-1.9 -1.4,-3.5 -3.4,-3.5 z m -54.5,201.6 c -0.9,0.8 -3,2.9 -5.9,5.5 2.8,-2.6 5,-4.7 5.9,-5.5 z m 0.4,-0.4 c 0,0 -0.2,0.1 -0.4,0.4 0.2,-0.2 0.3,-0.4 0.4,-0.4 z m 37.3,27.7 c 0,0 -1.7,0 0,2.7 0,0 1,2.8 0.7,4.8 1.4,0.9 2.8,1.9 4.1,2.7 0.1,-2 1,-3 1,-3 0.3,-0.5 0.5,-1.6 0.6,-2.8 -1.3,-1.8 -3.7,-4.6 -6.4,-4.4 z m 44.1,21.2 c 0,0 -1.7,1.3 -1.9,5.7 2.1,0.5 4.1,1 6.1,1.5 0.1,-1.3 0.1,-11.4 -4.2,-7.2 z m 74.7,-251.3 v 0.1 l -1,-0.1 c -2,0 -3.6,1.6 -3.6,3.6 0,0.6 0.1,1.2 0.4,1.7 h 6.4 c 0.3,-0.5 0.4,-1.1 0.4,-1.7 v -0.6 h 0.2 c -1,-0.6 -2.2,-1.6 -2.8,-3 z m -71.1,1.8 c -4.4,0.6 -8.8,-0.3 -11.1,-1 -3.3,1.1 -6.5,0.6 -9,-0.2 2.5,2.1 5.3,3.8 6.8,4.7 h 16.1 c -0.5,-1.9 -1.8,-3 -2.8,-3.5 z m -17.8,249.4 c 0,0 0.3,1 0.3,2 0.6,0.2 1.2,0.4 1.8,0.7 -0.4,-0.9 -1.2,-2.1 -2.1,-2.7 z m 93.9,-6.9 c -0.3,0.6 -1.2,0.6 -1.9,0.6 -0.2,1.8 -0.5,3.5 -0.9,5.1 0.6,-0.3 1.2,-0.5 1.8,-0.8 1.4,-2 1,-4.9 1,-4.9 z m -106.2,0.1 c 0,0 -0.3,1.7 0.3,3.3 0.8,0.4 1.5,0.7 2.3,1.1 -0.3,-1.2 -0.5,-2.5 -0.6,-3.8 -0.7,0 -1.7,0 -2,-0.6 z m 138,-246.8 c 0,0 -2.2,-0.6 -2.8,-2 0,0 -2.2,0.3 0.2,5.4 0,0 0.8,2.4 1,4.4 h 5.2 c -0.9,-1.2 -2.6,-3.5 -4.2,-4.5 0,0 1.6,-1.6 6.9,4.5 h 4.6 c -1.5,-2 -5.1,-5.9 -10.9,-7.8 z m -106.9,-5.4 c -3.4,1.5 -6.8,5.4 -6.8,5.4 -0.7,0.6 -1.3,1.1 -2,1.6 2.9,1.6 8,0.6 8,0.6 8.5,-3.2 15.3,-2.4 15.3,-2.4 -3.4,-5.9 -11.3,-5.6 -14.5,-5.2 z m 131,210.9 c -0.4,-0.3 -0.9,-0.5 -1.4,-0.8 0.5,0.3 1,0.5 1.4,0.8 z M 305.5,98.5 c 1.3,-0.5 3.4,-1 5,-0.5 l 0.4,-0.5 c 0.4,-0.6 0.6,-1.3 0.6,-2 0,-2.1 -1.7,-3.8 -3.8,-3.8 -2.1,0 -3.8,1.7 -3.8,3.8 0,1.2 0.6,2.3 1.6,3 z m 14.2,13.1 c 0,0 -8.5,-4.4 -9,-9.8 0,0 -3.6,-1.9 -3.9,0.9 0,0 0.5,4.6 -3.6,0.6 0,0 -1.1,-1.1 -6.2,-3 0,0 -5.5,-1.1 -9.8,-7.1 0,0 -4.9,-5.5 -11.8,-6.3 0,0 -5.7,-0.9 -8.5,-3.6 0,0 -3.5,-0.5 -0.3,4.1 0,0 0.7,0.8 2.2,1.7 3.2,0.4 15.4,2.4 19.9,11 0,0 0,0.1 0,0.2 0.3,0.4 0.6,1.3 0.9,3.1 0,0 -4,-0.4 -8,1.9 5.7,-0.6 4.8,1.4 4.8,1.4 -6.6,0.2 -13.2,7.7 -13.2,7.7 -1.8,-3.1 1.3,-6.1 3.4,-7.6 -5.1,0.6 -15.1,0.5 -24.8,-6.9 -6,-0.3 -4.5,1.4 -4.5,1.4 2.5,0.3 4.9,2.2 4.9,2.2 6.2,7.6 14.7,7.4 14.7,7.4 5.2,-0.3 3.6,0.6 3.6,0.6 -1.7,1.4 -2.9,3.7 -3.5,5 h 8.9 c 2.7,-1.6 10.9,-6.6 13,-9.9 0,0 6.9,-4.1 12,0.8 0,0 0.6,4.3 5.4,3.8 0,0 8.5,-0.6 10.9,5.3 h 9.8 c -1.1,-1 -3.1,-2.7 -7.3,-4.9 z M 252.5,97.4 c 0,0 17.3,14.1 31.4,3.5 -3.1,-1.4 -10.2,-4 -16.9,-1.3 0,0 -0.1,-5.4 15.2,-2.7 -2.6,-2.9 -9.1,-7.6 -22.9,-4.3 0,0 -6.2,1.7 -11.5,-0.3 0,0 -2.8,1.1 4.7,5.1 z m 40.8,-1.1 -0.8,-0.8 c 0.1,0.1 0.2,0.3 0.2,0.4 0,0.1 0.2,0.2 0.6,0.4 z m -32.7,-6.2 c 0.9,-0.3 3.1,-1.1 5.2,-1.3 -0.6,-0.7 -1.4,-1.8 -1.8,-3.2 -2.2,0.7 -5.9,-0.4 -5.9,-0.4 -2,-3 -1.7,-0.6 -1.7,-0.6 0.2,3.3 2.6,4.9 4.2,5.5 z M 340,311.3 c 0,-2.7 -2.2,-5 -5,-5 -2.7,0 -5,2.2 -5,5 0,2.7 2.2,5 5,5 2.8,0 5,-2.3 5,-5 z m 17.2,2.3 c -0.5,-0.2 -1,-0.5 -1.6,-0.6 0.5,0.1 1,0.4 1.6,0.6 z" />
</g>
</svg>
