<?xml version="1.0" encoding="UTF-8" standalone="no"?>
<svg
   xmlns:dc="http://purl.org/dc/elements/1.1/"
   xmlns:cc="http://creativecommons.org/ns#"
   xmlns:rdf="http://www.w3.org/1999/02/22-rdf-syntax-ns#"
   xmlns:svg="http://www.w3.org/2000/svg"
   xmlns="http://www.w3.org/2000/svg"
   xmlns:sodipodi="http://sodipodi.sourceforge.net/DTD/sodipodi-0.dtd"
   xmlns:inkscape="http://www.inkscape.org/namespaces/inkscape"
   version="1.1"
   id="svg4"
   sodipodi:docname="logo_kavli.svg"
   width="49.113728"
   height="55.224945"
   inkscape:version="1.0.1 (3bc2e813f5, 2020-09-07)">
  <metadata
     id="metadata10">
    <rdf:RDF>
      <cc:Work
         rdf:about="">
        <dc:format>image/svg+xml</dc:format>
        <dc:type
           rdf:resource="http://purl.org/dc/dcmitype/StillImage" />
        <dc:title></dc:title>
      </cc:Work>
    </rdf:RDF>
  </metadata>
  <defs
     id="defs8" />
  <sodipodi:namedview
     pagecolor="#ffffff"
     bordercolor="#666666"
     borderopacity="1"
     objecttolerance="10"
     gridtolerance="10"
     guidetolerance="10"
     inkscape:pageopacity="0"
     inkscape:pageshadow="2"
     inkscape:window-width="1920"
     inkscape:window-height="1127"
     id="namedview6"
     showgrid="false"
     fit-margin-top="0"
     fit-margin-left="0"
     fit-margin-right="0"
     fit-margin-bottom="0"
     inkscape:zoom="4.1866667"
     inkscape:cx="150.15187"
     inkscape:cy="75.112472"
     inkscape:window-x="0"
     inkscape:window-y="0"
     inkscape:window-maximized="1"
     inkscape:current-layer="svg4" />
  <path
     fill="#f5333f"
     d="m 47.351875,40.812472 a 4.8,4.8 0 0 1 -8.1,0.2 l 4,-2.4 h 0.2 v -5 c 0.8,0 1.5,0.2 2.2,0.6 2.2,1.3 3,4.3 1.7,6.6 z m -17.7,5.1 a 6,6 0 0 0 -1.8,-1.8 c 3.7,-0.7 7,-2.7 9.4,-5.5 0,0.9 0.3,1.7 0.7,2.5 z m -0.2,3.2 c 0,2.7 -2.2,4.8 -4.8,4.8 a 4.8,4.8 0 0 1 -4.3,-7 l 4.2,2.4 0.1,0.1 h 0.1 l 4.2,-2.5 c 0.3,0.7 0.5,1.4 0.5,2.2 z m -18.1,-8 a 6,6 0 0 0 0.7,-2.5 c 2.4,2.8 5.7,4.8 9.4,5.5 a 6,6 0 0 0 -1.8,1.8 z m -2.9000004,1.4 c -1,0.7 -2.4,0.8 -3.6,0.5 -1.2,-0.3 -2.3,-1.1 -3,-2.2 a 4.8,4.8 0 0 1 4,-7.2 v 5 h 0.1 l 4.2000004,2.4 c -0.4000004,0.6 -1.0000004,1.1 -1.7000004,1.5 z m -4.8,-21.4 a 4.8,4.8 0 0 1 1.2,-9 4.7,4.7 0 0 1 5.3000004,2 l -4.2000004,2.4 h -0.1 v 5 c -0.8,0 -1.5,-0.2 -2.2,-0.6 z M 19.651875,9.4124722 a 6,6 0 0 0 2,1.7999998 c -3.9,0.8 -7.2,2.8 -9.6,5.6 a 6,6 0 0 0 -0.7,-2.6 z m 0.2,-3.2 c 0,-2.7 2.2,-4.8 4.8,-4.8 a 4.8,4.8 0 0 1 4.3,7 l -4.2,-2.4 -0.1,-0.1 h -0.1 l -4.2,2.5 c -0.3,-0.7 -0.5,-1.4 -0.5,-2.2 z m 18.1,7.9999998 a 6,6 0 0 0 -0.7,2.6 16.7,16.7 0 0 0 -9.5,-5.5 6,6 0 0 0 2,-1.9999998 z m 2.9,-1.4 a 4.7,4.7 0 0 1 6.5,1.7 4.8,4.8 0 0 1 -3.9,7.2 v -5 h -0.1 l -4.2,-2.5 c 0.3,-0.6 0.9,-1.1 1.6,-1.5 z m 1.5,25.9 -3.4,2 c -0.3,-0.7 -0.5,-1.3 -0.5,-2 z m -14,4.6 c 3,-0.8 5.8,-2.4 7.9,-4.6 h 0.7 a 16.4,16.4 0 0 1 -9,5.2 z m -1,2 c 0.5,0.3 1,0.8 1.3,1.3 l -3.3,2 z m -5.3,0 2,3.3 -3.4,-2 c 0.4,-0.5 0.8,-1 1.4,-1.4 z m -9,-6.6 c 2.1,2.2 4.9,3.8 8,4.6 l 0.3,0.6 c -3.5,-0.8 -6.7,-2.6 -9,-5.2 z m -2.2,0 c 0,0.7 -0.2,1.3 -0.5,2 l -3.4000004,-2 h 4.0000004 z m -3.5000004,-4.9 1,0.4 -2,3.4 v -4 z m 0.3,-11.1 a 6,6 0 0 0 1.2,-0.5 16.7,16.7 0 0 0 0,11 6,6 0 0 0 -2.5,-0.7 v -9.6 c 0.4,0 0.8,0 1.3,-0.2 z m -0.7,-6 3.4000004,-2 c 0.3,0.7 0.5,1.3 0.5,2 z m 14.0000004,-4.5 a 16,16 0 0 0 -7.8,4.5 h -0.7 c 2.3,-2.5 5.4,-4.4 8.9,-5.1 z m 1.1,-2 c -0.6,-0.3999998 -1,-0.8999998 -1.4,-1.3999998 l 3.3,-2 -1.8,3.2999998 z m 5.2,0 -2,-3.3999998 3.4,2 c -0.4,0.5 -0.8,1 -1.4,1.3999998 z m 9,6.5 c -2.2,-2.2 -4.9,-3.8 -8,-4.5 l -0.2,-0.6 c 3.4,0.7 6.5,2.6 8.8,5.1 h -0.7 z m 2.2,0 c 0,-0.7 0.2,-1.3 0.5,-2 l 3.4,2 z m 3.2,16 a 6,6 0 0 0 -1.2,0.5 16.7,16.7 0 0 0 0,-11 6,6 0 0 0 2.5,0.7 v 9.6 a 6,6 0 0 0 -1.3,0.2 z m -0.7,1.5 a 4.8,4.8 0 0 1 2,-0.5 v 3.9 z m -11.5,7 c 1.9,0 3.5,-1 4.4,-2.5 h 2.1 c -2,2 -4.6,3.6 -7.5,4.3 z m -14,-2.5 c 0.9,1.5 2.5,2.5 4.4,2.5 l 1,1.8 c -2.9,-0.7 -5.5,-2.2 -7.5,-4.3 z m -6.4000004,-16.3 0.4,0.6 a 16,16 0 0 0 0,9.2 l -0.4,0.6 a 16.4,16.4 0 0 1 0,-10.4 z m -0.7,-1.3 a 4.8,4.8 0 0 1 -2,0.5 v -3.9 z m 11.5000004,-7 c -1.9,0 -3.5,1 -4.4,2.5 h -2 c 2,-2 4.5,-3.6 7.4,-4.3 z m 14,2.5 a 5.4,5.4 0 0 0 -4.4,-2.5 l -1,-1.8 c 2.9,0.7 5.5,2.3 7.5,4.3 h -2 z m 9.1,1.1 v 4 a 4.8,4.8 0 0 1 -2,-0.6 z m -2.7,15 -0.4,-0.5 a 16,16 0 0 0 0,-9.2 l 0.4,-0.6 a 16.4,16.4 0 0 1 0,10.4 z m -10.6,8.1 a 4.5,4.5 0 0 1 3.9,-2.2 h 0.1 a 5.3,5.3 0 0 1 -4,2.3 z m -13.9,-2.2 c 1.6,0 3.1,0.8 3.9,2.2 v 0.1 c -1.6,0 -3.1,-1 -4,-2.3 z m -5.2,-13.6 a 5.5,5.5 0 0 0 0,5.2 l -1.0000004,1.8 a 15.8,15.8 0 0 1 0,-8.8 z m 9.2,-10.7 h -0.1 a 4.5,4.5 0 0 1 -3.9,2.3 h -0.1 a 5.3,5.3 0 0 1 4,-2.3 z m 14,2.3 h -0.2 c -1.6,0 -3.1,-0.8 -3.9,-2.2 v -0.1 c 1.6,0 3.1,1 4,2.3 z m 5,13.6 a 5.5,5.5 0 0 0 0,-5.2 l 1,-1.7 a 15.8,15.8 0 0 1 0,8.7 z m 0,6.3 0.3,-0.3 3.4,2 -4,-0.1 c 0,-0.5 0.1,-1 0.4,-1.6 z m -14,7.9 h 0.5 c 0.6,0 1.1,0.2 1.6,0.5 l -2,3.4 v -4 z m -0.7,0 h 0.4 v 4 l -2,-3.5 c 0.5,-0.3 1,-0.5 1.6,-0.5 z m -13.9,-8.3 0.3,0.4 0.3,1.5 H 6.7518746 Z m -0.4000004,-0.8 0.2,0.4 -3.3,2 2,-3.4 z m 0.8000004,-10.2 0.1,0.1 c 0.8,1.4 0.8,3.2 0,4.6 a 5.3,5.3 0 0 1 0,-4.7 z m -0.5,-5.8 -0.2000004,0.3 c -0.3,0.4 -0.7,0.8 -1.2,1.1 l -2,-3.4 z m 0.3,-0.6 -0.2,0.2 -3.4000004,-2 4.0000004,0.1 c 0,0.6 -0.2,1.2 -0.4,1.7 z m 14,-8 c -0.7,0 -1.4,-0.2 -2,-0.5 l 2,-3.3999998 z m 0.4,-3.9999998 2,3.4999998 c -0.6,0.3 -1.3,0.5 -2,0.6 V 6.8124722 Z m 14.2,12.3999998 v -0.2 c -0.3,-0.6 -0.5,-1.2 -0.5,-1.8 h 4 z m 0.3,0.4 v -0.1 l 3.3,-2 -2,3.4 c -0.5,-0.3 -1,-0.8 -1.3,-1.3 z m -0.6,10.6 -0.1,-0.1 a 4.5,4.5 0 0 1 0,-4.6 5.3,5.3 0 0 1 0,4.7 z m 0.6,5.8 0.1,-0.3 1.2,-1.1 2,3.4 z m -1.3,0 a 4.8,4.8 0 0 1 -3.6,2 c 0.9,-1 2.1,-1.8 3.6,-2 z m -9.3,5.4 c -0.8,1.2 -2.1,2 -3.6,2.1 0.8,-1.2 2.1,-2 3.6,-2.1 z m -8,0 c 1.5,0.1 2.8,1 3.6,2.1 -1.5,-0.1 -2.8,-1 -3.6,-2.1 z m -9.3,-5.4 c 1.5,0.2 2.7,1 3.6,2 a 4.9,4.9 0 0 1 -3.6,-2 z m 3.6,-18.5 c -0.9,1.1 -2.1,1.9 -3.6,2 a 4.8,4.8 0 0 1 3.6,-2 z m 5.7,-3.3 c 0.8,-1.1 2.1,-2 3.6,-2 -0.9,1 -2.1,1.8 -3.6,2 z m 4.4,-2 c 1.5,0 2.8,0.9 3.6,2 -1.5,-0.2 -2.7,-1 -3.6,-2 z m 12.9,7.4 c -1.5,-0.2 -2.7,-1 -3.6,-2 a 4.9,4.9 0 0 1 3.6,2 z m -3.2,16.3 c 0,-0.7 -0.1,-1.3 -0.3,-1.8 0.8,0.9 1.9,1.5 3.1,1.8 -1.2,0.2 -2.4,0.9 -3.2,1.8 0.3,-0.5 0.4,-1.2 0.4,-1.8 z m -1,2.2 a 5.3,5.3 0 0 1 -0.1,-4.1 l 0.3,-0.6 a 5.3,5.3 0 0 1 0,4.7 z m -8.3,3.1 c 0,-0.7 0,-1.3 -0.3,-1.8 0.8,0.9 1.9,1.5 3.1,1.7 -1.2,0.3 -2.3,0.9 -3,1.8 z m -1.3,-1.8 a 5.5,5.5 0 0 0 0,3.5 5.5,5.5 0 0 0 -3.1,-1.8 c 1.2,-0.2 2.3,-0.8 3,-1.7 z m -9.4,-3.6 c 0,-1 0.2,-1.7 0.6,-2.5 l 0.3,0.6 a 5.3,5.3 0 0 1 -0.1,4 h -0.4 c -0.3,-0.6 -0.5,-1.3 -0.5,-2.1 z m 0.1,-1.8 a 5.5,5.5 0 0 0 0,3.6 c -0.7,-1 -1.9,-1.6 -3.1,-1.8 1.2,-0.3 2.3,-1 3.1,-1.8 z m -3.5,-1 c 0,0.8 -0.1,1.5 -0.4,2.1 a 5,5 0 0 1 0,-4 c 0.3,0.5 0.4,1.2 0.4,2 z m -0.4,-12.7 a 5.3,5.3 0 0 1 0,4 5,5 0 0 1 0,-4 z m 3.6,-0.7 c 0,0.7 0.1,1.3 0.3,1.8 -0.8,-0.9 -1.9,-1.5 -3.1,-1.8 1.2,-0.2 2.4,-0.9 3.2,-1.8 -0.3,0.5 -0.4,1.2 -0.4,1.8 z m 9.9,-2.8 h -0.4 c -1.5,-0.2 -2.8,-1 -3.7,-2.2 l 0.1,-0.2 c 1.7,0.1 3.1,1 4,2.4 z m -0.6,-2.6 c 0,0.7 0,1.3 0.3,1.8 -0.8,-0.9 -1.9,-1.5 -3.1,-1.7 1.2,-0.3 2.3,-0.9 3,-1.8 z m 1.3,1.8 a 5.5,5.5 0 0 0 0,-3.5 c 0.8,1 2,1.5 3.1,1.8 -1.2,0.2 -2.3,0.8 -3,1.7 z m 3.8,-1.4 c -0.9,1.2 -2.2,2 -3.7,2.2 h -0.4 a 5.3,5.3 0 0 1 4,-2.4 v 0.2 z m 5.5,6.8 a 5.5,5.5 0 0 0 0,-3.6 c 0.7,1 1.9,1.6 3.1,1.8 -1.2,0.3 -2.3,1 -3.1,1.8 z m 3.5,1 c 0,-0.8 0.1,-1.5 0.4,-2.1 a 5,5 0 0 1 0,4 c -0.3,-0.5 -0.4,-1.2 -0.4,-2 z m 0.4,12.7 a 5.3,5.3 0 0 1 0,-4 5,5 0 0 1 0,4 z m -0.2,0.5 c -1.7,0 -3,-1 -4,-2.2 z m -6.1,1 1.4,1.4 c -0.6,-0.1 -1.3,-0.3 -1.8,-0.6 z m -3.4,2 h 0.9 c 0,0.7 -0.2,1.4 -0.5,2 -0.2,-0.6 -0.4,-1.3 -0.4,-2 z m -3.9,4.8 v -4.6 a 5.3,5.3 0 0 1 0,4.6 z m -0.2,0 a 5.3,5.3 0 0 1 0,-4.6 z m -3.9,-4.8 c 0,0.7 -0.2,1.4 -0.4,2 -0.3,-0.6 -0.5,-1.3 -0.5,-2 z m -3.4,-2 0.4,0.8 c -0.5,0.3 -1.2,0.5 -1.8,0.6 0.4,-0.5 0.9,-1 1.4,-1.3 z m -6,-1 3.8,-2.2 a 5.3,5.3 0 0 1 -3.8,2.3 z m 3.1,-2.5 c -1.2,0.2 -2.3,0.9 -3.1,1.8 a 5.5,5.5 0 0 0 0,-3.6 c 0.8,0.9 1.9,1.6 3.1,1.8 z m 0,-10.8 c -1.2,0.3 -2.3,1 -3.1,1.8 a 5.5,5.5 0 0 0 0,-3.6 c 0.8,1 1.9,1.6 3.1,1.8 z m -3.2,-2.5 c 1.7,0 3,1 4,2.2 z m 6.1,-1 -1.4,-1.4 c 0.6,0.1 1.3,0.3 1.8,0.6 z m 3.4,-2 h -0.9 c 0,-0.7 0.2,-1.4 0.5,-2 0.2,0.7 0.4,1.3 0.4,2 z m 0.2,0 c 0,-0.6 -0.1,-1.1 -0.3,-1.7 0.7,0.8 1.5,1.4 2.5,1.7 z m 3.7,-4.8 v 4.6 a 5.3,5.3 0 0 1 0,-4.6 z m 0.2,0 a 5.3,5.3 0 0 1 0,4.6 z m 3.7,4.8 h -2.2 c 1,-0.3 1.8,-0.9 2.5,-1.7 -0.2,0.6 -0.3,1.1 -0.3,1.7 z m 0.2,0 c 0,-0.7 0.2,-1.3 0.4,-2 0.3,0.6 0.5,1.3 0.5,2 z m 3.4,2 -0.4,-0.8 c 0.5,-0.3 1.2,-0.5 1.8,-0.6 -0.4,0.5 -0.9,1 -1.4,1.3 z m 6,1 -3.8,2.2 a 5.3,5.3 0 0 1 3.8,-2.3 z m -3,2.4 c 1.2,-0.2 2.3,-0.9 3.1,-1.8 a 5.5,5.5 0 0 0 0,3.6 c -0.8,-0.9 -1.9,-1.5 -3.1,-1.8 z m -0.9,10.8 0.3,-0.6 c 1,-1 2.2,-1.8 3.6,-1.9 l 0.2,0.2 a 5.3,5.3 0 0 1 -4,2.3 z m 0.8,0 c 1.2,-0.1 2.3,-0.8 3.1,-1.7 a 5.5,5.5 0 0 0 0,3.6 c -0.8,-1 -1.9,-1.6 -3.1,-1.8 z m 3.3,2.5 -4.1,-2.3 c 1.7,0.1 3,1 4,2.2 z m -8.5,0.2 -0.1,-0.3 c 0.9,-1.3 2.4,-2.1 4,-2.2 l -0.2,0.4 c -0.8,1.1 -2.2,2 -3.7,2 z m 0.5,0.1 c 1,-0.2 2,-0.7 2.8,-1.4 l -1.2,2 c -0.5,-0.3 -1,-0.5 -1.6,-0.6 z m -1.2,0.6 c 0.3,0.6 0.4,1.2 0.5,2 h -0.9 c 0,-0.7 0.2,-1.4 0.4,-2 z m -0.6,2.2 c 0,0.6 0.1,1.1 0.3,1.6 a 5.5,5.5 0 0 0 -2.5,-1.6 z m -5.4,0 c -1,0.3 -1.8,0.9 -2.5,1.6 0.2,-0.5 0.3,-1 0.3,-1.6 z m -2.8,-2.2 c 0.2,0.6 0.4,1.3 0.4,2 h -0.9 c 0,-0.8 0.2,-1.4 0.5,-2 z m -1.2,-0.6 c -0.6,0.1 -1.1,0.3 -1.6,0.6 l -1.2,-2 c 0.8,0.7 1.7,1.2 2.8,1.4 z m -3.5,-2.6 c 1.7,0 3.2,1 4.1,2.2 l -0.1,0.3 c -1.5,-0.2 -2.9,-1 -3.7,-2.1 z m -4.3,-2.7 c 1.4,0.1 2.7,0.8 3.6,2 l 0.3,0.5 c -1.7,-0.1 -3.2,-1 -4,-2.3 v -0.2 z m 3.6,-7.5 a 5.3,5.3 0 0 1 -3.6,1.9 l -0.2,-0.2 c 1,-1.3 2.4,-2.2 4,-2.3 z m 4.2,-3.4 c -1,0.2 -2,0.7 -2.8,1.4 l 1.2,-2 c 0.5,0.3 1,0.5 1.6,0.6 z m 1.2,-0.6 c -0.3,-0.6 -0.5,-1.2 -0.5,-2 h 0.9 c 0,0.8 -0.2,1.4 -0.4,2 z m 4.2,-2 a 5.3,5.3 0 0 1 -4,2.5 v -0.3 c 0.7,-1.2 2,-2 3.5,-2.2 z m 4.5,2.3 -0.1,0.2 c -1.7,-0.2 -3.1,-1 -4,-2.4 h 0.5 c 1.5,0.2 2.8,1 3.6,2.2 z m 0.1,-0.3 c -0.2,-0.6 -0.4,-1.2 -0.4,-2 h 0.9 c 0,0.8 -0.2,1.4 -0.5,2 z m 4,2 a 5.4,5.4 0 0 0 -2.8,-1.4 c 0.6,-0.1 1.1,-0.3 1.6,-0.6 z m 5,3.9 a 5.3,5.3 0 0 1 -3.6,-2 l -0.3,-0.5 c 1.7,0.1 3.2,1 4,2.3 v 0.2 z m -2,4.8 0.4,-0.8 c 0.6,0.4 1.1,0.8 1.5,1.4 -0.7,-0.1 -1.3,-0.3 -1.9,-0.6 z m 0,0.1 c 0.4,0.3 1,0.5 1.5,0.6 -1,0.2 -2,0.6 -2.7,1.3 l 1.1,-1.9 z m -5.8,0.6 c 1.3,-0.3 2.4,-1 3.2,-1.9 a 5.4,5.4 0 0 0 0,3.7 c -0.8,-1 -2,-1.6 -3.2,-1.8 z m -0.1,2.7 -0.3,-1.8 c 0.8,1 1.8,1.6 3,1.8 -1.2,0.2 -2.2,0.9 -3,1.8 z m -4.7,2.7 c 0,-0.6 0,-1.2 -0.2,-1.7 0.7,0.8 1.8,1.5 3,1.7 -1.2,0.2 -2.3,0.9 -3,1.8 z m -4.4,0 c 1.2,-0.2 2.3,-0.9 3,-1.7 a 5.5,5.5 0 0 0 0,3.5 c -0.7,-1 -1.8,-1.6 -3,-1.8 z m -1.6,-4.5 a 5.5,5.5 0 0 0 0,3.6 5.4,5.4 0 0 0 -3,-1.8 c 1.2,-0.2 2.2,-0.9 3,-1.8 z m -3.3,-1 c 0,-0.6 0,-1.2 -0.3,-1.8 0.8,1 2,1.6 3.2,1.9 -1.3,0.2 -2.4,0.9 -3.2,1.8 l 0.3,-1.8 z m -2.8,-0.5 1,2 a 5.5,5.5 0 0 0 -2.6,-1.4 c 0.6,-0.1 1,-0.3 1.6,-0.6 z m -0.1,-0.1 c -0.6,0.3 -1.2,0.5 -1.9,0.6 0.4,-0.6 0.9,-1 1.5,-1.4 z m 0,-4 -0.4,0.8 c -0.6,-0.4 -1,-0.8 -1.5,-1.4 0.7,0.1 1.3,0.3 1.9,0.6 z m 0,-0.1 c -0.4,-0.3 -1,-0.5 -1.5,-0.6 1,-0.2 2,-0.6 2.7,-1.3 l -1.1,1.9 z m 5.8,-0.6 c -1.3,0.3 -2.4,1 -3.2,1.9 a 5.4,5.4 0 0 0 0,-3.7 c 0.8,1 2,1.6 3.2,1.8 z m 0.4,-4.5 a 5.5,5.5 0 0 0 0,3.6 5.4,5.4 0 0 0 -3,-1.8 c 1.2,-0.2 2.3,-0.9 3,-1.8 z m 0.2,-0.5 a 5.3,5.3 0 0 1 -4,2.2 l 0.2,-0.4 c 0.8,-1.1 2.2,-2 3.7,-2 z m 4.2,-0.4 c 0,0.6 0,1.2 0.2,1.7 a 5.4,5.4 0 0 0 -3,-1.7 c 1.2,-0.2 2.3,-0.9 3,-1.8 z m 1.4,1.7 a 5.5,5.5 0 0 0 0,-3.5 c 0.7,1 1.8,1.6 3,1.8 -1.2,0.2 -2.3,0.9 -3,1.7 z m 8.5,1 c -1.7,-0.2 -3.2,-1 -4.1,-2.3 l 0.1,-0.3 c 1.5,0.2 2.9,1 3.7,2.1 z m -4,1.8 a 5.5,5.5 0 0 0 0,-3.6 c 0.9,1 2,1.6 3.2,1.8 -1.3,0.2 -2.3,0.9 -3.1,1.8 z m 3.4,1 c 0,0.6 0,1.2 0.3,1.8 -0.8,-1 -2,-1.6 -3.2,-1.9 1.3,-0.2 2.4,-0.9 3.2,-1.8 l -0.3,1.8 z m 2.8,0.5 -1,-2 c 0.7,0.8 1.6,1.2 2.6,1.4 -0.6,0.1 -1,0.3 -1.6,0.6 z m 0.1,0.1 c 0.6,-0.3 1.2,-0.5 1.9,-0.6 -0.4,0.6 -0.9,1 -1.5,1.4 z m -1.7,2.5 c 0.7,0 1.3,0.3 1.9,0.6 l -0.4,0.7 c -0.6,-0.3 -1,-0.8 -1.5,-1.3 z m 0,0.4 c 0.4,0.4 0.9,0.8 1.4,1 l -1.2,2 a 5.5,5.5 0 0 0 -0.1,-3 z m -1.7,-0.2 0.8,-0.2 c -0.8,1 -2,1.8 -3.5,2 0.7,-0.9 1.6,-1.6 2.7,-1.8 z m -2.9,2.2 v -0.1 c 1.6,0.2 3,1 3.9,2.3 z m 0,0.1 3.8,2.3 c -1.6,-0.1 -3,-1 -3.9,-2.2 z m -0.2,0.3 a 5.3,5.3 0 0 1 0,4.1 5,5 0 0 1 0,-4 z m -1,4.6 c -1.4,-0.1 -2.6,-0.9 -3.4,-2 1.4,0.2 2.6,1 3.4,2 z m -3.7,-2 a 5.3,5.3 0 0 1 -0.1,4.5 v -4.5 z m -0.3,0 v 4.6 a 5.3,5.3 0 0 1 0,-4.5 z m -0.4,0 c -0.8,1.1 -2,1.9 -3.4,2 0.8,-1 2,-1.8 3.4,-2 z m -4.4,-2.6 a 5,5 0 0 1 0,4.1 5.3,5.3 0 0 1 0,-4 z m -0.1,-0.3 c -0.9,1.3 -2.3,2.2 -3.9,2.3 z m -0.2,-0.2 -3.8,2.3 a 5.3,5.3 0 0 1 3.8,-2.3 z m -2.8,-2.1 c 1,0.2 2,1 2.7,1.8 -1.4,-0.2 -2.7,-1 -3.5,-2 0.3,0 0.5,0 0.8,0.2 z m -1.8,0.2 a 5.5,5.5 0 0 0 -0.1,3 l -1.2,-2 c 0.5,-0.2 1,-0.6 1.3,-1 z m 0,-0.4 c -0.3,0.5 -0.8,1 -1.4,1.3 l -0.4,-0.7 c 0.6,-0.3 1.2,-0.5 1.9,-0.6 z m 0,-1 c -0.6,0 -1.2,-0.3 -1.8,-0.6 l 0.4,-0.7 c 0.6,0.3 1,0.8 1.5,1.3 z m 0,-0.4 c -0.3,-0.4 -0.8,-0.8 -1.3,-1 l 1.2,-2 a 5.5,5.5 0 0 0 0.1,3 z m 1.8,0.3 h -0.8 c 0.8,-1 2,-1.7 3.5,-2 -0.7,1 -1.6,1.7 -2.7,2 z m 2.9,-2.3 v 0.1 c -1.6,-0.2 -3,-1 -3.9,-2.3 z m 0,-0.1 -3.8,-2.3 c 1.6,0.1 3,1 4,2.2 z m 0.3,-0.3 a 5.3,5.3 0 0 1 0,-4.1 5,5 0 0 1 0,4 z m 0.8,-4.7 c 1.5,0.2 2.7,1 3.6,2.1 -1.5,-0.1 -2.8,-1 -3.6,-2 z m 3.8,2.1 a 5.3,5.3 0 0 1 0.1,-4.5 v 4.5 z m 0.3,0 v -4.5 a 5.3,5.3 0 0 1 0,4.5 z m 0.3,0 a 5.3,5.3 0 0 1 3.6,-2 c -0.8,1 -2.1,1.9 -3.6,2 z m 4.5,-1.5 a 5.3,5.3 0 0 1 0,4 5,5 0 0 1 0,-4 z m 0.1,4.4 c 0.9,-1.3 2.3,-2.2 3.9,-2.3 z m 0.1,0.1 3.9,-2.2 a 5.3,5.3 0 0 1 -3.9,2.3 z m 3,2.2 c -1.2,-0.2 -2.1,-1 -2.8,-1.8 1.4,0.2 2.7,1 3.5,2 a 5,5 0 0 1 -0.8,-0.1 z m 1.7,-0.2 a 5.5,5.5 0 0 0 0.1,-3 l 1.2,2 c -0.5,0.2 -1,0.6 -1.3,1 z m 0,0.4 c 0.3,-0.5 0.8,-1 1.4,-1.3 l 0.4,0.7 c -0.6,0.3 -1.2,0.5 -1.9,0.6 z m -9.9,-4.3 v 4.3 a 5.3,5.3 0 0 1 0,-4.4 z m 0.7,2 c 0,1 -0.2,1.7 -0.5,2.4 v -4.4 c 0.4,0.6 0.5,1.3 0.5,2 z m 3.4,2.8 c 0,-0.7 0.1,-1.4 0.4,-2 a 4.9,4.9 0 0 1 0,4.1 c -0.2,-0.6 -0.4,-1.4 -0.4,-2.1 z m -3.6,0.1 c 1.6,0.1 3,1 3.9,2.2 z m -0.1,0.2 3.9,2.2 c -1.6,0 -3,-1 -4,-2.2 z m 0.2,0.6 c 0.8,0.9 1.9,1.5 3.1,1.8 -1.2,0.2 -2.3,0.8 -3,1.7 a 5.5,5.5 0 0 0 0,-3.5 z m -0.4,4 v -4.4 a 5.3,5.3 0 0 1 0,4.5 z m -0.3,0 a 5.3,5.3 0 0 1 0.1,-4.5 v 4.6 z m -0.3,-4 a 5.5,5.5 0 0 0 0,3.5 5.4,5.4 0 0 0 -3.1,-1.7 c 1.2,-0.3 2.3,-0.9 3,-1.8 z m 0.2,-0.6 a 5.3,5.3 0 0 1 -3.9,2.3 l 4,-2.3 z m 0,-0.2 -4,2.3 a 5.2,5.2 0 0 1 4,-2.3 z m -0.7,-0.1 c -1.2,0.2 -2.3,0.9 -3.1,1.8 a 5.5,5.5 0 0 0 0,-3.6 c 0.8,1 1.9,1.6 3,1.8 z m 0.6,-0.1 c -1.6,-0.1 -3,-1 -3.9,-2.2 z m 4.5,-1.7 a 5.5,5.5 0 0 0 0,3.6 5.5,5.5 0 0 0 -3,-1.8 c 1.1,-0.2 2.2,-0.9 3,-1.8 z m -3.7,1.7 3.8,-2.2 c -0.8,1.2 -2.2,2 -3.8,2.2 z m 3.7,-2.5 -3.8,2.3 a 5.3,5.3 0 0 1 3.8,-2.3 z m -3.6,-2.2 c 1.4,0.1 2.6,0.9 3.4,2 -1.4,-0.2 -2.6,-1 -3.4,-2 z m 3.1,2.1 c -1.2,0.3 -2.3,0.9 -3,1.8 a 5.5,5.5 0 0 0 0,-3.5 c 0.7,0.9 1.8,1.5 3,1.7 z m -3.9,2.4 -3.8,-2.2 c 1.6,0.1 3,1 3.8,2.2 z m -0.3,-4.1 a 5.5,5.5 0 0 0 0,3.5 5.5,5.5 0 0 0 -3,-1.8 c 1.2,-0.2 2.3,-0.8 3,-1.7 z m -3.3,1.6 c 0.8,-1.1 2,-1.9 3.4,-2 -0.8,1 -2,1.8 -3.4,2 z m -1,2.9 c 0,-0.8 0.2,-1.5 0.5,-2.1 a 5.3,5.3 0 0 1 0,4.1 c -0.3,-0.6 -0.5,-1.3 -0.5,-2 z m 0.9,2.7 c 1.5,0.2 2.8,1 3.6,2.2 -1.5,-0.2 -2.8,-1 -3.6,-2.2 z m 8,0 c -0.8,1.2 -2.1,2 -3.6,2.2 0.8,-1.2 2.1,-2 3.6,-2.2 z m 5.5,-7.6 a 5.3,5.3 0 0 1 -0.1,4.3 h -0.2 a 5.3,5.3 0 0 1 0,-4.6 z m -18.7,-0.3 a 5.3,5.3 0 0 1 0,4.6 h -0.2 a 5.3,5.3 0 0 1 0,-4.3 z m -0.3,9.9 a 5.3,5.3 0 0 1 0.1,-4.3 h 0.3 a 5.3,5.3 0 0 1 -0.1,4.6 z m 18.8,0.3 a 5.3,5.3 0 0 1 -0.2,-4.6 h 0.4 a 5.3,5.3 0 0 1 0,4.3 z m -13.1,5.5 c 0,-0.5 -0.1,-1.1 -0.3,-1.6 0.7,0.7 1.5,1.3 2.5,1.6 z m 3.1,0 c -1.5,-0.2 -2.7,-1 -3.6,-2.1 l 0.2,-0.3 c 1.6,0.2 3,1.1 3.9,2.4 z m 0.9,0 a 5.3,5.3 0 0 1 4,-2.4 v 0.3 c -0.8,1.1 -2,2 -3.5,2.1 z m 1.4,0 c 1,-0.3 1.8,-0.9 2.5,-1.6 -0.2,0.5 -0.3,1 -0.3,1.6 z m 12,-18.3 a 5.3,5.3 0 0 1 -4,2.2 z m -5,0.8 -1.1,-2 c 0.5,-0.2 0.9,-0.6 1.3,-1 a 5.3,5.3 0 0 0 -0.2,3 z m -1.5,-2 c -0.5,0.4 -1.1,0.6 -1.8,0.7 0.4,-0.6 0.9,-1 1.4,-1.4 z m -3.3,-1.6 c 0,0.5 0.1,1.1 0.3,1.6 a 5.5,5.5 0 0 0 -2.5,-1.6 z m -5.4,0 c -1,0.3 -1.8,0.9 -2.5,1.6 0.2,-0.5 0.3,-1 0.3,-1.6 z m -5.1,1 c 0.5,0.4 1,0.8 1.4,1.4 -0.7,-0.1 -1.3,-0.3 -1.8,-0.6 z m -2,0.1 v -0.4 c 0.3,0.4 0.7,0.8 1.2,1 l -1,2 c 0.1,-0.9 0.1,-1.7 -0.1,-2.6 z m -4.8,1.7 4,2.2 c -1.7,-0.1 -3,-1 -4,-2.2 z m 0,15.5 a 5.3,5.3 0 0 1 4,-2.3 l -4,2.2 z m 6.5,1 c 0.5,-0.3 1.1,-0.5 1.8,-0.6 -0.4,0.6 -0.9,1 -1.4,1.4 z m 13.8,0.8 c -0.5,-0.4 -1,-0.8 -1.4,-1.4 0.7,0.1 1.3,0.3 1.8,0.6 z m 2.7,-19.9 a 5.3,5.3 0 0 1 -0.1,4.7 l -0.3,-0.6 a 5.3,5.3 0 0 1 0.1,-4 h 0.3 z m -18.7,0 h 0.2 a 5.3,5.3 0 0 1 0.1,4.1 l -0.3,0.6 a 5.3,5.3 0 0 1 0,-4.7 z m 0.7,17.2 1.1,2 c -0.5,0.2 -0.9,0.6 -1.3,1 a 5.3,5.3 0 0 0 0.2,-3 z m 4.3,6.2 c 0.8,-1.2 2.1,-2 3.6,-2.2 h 0.5 a 5.3,5.3 0 0 1 -4,2.4 z m 8.5,0.2 c -1.7,-0.1 -3.1,-1 -4,-2.4 h 0.5 c 1.5,0.2 2.8,1 3.6,2.2 z m 4.4,-3.8 0.2,0.4 c -0.4,-0.4 -0.8,-0.8 -1.3,-1 l 1,-2 c -0.1,0.9 -0.1,1.7 0.1,2.6 z m 13,-3.9 c -1,-0.5 -1.8,-0.8 -2.8,-0.8 v -9.6 a 6,6 0 0 0 1.2,-11.7 5.9,5.9 0 0 0 -6.5,2.5 l -8.3,-4.7999998 a 6,6 0 1 0 -10.6,0 l -8.2,4.7999998 a 6,6 0 0 0 -10.20000037,0.3 6,6 0 0 0 4.89999997,8.9 v 9.6 a 6.0018747,6.0018747 0 0 0 0.3,12 5.9,5.9 0 0 0 5.0000004,-2.8 l 8.2,4.8 a 6,6 0 1 0 10.6,0 l 8.3,-4.8 a 6,6 0 0 0 10.1,-0.3 6,6 0 0 0 -2.2,-8.1 z"
     id="path2" />
</svg>
