<?xml version="1.0" encoding="UTF-8" standalone="no"?>
<!-- Created with Inkscape (http://www.inkscape.org/) -->

<svg
   width="305.54688"
   height="211.60939"
   viewBox="0 0 80.842609 55.988318"
   version="1.1"
   id="svg1"
   xml:space="preserve"
   inkscape:version="1.3.2 (091e20ef0f, 2023-11-25)"
   sodipodi:docname="carnegie_science_white.svg"
   xmlns:inkscape="http://www.inkscape.org/namespaces/inkscape"
   xmlns:sodipodi="http://sodipodi.sourceforge.net/DTD/sodipodi-0.dtd"
   xmlns="http://www.w3.org/2000/svg"
   xmlns:svg="http://www.w3.org/2000/svg"><sodipodi:namedview
     id="namedview1"
     pagecolor="#ffffff"
     bordercolor="#666666"
     borderopacity="1.0"
     inkscape:showpageshadow="2"
     inkscape:pageopacity="0.0"
     inkscape:pagecheckerboard="true"
     inkscape:deskcolor="#d1d1d1"
     inkscape:document-units="px"
     inkscape:zoom="3.5442662"
     inkscape:cx="152.64091"
     inkscape:cy="105.8047"
     inkscape:window-width="1920"
     inkscape:window-height="1010"
     inkscape:window-x="0"
     inkscape:window-y="0"
     inkscape:window-maximized="1"
     inkscape:current-layer="layer1" /><defs
     id="defs1"><clipPath
       id="clip1"><path
         d="M 0,0 H 139 V 158.71094 H 0 Z m 0,0"
         id="path1" /></clipPath><clipPath
       id="clip2"><path
         d="m 211,54 h 18.16016 V 78 H 211 Z m 0,0"
         id="path2" /></clipPath></defs><g
     inkscape:label="Layer 1"
     inkscape:groupmode="layer"
     id="layer1"
     transform="translate(-64.518694,-120.50584)"><g
       id="surface28770"
       transform="matrix(0.35277778,0,0,0.35277778,64.518694,120.50446)"><g
         clip-path="url(#clip1)"
         clip-rule="nonzero"
         id="g3"><path
           style="fill:#ffffff;fill-opacity:1;fill-rule:nonzero;stroke:none"
           d="M 79.355469,158.71094 C 35.597656,158.71094 0,123.11328 0,79.355469 0,35.601562 35.597656,0.00390625 79.355469,0.00390625 c 22.628911,0 44.242191,9.69921875 59.296871,26.61718775 l -1.3125,1.167968 C 122.61719,11.246094 101.48438,1.757812 79.355469,1.757812 c -42.789063,0 -77.597657,34.8125 -77.597657,77.597657 0,42.789061 34.808594,77.597651 77.597657,77.597651 22.132811,0 43.269531,-9.49218 57.992191,-26.03906 l 1.3125,1.16797 c -15.05469,16.92188 -36.67188,26.62891 -59.304691,26.62891"
           id="path3" /></g><path
         style="fill:#ffffff;fill-opacity:1;fill-rule:nonzero;stroke:none"
         d="m 70.984375,77.980469 c 2.542969,0 6.167969,-0.453125 9.015625,-2.605469 l 0.08594,-0.0625 0.09375,-4.527344 h -0.726563 l -0.03125,0.179688 c -0.679687,3.808594 -3.578125,5.742187 -8.609375,5.742187 -6.539062,0 -10.070312,-5.472656 -10.070312,-10.617187 0,-7.433594 5.207031,-10.820313 10.042968,-10.820313 2.703125,0 7.386719,0.722657 8.351563,5.546875 l 0.03516,0.175782 h 0.71875 l -0.0625,-4.542969 -0.105469,-0.0625 C 77.121094,54.78125 74.21875,53.996094 70.84375,53.996094 c -7.457031,0 -12.464844,4.828125 -12.464844,12.007812 0,5.960938 3.898438,11.976563 12.605469,11.976563"
         id="path4" /><path
         style="fill:#ffffff;fill-opacity:1;fill-rule:nonzero;stroke:none"
         d="m 88.953125,67.652344 3.953125,-10.109375 3.664062,10.109375 z m -0.417969,9.023437 h -0.21875 c -1.203125,0 -1.789062,-0.140625 -2.027344,-0.484375 -0.308593,-0.457031 -0.128906,-1.417968 0.621094,-3.324218 l 1.324219,-3.398438 h 9.011719 l 2.074218,5.71875 c 0.175782,0.503906 0.191407,0.855469 0.03906,1.066406 -0.207031,0.292969 -0.785156,0.421875 -1.875,0.421875 h -0.21875 v 0.902344 h 7.195318 v -0.902344 h -0.22266 c -1.77734,0 -2.38672,-0.675781 -2.7539,-1.695312 l -7.847664,-20.984375 -0.05078,-0.140625 h -0.558594 l -7.761719,19.25 c -1.273437,3.125 -1.933594,3.570312 -3.703125,3.570312 h -0.222656 v 0.902344 h 7.195312 v -0.902344"
         id="path5" /><path
         style="fill:#ffffff;fill-opacity:1;fill-rule:nonzero;stroke:none"
         d="m 111.96875,66.011719 h -1.04297 v -10.28125 h 1.9336 c 5.04296,0 7.19531,1.457031 7.19531,4.867187 0,3.59375 -2.71875,5.414063 -8.08594,5.414063 z m 2.40625,10.664062 h -0.22266 c -2.68359,0 -3.22656,-0.285156 -3.22656,-1.707031 v -7.882812 h 1.87891 c 4.52734,0 5.88281,0.1875 6.9414,4.433593 1.13282,4.464844 2.19532,6.460938 5.50391,6.460938 0.97266,0 1.60938,-0.21875 2.15625,-0.449219 l 0.21094,-0.09375 -0.19922,-0.40625 -0.15625,0.01953 c -3.18359,0.402344 -4.25,-1.554687 -5.19141,-5.550781 -0.73828,-3.1875 -2.05078,-4.699219 -4.7539,-5.210938 3.09765,-0.738281 5.13281,-2.992187 5.13281,-5.890624 0,-5.214844 -5.17188,-5.882813 -9.67578,-5.882813 h -6.85938 v 0.871094 h 0.21875 c 2.3711,0 2.62891,0.273437 2.62891,1.359375 v 18.425781 c 0,1.070313 -0.23828,1.503906 -2.62891,1.503906 h -0.21875 v 0.902344 H 114.375 V 76.67578"
         id="path6" /><path
         style="fill:#ffffff;fill-opacity:1;fill-rule:nonzero;stroke:none"
         d="m 136.27344,76.675781 h -0.21875 c -2.66407,0 -2.94532,-0.851562 -2.94532,-2.796875 V 58 l 16.3125,20.214844 0.0625,0.08203 h 0.41407 v -20.08203 c 0,-1.859375 0.44922,-2.800782 2.91406,-2.800782 h 0.21875 v -0.898437 h -7.85547 v 0.898437 h 0.21875 c 2.66406,0 2.94141,0.851563 2.94141,2.800782 V 73.542969 L 133.05469,54.515625 h -4.60938 v 0.929687 h 0.21875 c 1.31641,0 2.88672,0.398438 2.88672,2.308594 v 16.125 c 0,1.855469 -0.44922,2.796875 -2.91406,2.796875 h -0.21875 v 0.902344 h 7.85547 v -0.902344"
         id="path7" /><path
         style="fill:#ffffff;fill-opacity:1;fill-rule:nonzero;stroke:none"
         d="m 172.77344,71.789062 h -0.70313 l -0.0195,0.195313 c -0.41797,3.722656 -1.14062,4.375 -4.8125,4.375 h -4.88672 c -1.76172,0 -1.96484,-0.175781 -1.96484,-1.703125 v -8.863281 h 4.66406 c 1.81641,0 2.41406,0.125 2.85938,2.804687 l 0.0312,0.183594 h 0.69531 v -7.136719 h -0.69531 l -0.0312,0.183594 c -0.41407,2.621094 -1.01563,2.746094 -2.85938,2.746094 h -4.66406 v -8.84375 h 5.35547 c 4.16015,0 4.89843,0.550781 5.27343,3.914062 l 0.0195,0.195313 h 0.70312 V 54.515625 H 155.375 v 0.898437 h 0.22266 c 2.39843,0 2.625,0.375 2.625,1.363282 v 18.539062 c 0,0.988282 -0.22657,1.359375 -2.625,1.359375 H 155.375 v 0.902344 h 17.39844 v -5.789063"
         id="path8" /><path
         style="fill:#ffffff;fill-opacity:1;fill-rule:nonzero;stroke:none"
         d="m 187.46875,77.980469 c 5.13672,0 7.64844,-1.78125 8.85156,-3.273438 l 0.0508,-0.0625 V 69.625 c 0,-0.765625 0.24219,-0.960938 2.05078,-0.960938 h 0.21875 v -0.898437 h -6.70703 v 0.898437 h 0.22266 c 1.89844,0 2.07812,0.257813 2.07812,0.929688 v 4.832031 c -1.39062,1.492188 -3.80468,2.28125 -6.99609,2.28125 -5.01562,0 -10.09766,-3.636719 -10.09766,-10.589843 0,-7.492188 4.98438,-10.847657 9.92579,-10.847657 4.73437,0 7.54296,1.867188 8.35156,5.550781 l 0.0391,0.171876 h 0.71094 v -4.566407 l -0.10156,-0.06641 c -2.50782,-1.566406 -5.51563,-2.363281 -8.94141,-2.363281 -7.38672,0 -12.34766,4.835937 -12.34766,12.035156 0,3.226562 1.0586,6.152344 2.98438,8.242188 2.23047,2.425781 5.58984,3.707031 9.70703,3.707031"
         id="path9" /><path
         style="fill:#ffffff;fill-opacity:1;fill-rule:nonzero;stroke:none"
         d="m 200.72656,55.414062 h 0.22266 c 2.39844,0 2.625,0.375 2.625,1.363282 v 18.394531 c 0,0.9375 -0.17578,1.503906 -2.625,1.503906 h -0.22266 v 0.902344 h 7.85547 v -0.902344 h -0.21875 c -2.44922,0 -2.625,-0.566406 -2.625,-1.503906 V 56.777344 c 0,-0.988282 0.22656,-1.363282 2.625,-1.363282 h 0.21875 v -0.898437 h -7.85547 v 0.898437"
         id="path10" /><g
         clip-path="url(#clip2)"
         clip-rule="nonzero"
         id="g11"><path
           style="fill:#ffffff;fill-opacity:1;fill-rule:nonzero;stroke:none"
           d="m 228.46094,71.789062 -0.0234,0.195313 c -0.41797,3.722656 -1.13672,4.375 -4.8125,4.375 h -4.88672 c -1.76172,0 -1.96484,-0.175781 -1.96484,-1.703125 v -8.863281 h 4.66797 c 1.8164,0 2.41406,0.125 2.85937,2.804687 l 0.0273,0.183594 h 0.69532 v -7.136719 h -0.69532 l -0.0273,0.183594 c -0.41406,2.621094 -1.01953,2.746094 -2.85937,2.746094 h -4.66797 v -8.84375 h 5.35937 c 4.15625,0 4.89453,0.550781 5.26953,3.914062 l 0.0234,0.195313 h 0.70313 v -5.324219 h -16.36329 v 0.898437 h 0.21875 c 2.39844,0 2.625,0.375 2.625,1.363282 v 18.539062 c 0,0.988282 -0.22656,1.359375 -2.625,1.359375 h -0.21875 v 0.902344 h 17.39844 v -5.789063 h -0.70312"
           id="path11" /></g><path
         style="fill:#ffffff;fill-opacity:1;fill-rule:nonzero;stroke:none"
         d="M 67.492188,91.929688 65.59375,91.296875 c -2.933594,-0.964844 -4.363281,-2.457031 -4.363281,-4.5625 0,-3.71875 3.425781,-4.121094 4.898437,-4.121094 3.496094,0 5.519532,1.71875 6.019532,5.101563 l 0.02734,0.1875 h 0.667969 v -4.800782 l -0.109375,-0.0625 c -2.039063,-1.171874 -4.003906,-1.667968 -6.578125,-1.667968 -4.269531,0 -7.03125,2.128906 -7.03125,5.421875 0,3.136719 1.773438,5.175781 5.585938,6.417969 l 1.867187,0.601562 c 3.460937,1.144531 5.335937,2.339844 5.335937,5.367188 0,2.929692 -2.300781,4.898442 -5.726562,4.898442 -3.015625,0 -5.925781,-0.67188 -6.769531,-5.539068 l -0.03125,-0.183593 h -0.691407 v 4.875001 l 0.08984,0.0664 c 1.886719,1.34375 4.425782,2.05468 7.34375,2.05468 4.777344,0 7.863282,-2.66015 7.863282,-6.773435 0,-4.480469 -3.757813,-5.734375 -6.5,-6.648437"
         id="path12" /><path
         style="fill:#ffffff;fill-opacity:1;fill-rule:nonzero;stroke:none"
         d="m 97.902344,98.335938 c -0.679688,3.808592 -3.578125,5.742192 -8.609375,5.742192 -6.539063,0 -10.070313,-5.472661 -10.070313,-10.617192 0,-7.433594 5.207032,-10.816407 10.042969,-10.816407 2.703125,0 7.386719,0.71875 8.347656,5.542969 l 0.03906,0.175781 h 0.714844 l -0.05859,-4.539062 -0.105469,-0.06641 c -2.601563,-1.605468 -5.507813,-2.386718 -8.878906,-2.386718 -7.457031,0 -12.464844,4.824218 -12.464844,12.003906 0,5.960938 3.898437,11.976563 12.605469,11.976563 2.542968,0 6.167968,-0.45312 9.015625,-2.60547 l 0.08594,-0.0625 0.08984,-4.527343 h -0.722656 l -0.03125,0.179688"
         id="path13" /><path
         style="fill:#ffffff;fill-opacity:1;fill-rule:nonzero;stroke:none"
         d="m 102.69531,82.785156 h 0.21875 c 2.40235,0 2.625,0.375 2.625,1.363282 v 18.394532 c 0,0.9375 -0.17578,1.50391 -2.625,1.50391 h -0.21875 v 0.90234 h 7.85547 v -0.90234 h -0.21875 c -2.44922,0 -2.6289,-0.56641 -2.6289,-1.50391 V 84.148438 c 0,-0.988282 0.22656,-1.363282 2.6289,-1.363282 h 0.21875 v -0.898437 h -7.85547 v 0.898437"
         id="path14" /><path
         style="fill:#ffffff;fill-opacity:1;fill-rule:nonzero;stroke:none"
         d="m 130.40234,99.355469 c -0.41406,3.722661 -1.13281,4.375001 -4.80859,4.375001 h -4.88672 c -1.76562,0 -1.96484,-0.17188 -1.96484,-1.70313 v -8.863278 h 4.66406 c 1.82031,0 2.41406,0.125 2.85938,2.804688 l 0.0312,0.183594 h 0.6914 v -7.136719 h -0.6914 l -0.0312,0.183594 c -0.41407,2.625 -1.01563,2.75 -2.85938,2.75 h -4.66406 v -8.847657 h 5.35547 c 4.16015,0 4.89843,0.550782 5.26953,3.917969 l 0.0234,0.195313 h 0.70313 v -5.328125 h -16.36328 v 0.898437 h 0.21875 c 2.40234,0 2.62891,0.375 2.62891,1.363282 V 102.6875 c 0,0.98828 -0.22657,1.35938 -2.62891,1.35938 h -0.21875 v 0.90234 h 17.39844 v -5.789064 h -0.70313 l -0.0234,0.195313"
         id="path15" /><path
         style="fill:#ffffff;fill-opacity:1;fill-rule:nonzero;stroke:none"
         d="m 151.06641,82.785156 h 0.21875 c 2.66406,0 2.94531,0.855469 2.94531,2.800782 V 100.91406 L 138.94531,81.886719 h -4.60547 v 0.929687 h 0.21875 c 1.31641,0 2.88282,0.398438 2.88282,2.308594 v 16.125 c 0,1.85547 -0.44922,2.79688 -2.91407,2.79688 h -0.21875 v 0.90234 h 7.85547 v -0.90234 h -0.21875 c -2.66406,0 -2.9414,-0.85157 -2.9414,-2.79688 V 85.375 l 16.30859,20.21094 0.0664,0.082 h 0.41015 V 85.585938 c 0,-1.855469 0.44922,-2.800782 2.91406,-2.800782 h 0.21875 v -0.898437 h -7.85546 v 0.898437"
         id="path16" /><path
         style="fill:#ffffff;fill-opacity:1;fill-rule:nonzero;stroke:none"
         d="m 181.13281,98.335938 c -0.67969,3.808592 -3.57812,5.742192 -8.60937,5.742192 -6.53907,0 -10.07032,-5.472661 -10.07032,-10.617192 0,-7.433594 5.20704,-10.816407 10.04297,-10.816407 2.70313,0 7.38672,0.71875 8.35157,5.542969 l 0.0352,0.175781 h 0.71875 l -0.0625,-4.539062 -0.10156,-0.06641 c -2.60156,-1.605468 -5.50781,-2.386718 -8.88281,-2.386718 -7.45703,0 -12.46485,4.824218 -12.46485,12.003906 0,5.960938 3.89844,11.976563 12.60938,11.976563 2.53906,0 6.16406,-0.45312 9.01172,-2.60547 l 0.0859,-0.0625 0.0937,-4.527343 h -0.72656 l -0.0312,0.179688"
         id="path17" /><path
         style="fill:#ffffff;fill-opacity:1;fill-rule:nonzero;stroke:none"
         d="m 201.44922,99.355469 c -0.41797,3.722661 -1.13672,4.375001 -4.8125,4.375001 h -4.88281 c -1.76563,0 -1.96875,-0.17188 -1.96875,-1.70313 v -8.863278 h 4.66796 c 1.81641,0 2.41407,0.125 2.85938,2.804688 l 0.0312,0.183594 h 0.69141 v -7.136719 h -0.69532 l -0.0273,0.183594 c -0.41406,2.625 -1.01563,2.75 -2.85938,2.75 h -4.66796 v -8.847657 h 5.35937 c 4.15625,0 4.89453,0.550782 5.26953,3.917969 l 0.0234,0.195313 h 0.70312 v -5.328125 h -16.36328 v 0.898437 h 0.21875 c 2.40235,0 2.625,0.375 2.625,1.363282 V 102.6875 c 0,0.98828 -0.22265,1.35938 -2.625,1.35938 h -0.21875 v 0.90234 h 17.39844 v -5.789064 h -0.70312 l -0.0234,0.195313"
         id="path18" /></g></g></svg>
